<!-- Generated by IcoMoon.io -->
<svg version="1.1" xmlns="http://www.w3.org/2000/svg" width="320" height="32" viewBox="0 0 320 32">
<title>birthday-tape</title>
<path fill="#ce98d3" d="M134.249 23.341c-0.716 0.499-1.471 0.946-2.251 1.33 0.844-1.010 1.202-2.404 1.138-3.747 0-0.128-0.141-0.179-0.23-0.102-1.292 1.202-1.88 2.903-2.404 4.54-0.844 0.333-1.701 0.614-2.583 0.819-0.23 0.064-0.128 0.422 0.102 0.371 0.806-0.205 1.599-0.448 2.379-0.755 0.090-0.026 0.192-0.064 0.281-0.115 1.944 0.627 4.131 0.345 5.845-0.755 0.115-0.077 0.064-0.256-0.077-0.256-0.946-0.038-1.918-0.141-2.865 0.013-0.422 0.064-0.844 0.141-1.253 0.243 0.652-0.333 1.279-0.703 1.893-1.125 0.026-0.013 0.038-0.026 0.064-0.038 1.816 0.038 3.607-0.639 4.924-1.88 0.090-0.077 0.026-0.243-0.102-0.23-1.1 0.102-2.187 0.396-3.197 0.844 0.23-0.205 0.448-0.422 0.652-0.652 0.358-0.281 0.703-0.601 0.998-0.946 0.499-0.576 0.908-1.228 1.228-1.918 0.435-0.985 0.691-2.059 0.691-3.159 0-0.115-0.153-0.179-0.243-0.090-0.345 0.333-0.665 0.691-0.959 1.074-0.435 0.563-0.78 1.177-1.061 1.816-0.396 0.882-0.639 1.803-0.729 2.762-0.333 0.384-0.703 0.729-1.087 1.061-0.026 0.026-0.064 0.051-0.102 0.090 0.703-1.202 0.793-2.711 0.819-4.093 0.013-0.102 0.013-0.205 0.013-0.307 0-0.141-0.192-0.192-0.269-0.064-0.051 0.102-0.102 0.205-0.153 0.307-0.409 0.767-0.767 1.56-1.049 2.379-0.294 0.819-0.563 1.701-0.409 2.583z"></path>
<path fill="#bb92c0" d="M89.985 15.015c-0.064 0.831-0.077 1.663-0.038 2.494 0.013 0.243 0.384 0.23 0.371-0.013-0.038-0.895-0.013-1.803 0.064-2.699 1.42-0.972 2.89-2.008 3.683-3.581 0.051-0.115-0.038-0.243-0.166-0.205-1.305 0.32-2.532 1.049-3.274 2.149 0.153-0.857 0.371-1.714 0.652-2.545 0.882-0.090 1.65-0.601 2.366-1.113 0.793-0.563 1.547-1.202 2.225-1.906 0.102-0.102 0-0.281-0.128-0.23-1.407 0.422-2.967 0.934-3.99 2.021 0.013-0.038 0.038-0.077 0.051-0.115 0.205-0.46 0.448-0.908 0.716-1.343 1.547-0.614 2.903-1.663 3.888-3.005 0.294-0.384 0.55-0.793 0.767-1.228 0.051-0.102-0.038-0.243-0.166-0.205-1.765 0.524-3.325 1.714-4.323 3.261-0.243 0.396-0.46 0.806-0.639 1.241-0.153 0.256-0.294 0.524-0.435 0.806 0.153-1.1 0.128-2.225-0.077-3.312-0.026-0.128-0.205-0.141-0.269-0.038-0.806 1.624-0.959 3.53-0.409 5.256 0 0.026-0.013 0.051-0.026 0.077-0.217 0.703-0.409 1.42-0.55 2.136-0.013-0.422-0.051-0.857-0.102-1.279-0.128-0.946-0.499-1.854-0.806-2.75-0.038-0.141-0.23-0.141-0.269 0-0.576 1.957-0.23 4.131 0.921 5.819-0.013 0.102-0.026 0.205-0.038 0.307z"></path>
<path fill="#ffefac" d="M182.861 20.041c0 0 0.013-0.013 0.013-0.013-0.013-0.013-0.026-0.013-0.038-0.026 0.013 0.013 0.013 0.026 0.026 0.038z"></path>
<path fill="#ffefac" d="M180.661 21.998c0 0-0.013 0-0.013 0.013 0.051 0.013 0.102 0.038 0.153 0.051 0 0 0 0 0 0-0.026 0-0.051-0.013-0.077-0.026s-0.051-0.026-0.064-0.038z"></path>
<path fill="#ffefac" d="M181.492 24.441c-0.026 0.013-0.051 0.026-0.064 0.038 0.026-0.013 0.051-0.013 0.090-0.026-0.013 0-0.026 0-0.026-0.013z"></path>
<path fill="#ffefac" d="M181.735 25.093c-0.166 0.026-0.32 0.051-0.486 0.077 0.166-0.013 0.32-0.038 0.486-0.077z"></path>
<path fill="#ffd3e9" d="M189.076 23.315c0.115 0.243 0.064 0.524-0.128 0.729s-0.486 0.269-0.767 0.281c-0.307 0.013-0.627-0.013-0.946-0.038-0.422-0.026-0.844-0.077-1.279-0.141 0.358 0.256 0.703 0.55 0.972 0.895 0.32 0.396 0.576 0.895 0.601 1.407 0.013 0.243-0.064 0.537-0.345 0.588-0.256 0.038-0.537-0.102-0.755-0.23-0.473-0.281-0.87-0.716-1.189-1.164-0.205-0.281-0.384-0.576-0.524-0.895-0.090 0.55-0.217 1.1-0.409 1.624-0.102 0.307-0.243 0.614-0.409 0.908-0.153 0.269-0.32 0.55-0.537 0.767-0.179 0.179-0.435 0.307-0.691 0.217-0.281-0.102-0.409-0.396-0.435-0.665-0.038-0.32 0.038-0.652 0.141-0.946 0.102-0.345 0.256-0.678 0.422-0.998 0.166-0.333 0.371-0.652 0.588-0.959-0.371 0.217-0.742 0.422-1.151 0.576-0.576 0.205-1.215 0.32-1.829 0.192-0.141-0.026-0.294-0.064-0.358-0.205-0.064-0.115-0.038-0.256 0-0.371 0.115-0.281 0.384-0.524 0.639-0.691 0.46-0.333 1.023-0.524 1.599-0.601-0.077-0.026-0.141-0.051-0.217-0.077-0.32-0.128-0.639-0.269-0.946-0.422-0.243-0.128-0.537-0.256-0.742-0.473-0.192-0.217-0.205-0.512-0.038-0.755 0.166-0.217 0.435-0.358 0.703-0.409 0.639-0.115 1.253 0.23 1.765 0.576 0.051 0.026 0.090 0.064 0.141 0.102-0.102-0.141-0.192-0.294-0.294-0.435-0.294-0.435-0.742-0.985-0.665-1.547 0.090-0.576 0.729-0.793 1.228-0.639 0.639 0.205 0.946 0.934 1.177 1.509 0.141 0.32 0.243 0.652 0.345 0.985 0.166-0.307 0.345-0.601 0.576-0.87 0.396-0.486 0.934-0.934 1.56-1.1 0.294-0.077 0.614-0.064 0.844 0.141 0.217 0.205 0.294 0.524 0.243 0.806-0.115 0.665-0.627 1.241-1.125 1.637-0.102 0.090-0.192 0.166-0.307 0.23 0.077-0.013 0.141-0.026 0.205-0.026 0.281-0.051 0.563-0.064 0.844-0.064s0.576 0 0.857 0.064c0.269 0.077 0.512 0.23 0.639 0.486zM182.874 20.029v0c-0.013-0.013-0.026-0.013-0.038-0.026 0.013 0.013 0.013 0.026 0.026 0.038 0 0 0.013-0.013 0.013-0.013zM180.802 22.062v0c-0.026 0-0.051-0.013-0.077-0.026s-0.051-0.026-0.064-0.038c0 0-0.013 0-0.013 0.013 0.051 0.013 0.102 0.038 0.153 0.051 0 0 0 0 0 0zM181.428 24.479v0c0.026-0.013 0.051-0.013 0.090-0.026-0.013 0-0.026 0-0.026-0.013-0.026 0.013-0.051 0.026-0.064 0.038zM181.735 25.093v0c-0.166 0.026-0.32 0.051-0.486 0.077 0.166-0.013 0.32-0.038 0.486-0.077zM184.894 23.418v0c-0.038-0.217-0.23-0.422-0.435-0.448s-0.409 0.077-0.499 0.256c-0.102 0.179-0.090 0.396 0.026 0.576 0.115 0.166 0.294 0.23 0.473 0.205 0.269-0.026 0.499-0.294 0.435-0.588z"></path>
<path fill="#bb92c0" d="M184.459 22.97c-0.205-0.026-0.409 0.077-0.499 0.256-0.102 0.179-0.090 0.396 0.026 0.576 0.115 0.166 0.294 0.23 0.473 0.205 0.269-0.026 0.499-0.294 0.435-0.588-0.038-0.217-0.23-0.422-0.435-0.448z"></path>
<path fill="#ffefac" d="M59.508 17.854c0.141-0.064 0.307-0.026 0.448 0.038 0.345 0.153 0.627 0.512 0.819 0.831 0.358 0.614 0.55 1.317 0.601 2.034 0.026-0.090 0.064-0.166 0.115-0.256 0.179-0.384 0.384-0.767 0.601-1.125 0.179-0.307 0.358-0.652 0.639-0.882s0.652-0.217 0.934 0.013c0.269 0.217 0.409 0.563 0.448 0.908 0.090 0.793-0.384 1.509-0.844 2.123-0.051 0.051-0.102 0.115-0.141 0.166 0.179-0.102 0.371-0.217 0.55-0.32 0.563-0.333 1.279-0.844 1.97-0.703 0.716 0.153 0.934 0.959 0.691 1.586-0.307 0.767-1.241 1.087-1.957 1.317-0.409 0.141-0.831 0.256-1.253 0.333 0.371 0.243 0.716 0.499 1.023 0.793 0.576 0.537 1.087 1.241 1.241 2.034 0.077 0.358 0.026 0.755-0.256 1.023-0.269 0.256-0.665 0.32-1.010 0.23-0.806-0.192-1.471-0.87-1.931-1.522-0.090-0.128-0.179-0.256-0.256-0.396 0 0.090 0.013 0.166 0.026 0.243 0.026 0.358 0.026 0.703 0 1.061-0.013 0.345-0.051 0.716-0.166 1.049-0.102 0.32-0.307 0.614-0.627 0.742-0.32 0.141-0.665 0.051-0.895-0.205-0.243-0.269-0.307-0.627-0.294-0.972 0.013-0.384 0.064-0.78 0.128-1.164 0.064-0.524 0.166-1.049 0.281-1.573-0.358 0.422-0.742 0.819-1.189 1.125-0.524 0.358-1.151 0.627-1.791 0.627-0.294 0-0.652-0.128-0.691-0.473-0.038-0.32 0.166-0.665 0.333-0.908 0.384-0.563 0.972-1.023 1.535-1.381 0.371-0.23 0.755-0.422 1.151-0.576-0.665-0.153-1.33-0.358-1.957-0.639-0.384-0.166-0.742-0.358-1.1-0.588-0.32-0.205-0.639-0.435-0.895-0.729-0.205-0.23-0.345-0.563-0.217-0.87 0.153-0.333 0.524-0.473 0.857-0.486 0.396-0.013 0.793 0.115 1.164 0.256 0.409 0.166 0.806 0.371 1.189 0.601 0.409 0.243 0.78 0.512 1.151 0.806-0.256-0.473-0.473-0.946-0.627-1.458-0.205-0.742-0.281-1.547-0.090-2.289 0.051-0.166 0.115-0.345 0.294-0.422zM60.979 22.855v0c-0.217 0.128-0.307 0.333-0.294 0.563 0.013 0.333 0.32 0.627 0.691 0.588 0.269-0.038 0.537-0.243 0.588-0.512 0.051-0.243-0.064-0.499-0.269-0.639-0.217-0.141-0.486-0.128-0.716 0zM65.737 21.794v0c0.013-0.026 0.026-0.038 0.026-0.051-0.013 0-0.026 0.013-0.051 0.026 0.013 0 0.013 0.013 0.026 0.026zM63.384 19.057v0c0.026-0.038 0.038-0.064 0.051-0.090 0.013-0.038 0.026-0.064 0.051-0.077 0-0.013-0.013-0.013-0.013-0.026-0.026 0.064-0.064 0.128-0.090 0.179 0 0.013 0 0.013 0 0.013zM60.365 19.619v0c0 0.038 0.013 0.077 0.013 0.115 0-0.013 0.013-0.013 0.013-0.026-0.013-0.026-0.026-0.051-0.026-0.090zM59.508 19.351v0c0 0.205 0.026 0.396 0.064 0.601-0.026-0.205-0.051-0.396-0.064-0.601z"></path>
<path fill="#bb92c0" d="M60.685 23.418c0.013 0.333 0.32 0.627 0.691 0.588 0.269-0.038 0.537-0.243 0.588-0.512 0.051-0.243-0.064-0.499-0.269-0.639-0.217-0.141-0.486-0.128-0.716 0-0.217 0.128-0.307 0.333-0.294 0.563z"></path>
<path fill="#fbbcd3" d="M113.709 27.408c0.742 0.217 1.509 0.371 2.289 0.448 0.013 0 0.013 0 0.026 0 0.141-0.435 0.281-0.882 0.409-1.33-0.793 0.269-1.573 0.524-2.379 0.767-0.115 0.038-0.23 0.077-0.345 0.115z"></path>
<path fill="#bb92c0" d="M120.014 9.81c0.153 0.064 0.166 0.256 0.153 0.409 0 0.077-0.013 0.166-0.026 0.243 0.537-0.217 1.074-0.46 1.547-0.793 0.281-0.192 0.563-0.409 0.78-0.678 0.192-0.205 0.448-0.499 0.281-0.806-0.23-0.46-0.895-0.179-1.356 0.064 0.102-0.166 0.192-0.358 0.269-0.55 0.115-0.281 0.294-0.691-0.013-0.921-0.294-0.23-0.601 0.038-0.819 0.23-0.256 0.243-0.486 0.512-0.678 0.806-0.090 0.128-0.166 0.256-0.243 0.384-0.013-0.141-0.038-0.294-0.051-0.435-0.064-0.384-0.141-1.727-0.831-1.381-0.269 0.128-0.294 0.435-0.32 0.691-0.038 0.32-0.051 0.627-0.026 0.946 0.038 0.652 0.179 1.304 0.435 1.906 0.026 0.077 0.077 0.128 0.141 0.166 0 0.026 0 0.051 0 0.064 0.153-0.102 0.307-0.205 0.473-0.281 0.090-0.051 0.192-0.090 0.281-0.064z"></path>
<path fill="#fbbcd3" d="M117.162 23.111c0.026-0.128 0.051-0.256 0.077-0.396 0.205-0.921 0.499-1.816 0.767-2.724-1.202 0.217-2.443 0.179-3.658 0.077-0.985-0.090-1.97-0.179-2.929-0.409-0.537-0.128-1.074-0.32-1.573-0.563-0.857 0.882-1.688 1.791-2.353 2.801 0.767 0.422 1.56 0.767 2.392 1.010 2.366 0.703 4.86 0.627 7.277 0.205z"></path>
<path fill="#fbbcd3" d="M114.387 19.44c1.279 0.115 2.571 0.141 3.824-0.128 0.153-0.563 0.307-1.138 0.448-1.701-2.276 0.499-4.681 0.345-6.881-0.435-0.371 0.371-0.742 0.729-1.1 1.087-0.115 0.115-0.243 0.243-0.358 0.358 0.435 0.179 0.87 0.333 1.33 0.435 0.895 0.217 1.829 0.294 2.737 0.384z"></path>
<path fill="#fbbcd3" d="M119.375 14.478c0.153-0.716 0.307-1.432 0.448-2.149-1.113 0.281-2.264 0.396-3.415 0.358-0.588 0.563-1.177 1.125-1.765 1.688 1.56 0.307 3.172 0.333 4.732 0.102z"></path>
<path fill="#fbbcd3" d="M118.838 16.908c0.141-0.588 0.269-1.177 0.396-1.765-1.714 0.23-3.453 0.153-5.141-0.243-0.601 0.588-1.215 1.189-1.816 1.778 2.11 0.691 4.4 0.767 6.561 0.23z"></path>
<path fill="#fbbcd3" d="M111.842 23.955c-1.637-0.192-3.223-0.703-4.668-1.509-0.026 0.026-0.038 0.051-0.051 0.090 0.396 0.588 0.831 1.164 1.33 1.675 1.177 1.228 2.622 2.187 4.182 2.814 0.486-0.102 0.972-0.256 1.432-0.396 0.857-0.269 1.714-0.55 2.571-0.844 0.026-0.128 0.064-0.256 0.102-0.396 0-0.013 0-0.026 0-0.051 0.115-0.512 0.205-1.036 0.294-1.56-0.064 0.013-0.128 0.026-0.205 0.038-1.65 0.256-3.325 0.345-4.988 0.141z"></path>
<path fill="#fbbcd3" d="M119.963 11.639c0.077-0.384 0.141-0.78 0.179-1.177 0.013-0.077 0.026-0.166 0.026-0.243 0.013-0.153 0-0.345-0.153-0.409-0.090-0.026-0.192 0.013-0.281 0.064-0.166 0.077-0.32 0.179-0.473 0.281-0.345 0.243-0.665 0.524-0.972 0.806-0.409 0.371-0.806 0.729-1.202 1.1 0.972-0.026 1.931-0.166 2.878-0.422z"></path>
<path fill="#ffefac" d="M119.823 12.329c0.013-0.051 0.026-0.102 0.038-0.153 0.026-0.179 0.064-0.358 0.102-0.537-0.946 0.256-1.906 0.396-2.878 0.422-0.23 0.217-0.46 0.422-0.678 0.627 1.151 0.038 2.302-0.077 3.415-0.358z"></path>
<path fill="#ffefac" d="M119.234 15.143c0.051-0.23 0.102-0.448 0.141-0.665-1.56 0.23-3.172 0.205-4.732-0.102-0.179 0.166-0.371 0.345-0.55 0.524 1.688 0.396 3.428 0.473 5.141 0.243z"></path>
<path fill="#ffefac" d="M118.659 17.611c0.064-0.243 0.115-0.473 0.179-0.703-2.161 0.537-4.451 0.46-6.561-0.23-0.166 0.166-0.333 0.333-0.499 0.499 2.2 0.78 4.604 0.934 6.881 0.435z"></path>
<path fill="#ffefac" d="M114.349 20.067c1.215 0.102 2.456 0.141 3.658-0.077 0.013-0.038 0.026-0.064 0.038-0.102 0.051-0.192 0.102-0.384 0.166-0.576-1.253 0.269-2.545 0.243-3.824 0.128-0.908-0.090-1.842-0.166-2.737-0.384-0.46-0.102-0.895-0.256-1.33-0.435-0.153 0.153-0.32 0.32-0.473 0.473 0.499 0.243 1.036 0.435 1.573 0.563 0.959 0.23 1.944 0.32 2.929 0.409z"></path>
<path fill="#ffefac" d="M111.842 23.955c1.663 0.205 3.338 0.115 4.988-0.141 0.077-0.013 0.141-0.026 0.205-0.038 0.038-0.217 0.077-0.435 0.128-0.665-2.417 0.422-4.911 0.499-7.277-0.205-0.831-0.243-1.624-0.588-2.392-1.010-0.051 0.077-0.090 0.166-0.141 0.243-0.064 0.102-0.128 0.205-0.179 0.307 1.445 0.806 3.031 1.317 4.668 1.509z"></path>
<path fill="#ffefac" d="M112.635 27.024c0.345 0.141 0.703 0.269 1.074 0.384 0.115-0.038 0.23-0.077 0.345-0.115 0.806-0.243 1.586-0.499 2.379-0.767 0.077-0.243 0.141-0.486 0.205-0.742-0.857 0.294-1.714 0.576-2.571 0.844-0.46 0.141-0.946 0.294-1.432 0.396z"></path>
<path fill="#bb92c0" d="M113.709 27.408c-0.371-0.115-0.729-0.243-1.074-0.384-1.56-0.627-3.005-1.586-4.182-2.814-0.499-0.512-0.934-1.087-1.33-1.675-0.064-0.090-0.115-0.179-0.166-0.269-0.217-0.345-0.755 0-0.537 0.345 1.1 1.791 2.673 3.261 4.502 4.297 0.166 0.090 0.32 0.179 0.486 0.256 0.141 0.077 0.294 0.153 0.448 0.217 0.499 0.23 0.998 0.435 1.522 0.588 0.806 0.256 1.637 0.422 2.481 0.499 0.396 0.038 0.537-0.55 0.166-0.614-0.013 0-0.013 0-0.026 0-0.78-0.077-1.547-0.23-2.289-0.448z"></path>
<path fill="#ffefac" d="M297.862 22.945c0.614-0.371 1.228-0.767 1.829-1.177 0.767-0.524 1.522-1.074 2.059-1.829 0.153-0.23 0.307-0.499 0.333-0.78 0.051-0.358-0.077-0.703-0.217-1.036-0.678-1.624-1.56-3.133-2.456-4.643-1.816 0.972-3.632 1.944-5.448 2.89 1.292 2.2 2.596 4.387 3.901 6.574z"></path>
<path fill="#ffefac" d="M293.437 16.652c-1.931 1.010-3.85 2.008-5.781 2.993 0.678 1.253 1.356 2.507 2.046 3.76 0.473 0.87 1.062 1.829 2.021 2.072 0.767 0.192 1.573-0.128 2.289-0.46 1.138-0.537 2.251-1.125 3.338-1.765-0.269-0.448-0.524-0.882-0.793-1.33-1.036-1.752-2.085-3.517-3.121-5.269z"></path>
<path fill="#ffb1e0" d="M288.321 10.718c-0.588 0.090-1.177 0.128-1.765 0.115-0.793-0.026-1.867-0.038-2.443-0.678-0.729-0.819 0.716-1.253 1.292-1.381 0.333-0.077 0.652-0.115 0.985-0.128-0.038-0.026-0.077-0.051-0.102-0.064-0.767-0.499-1.688-1.215-1.931-2.149-0.090-0.384-0.026-0.806 0.333-1.023 0.358-0.23 0.818-0.115 1.189 0.038 0.793 0.307 1.484 0.921 2.085 1.548-0.026-0.077-0.051-0.166-0.077-0.243-0.243-0.857-0.499-1.829-0.205-2.711 0.128-0.384 0.384-0.793 0.767-0.959 0.473-0.217 0.831 0.077 1.074 0.486 0.563 0.959 0.767 1.995 0.831 3.095 0.013 0.038 0.013 0.077 0.013 0.115 0.32-0.767 0.793-1.548 1.522-1.944 0.384-0.217 0.908-0.396 1.292-0.090 0.345 0.281 0.384 0.793 0.358 1.215-0.026 0.652-0.281 1.266-0.614 1.816-0.333 0.153-0.652 0.32-0.959 0.46-0.192 0.090-0.371 0.179-0.55 0.294 0.217-0.269 0.422-0.524 0.614-0.806 0.243-0.333 0.448-0.716 0.588-1.113 0.064-0.179 0.102-0.371 0.128-0.576 0.013-0.115 0.064-0.524-0.038-0.627-0.115-0.115-0.448 0.102-0.55 0.179-0.217 0.153-0.384 0.345-0.537 0.55-0.281 0.384-0.486 0.819-0.652 1.253-0.217 0.563-0.358 1.151-0.396 1.739-0.013 0-0.013 0-0.013 0.013-0.192 0.166-0.396 0.333-0.601 0.486-0.153 0.128-0.32 0.243-0.486 0.358-0.371 0.256-0.755 0.499-1.151 0.729zM289.728 9.158v0c-0.051-0.844-0.102-1.701-0.166-2.558-0.038-0.576-0.102-1.138-0.281-1.688-0.090-0.256-0.192-0.512-0.32-0.755-0.026-0.051-0.128-0.294-0.205-0.358 0.013 0.026-0.090 0.077-0.115 0.115-0.614 0.665-0.205 1.906 0.013 2.647 0.269 0.908 0.627 1.778 1.074 2.596zM285.699 7.111v0c0.371 0.384 0.818 0.691 1.266 0.972 0.512 0.32 1.036 0.614 1.56 0.908 0.051 0.026 0.102 0.038 0.153 0.064-0.345-0.486-0.729-0.946-1.138-1.368-0.371-0.371-0.755-0.729-1.164-1.049-0.217-0.153-0.435-0.307-0.678-0.409-0.102-0.051-0.473-0.243-0.588-0.153-0.179 0.153 0.473 0.921 0.588 1.036zM288.513 9.887v0c-0.115-0.064-0.243-0.128-0.358-0.192-0.998-0.358-2.123-0.358-3.133 0.013-0.026 0-0.064 0.026-0.102 0.051 0.141 0.051 0.281 0.141 0.435 0.166 0.448 0.090 0.908 0.115 1.368 0.128 0.601 0 1.202-0.051 1.791-0.166z"></path>
<path fill="#ffefac" d="M294.217 7.431c-0.422 0.013-0.87 0.166-1.292 0.345-0.333 0.153-0.652 0.32-0.959 0.46-0.192 0.090-0.371 0.179-0.55 0.294-0.307 0.166-0.576 0.371-0.844 0.601-0.013 0-0.013 0-0.013 0.013-0.192 0.166-0.396 0.333-0.601 0.486 0.243 0.409 0.486 0.819 0.716 1.215 0.409 0.691 0.818 1.381 1.228 2.072 0.588 0.985 1.177 1.97 1.752 2.954 1.829-0.959 3.632-1.918 5.448-2.89-0.32-0.537-0.639-1.062-0.946-1.586-0.537-0.895-1.074-1.803-1.727-2.609-0.333-0.409-0.729-0.806-1.177-1.062-0.32-0.192-0.665-0.307-1.036-0.294z"></path>
<path fill="#ffefac" d="M289.472 9.989c-0.371 0.256-0.755 0.499-1.151 0.729-0.499 0.294-1.010 0.563-1.535 0.819-0.435 0.205-0.882 0.422-1.189 0.806-0.448 0.576-0.448 1.381-0.307 2.097 0 0.026 0.013 0.064 0.026 0.090 0.269 1.317 0.921 2.532 1.573 3.722 0.166 0.294 0.32 0.588 0.486 0.882 1.918-0.985 3.837-1.982 5.755-2.993-0.972-1.65-1.957-3.3-2.942-4.949-0.23-0.409-0.473-0.806-0.716-1.202z"></path>
<path fill="#ffb1e0" d="M289.958 9.631c-0.153 0.128-0.32 0.243-0.486 0.358 0.243 0.396 0.486 0.793 0.716 1.202 0.985 1.65 1.97 3.3 2.942 4.949-1.918 1.010-3.837 2.008-5.755 2.993 0.090 0.166 0.179 0.345 0.281 0.512 1.931-0.985 3.85-1.982 5.781-2.993 1.036 1.752 2.085 3.517 3.121 5.269 0.269 0.448 0.524 0.882 0.793 1.33 0.166-0.102 0.333-0.205 0.512-0.307-1.305-2.187-2.609-4.374-3.901-6.574 1.816-0.946 3.632-1.918 5.448-2.89-0.064-0.102-0.128-0.205-0.192-0.307-0.038-0.064-0.077-0.128-0.115-0.192-1.816 0.972-3.619 1.931-5.448 2.89-0.576-0.985-1.164-1.97-1.752-2.954-0.409-0.691-0.818-1.381-1.228-2.072-0.23-0.396-0.473-0.806-0.716-1.215z"></path>
<path fill="#ffefac" d="M170.647 14.708c0.026-0.064 0.051-0.128 0.077-0.205-0.064 0-0.128-0.013-0.192-0.026-0.153 0.128-0.307 0.256-0.448 0.396-0.55 0.563-0.985 1.202-1.317 1.906 0.333-0.179 0.639-0.396 0.921-0.665 0.409-0.396 0.742-0.882 0.959-1.407z"></path>
<path fill="#ffefac" d="M169.841 26.014c-0.563-1.394-1.061-2.814-1.496-4.259-0.806-0.051-1.611-0.23-2.417-0.307-0.256 0.256-0.409 0.537-0.333 0.972 0.128 0.652 0.448 1.241 0.512 1.918 0.038 0.512-0.767 0.512-0.806 0-0.051-0.678-0.435-1.279-0.512-1.957-0.038-0.345 0.013-0.665 0.153-0.946-0.051 0-0.115 0.013-0.179 0.013-0.831 0.090-1.65 0.371-2.366 0.793-0.729 0.435-1.279 1.049-1.893 1.611-0.576 0.537-1.228 0.921-2.021 0.998-0.844 0.090-1.701-0.128-2.507-0.371-0.857-0.256-1.752-0.55-2.66-0.473-0.524 0.038-0.946 0.243-1.33 0.512 0.115 0.307 0.23 0.614 0.358 0.921 0.217 0.537 0.448 1.087 0.844 1.522 0.588 0.627 1.445 0.959 2.302 1.049s1.727-0.013 2.583-0.128c3.722-0.486 7.456-0.972 11.191-1.445 0.333-0.051 0.652-0.090 0.985-0.153-0.166 0-0.333-0.090-0.409-0.269z"></path>
<path fill="#ffefac" d="M167.552 18.993c-0.038 0.192-0.077 0.396-0.128 0.588-0.153 0.639-0.486 1.074-0.998 1.471-0.013 0.013-0.038 0.026-0.051 0.038 0.614 0.077 1.228 0.205 1.842 0.269-0.23-0.78-0.46-1.573-0.665-2.366z"></path>
<path fill="#ffefac" d="M151.079 20.438c1.599-0.269 3.197-0.537 4.809-0.806 3.607-0.588 7.226-1.138 10.845-1.663-0.691-0.256-1.368-0.576-1.995-0.972-0.371-0.23-0.972-0.588-1.292-1.010-0.32-0.038-0.652-0.102-0.985-0.179-0.895-0.205-1.778-0.269-2.673-0.090-0.87 0.166-1.624 0.524-2.366 0.985-0.729 0.448-1.445 0.819-2.315 0.793-0.946-0.026-1.829-0.409-2.75-0.55-0.819-0.128-1.778 0.013-2.238 0.755 0.179 1.023 0.409 2.034 0.665 3.031 0.013-0.141 0.102-0.256 0.294-0.294z"></path>
<path fill="#ffefac" d="M172.834 20.732c-0.512 0.051-0.985 0.217-1.458 0.396 0.153 0.256 0.256 0.563 0.243 0.895-0.013 0.499-0.422 1.343-0.077 1.791 0.32 0.396-0.243 0.972-0.563 0.563-0.486-0.614-0.333-1.279-0.205-1.982 0.064-0.345 0.077-0.678-0.153-0.959-0.166 0.064-0.333 0.115-0.512 0.166-0.307 0.102-0.614 0.153-0.921 0.166 0.422 1.356 0.895 2.711 1.432 4.029 0.077 0.205-0.013 0.358-0.166 0.435 0.333-0.090 0.639-0.192 0.921-0.358 0.499-0.281 0.882-0.703 1.215-1.151 0.78-1.049 1.266-2.302 1.394-3.594 0.013-0.115 0.026-0.23 0.026-0.345-0.384-0.064-0.78-0.090-1.177-0.051z"></path>
<path fill="#ffefac" d="M171.568 14.516c-0.090 0.358-0.281 0.716-0.422 0.985-0.307 0.563-0.729 1.074-1.228 1.471-0.384 0.307-0.806 0.499-1.228 0.716 1.471-0.205 2.942-0.409 4.399-0.601 0.217-0.026 0.409 0.205 0.409 0.396-0.013 0.23-0.192 0.371-0.409 0.396-1.535 0.205-3.069 0.422-4.591 0.639 0.077 0.128 0.179 0.256 0.243 0.333 0.192 0.243 0.409 0.46 0.639 0.665 0.448 0.384 0.972 0.665 1.432 1.023 0.115 0.077 0.205 0.166 0.294 0.256 0.767-0.294 1.535-0.524 2.379-0.473 0.179 0.013 0.358 0.026 0.537 0.064 0.013-1.791-0.524-3.568-0.857-5.359-0.064-0.384-0.128-0.78-0.179-1.177-0.307 0.166-0.601 0.371-0.908 0.512-0.179 0.077-0.345 0.115-0.512 0.153z"></path>
<path fill="#ffefac" d="M164.79 15.399c-0.256-0.128-0.576-0.23-0.703-0.013-0.051 0.064-0.013 0.141 0.051 0.217 0.038 0 0.064-0.013 0.090-0.013 0.205-0.038 0.384-0.102 0.563-0.192z"></path>
<path fill="#ffefac" d="M151.796 16.499c1.138 0 2.174 0.563 3.312 0.601 0.959 0.038 1.688-0.512 2.494-0.972 0.755-0.448 1.599-0.742 2.468-0.857 0.895-0.115 1.739-0.013 2.609 0.179 0.192 0.051 0.384 0.090 0.576 0.128-0.051-0.243 0.013-0.499 0.256-0.755 0.576-0.614 1.407-0.32 2.085 0.102 0.294-0.205 0.576-0.422 0.882-0.601-0.333-1.663-0.639-3.312-0.908-4.988-0.895-0.026-1.791-0.23-2.686-0.23-0.921 0.013-1.829 0.281-2.596 0.793-0.639 0.435-1.253 1.036-2.072 1.087-0.819 0.038-1.445-0.691-2.276-0.601-0.959 0.102-1.688 0.895-2.532 1.266-0.857 0.384-1.701 0.179-2.596 0.077-0.422-0.038-0.908-0.026-1.317 0.141 0 0.038 0 0.090 0 0.128 0.064 1.739 0.243 3.466 0.524 5.18 0.46-0.46 1.125-0.678 1.778-0.678z"></path>
<path fill="#ffefac" d="M165.212 15.629c-0.115 0.064-0.23 0.128-0.358 0.179-0.102 0.051-0.205 0.077-0.307 0.115 0.064 0.038 0.128 0.077 0.166 0.102 0.345 0.243 0.703 0.46 1.074 0.652 0.307 0.166 0.614 0.307 0.934 0.435-0.217-0.333-0.473-0.639-0.755-0.908-0.23-0.217-0.486-0.409-0.755-0.576z"></path>
<path fill="#ffefac" d="M155.978 24.057c0.921 0.281 1.944 0.588 2.916 0.32 0.857-0.23 1.445-0.934 2.072-1.535 1.151-1.1 2.66-1.765 4.259-1.816 0.064-0.077 0.128-0.153 0.217-0.217 0.384-0.333 0.882-0.576 1.1-1.061 0.128-0.32 0.179-0.652 0.256-0.985-5.18 0.742-10.346 1.56-15.513 2.456-0.192 0.026-0.333-0.064-0.422-0.192 0.294 1.049 0.614 2.085 0.985 3.108 0.358-0.256 0.767-0.435 1.241-0.499 0.985-0.141 1.957 0.141 2.89 0.422z"></path>
<path fill="#ffefac" d="M167.053 8.761c0.396-0.141 0.742-0.384 1.125-0.537 0.882-0.345 1.791-0.115 2.686 0.013 0.422 0.064 0.882 0.090 1.292-0.013-0.192-0.806-0.512-1.611-1.164-2.136-0.46-0.358-1.049-0.537-1.624-0.665-1.049-0.23-2.238-0.409-3.312-0.217-0.115 0.013-0.217 0.038-0.333 0.064 0.192 1.215 0.384 2.43 0.588 3.658 0.243-0.026 0.499-0.077 0.742-0.166z"></path>
<path fill="#ffefac" d="M153.394 11.217c0.793-0.396 1.471-1.062 2.379-1.215 0.409-0.064 0.78 0.013 1.164 0.166 0.384 0.166 0.755 0.409 1.189 0.422 0.831 0.013 1.484-0.755 2.149-1.151 0.755-0.448 1.624-0.703 2.494-0.729 0.921-0.026 1.816 0.179 2.737 0.23-0.192-1.164-0.384-2.328-0.563-3.491 0-0.013 0-0.026 0-0.038-0.55 0.102-1.087 0.192-1.65 0.256-2.519 0.32-5.001 0.793-7.443 1.42-1.356 0.345-2.686 0.742-4.003 1.177-0.576 0.192-1.164 0.409-1.599 0.831-0.601 0.601-0.742 1.484-0.755 2.34 0.256-0.077 0.537-0.128 0.806-0.128 1.074-0.026 2.072 0.435 3.095-0.090z"></path>
<path fill="#ffefac" d="M167.296 14.337c0.179 0.857 0.358 1.714 0.563 2.558 0.384-0.998 0.985-1.918 1.739-2.66-0.064-0.013-0.115-0.026-0.179-0.051-0.716-0.166-1.445-0.102-2.123 0.153z"></path>
<path fill="#ffefac" d="M171.223 8.685c-1.061-0.077-2.072-0.473-3.095 0-0.396 0.192-0.767 0.409-1.189 0.524-0.192 0.051-0.371 0.090-0.563 0.115 0.026 0.179 0.051 0.358 0.090 0.537 0.23 1.356 0.473 2.724 0.755 4.080 0.038-0.013 0.077-0.026 0.115-0.051 0.857-0.294 1.727-0.23 2.583 0.026 0.013 0 0.026 0 0.026 0.013 0-0.013 0-0.013 0-0.013 0.435-0.358 1.241-0.908 1.586-0.141 0.051 0.102 0.064 0.217 0.077 0.333 0.358-0.102 0.691-0.32 1.010-0.512 0.102-0.051 0.205-0.102 0.307-0.153-0.205-1.611-0.333-3.236-0.678-4.822-0.333 0.077-0.691 0.090-1.023 0.064z"></path>
<path fill="#ffefac" d="M170.276 21.128c-0.141-0.102-0.307-0.205-0.46-0.307-0.409-0.269-0.819-0.576-1.189-0.921 0.141 0.499 0.281 0.998 0.435 1.484 0.243-0.013 0.486-0.038 0.729-0.102 0.166-0.038 0.333-0.090 0.486-0.153z"></path>
<path fill="#ffefac" d="M166.26 15.399c0.205 0.166 0.384 0.345 0.55 0.524-0.077-0.396-0.166-0.793-0.256-1.189-0.205 0.128-0.409 0.281-0.614 0.422 0.115 0.090 0.23 0.166 0.32 0.243z"></path>
<path fill="#fbbcd3" d="M170.864 8.237c-0.895-0.128-1.803-0.358-2.686-0.013-0.384 0.153-0.729 0.396-1.125 0.537-0.243 0.090-0.499 0.141-0.742 0.166 0.013 0.128 0.038 0.256 0.064 0.396 0.192-0.026 0.371-0.064 0.563-0.115 0.422-0.115 0.793-0.333 1.189-0.524 1.023-0.473 2.034-0.077 3.095 0 0.333 0.026 0.691 0.013 1.023-0.064-0.013-0.038-0.013-0.077-0.026-0.115-0.013-0.090-0.038-0.179-0.064-0.281-0.409 0.102-0.87 0.077-1.292 0.013z"></path>
<path fill="#fbbcd3" d="M150.811 11.728c0.895 0.102 1.739 0.307 2.596-0.077 0.844-0.371 1.573-1.164 2.532-1.266 0.831-0.090 1.458 0.639 2.276 0.601 0.819-0.051 1.432-0.652 2.072-1.087 0.767-0.512 1.675-0.78 2.596-0.793 0.895 0 1.791 0.205 2.686 0.23-0.026-0.128-0.051-0.269-0.064-0.396-0.921-0.051-1.816-0.256-2.737-0.23-0.87 0.026-1.739 0.281-2.494 0.729-0.665 0.396-1.317 1.164-2.149 1.151-0.435-0.013-0.806-0.256-1.189-0.422-0.384-0.153-0.755-0.23-1.164-0.166-0.908 0.153-1.586 0.819-2.379 1.215-1.023 0.524-2.021 0.064-3.095 0.090-0.269 0-0.55 0.051-0.806 0.128 0 0.153 0 0.294 0 0.435 0.409-0.166 0.895-0.179 1.317-0.141z"></path>
<path fill="#fbbcd3" d="M165.212 15.629c-0.038-0.013-0.064-0.038-0.090-0.051-0.077-0.051-0.192-0.115-0.333-0.179-0.179 0.090-0.358 0.153-0.563 0.192-0.026 0-0.051 0.013-0.090 0.013 0.102 0.115 0.269 0.23 0.409 0.32 0.102-0.038 0.205-0.064 0.307-0.115 0.128-0.051 0.243-0.115 0.358-0.179z"></path>
<path fill="#fbbcd3" d="M170.788 14.286c0 0 0-0.013 0-0.013-0.013 0-0.013 0.013-0.026 0.013-0.013 0.013-0.026 0.013-0.038 0.026-0.064 0.051-0.128 0.102-0.192 0.166 0.064 0.013 0.128 0.026 0.192 0.026 0.026-0.064 0.051-0.141 0.064-0.217z"></path>
<path fill="#fbbcd3" d="M152.358 16.946c0.921 0.141 1.803 0.524 2.75 0.55 0.87 0.026 1.586-0.345 2.315-0.793 0.742-0.46 1.496-0.819 2.366-0.985 0.895-0.179 1.778-0.115 2.673 0.090 0.333 0.077 0.665 0.141 0.985 0.179-0.090-0.128-0.166-0.269-0.192-0.409-0.192-0.038-0.384-0.077-0.576-0.128-0.87-0.192-1.714-0.294-2.609-0.179-0.87 0.115-1.714 0.409-2.468 0.857-0.806 0.46-1.535 1.010-2.494 0.972-1.138-0.038-2.174-0.601-3.312-0.601-0.652 0-1.317 0.217-1.778 0.678 0.038 0.179 0.064 0.358 0.102 0.524 0.46-0.742 1.42-0.882 2.238-0.755z"></path>
<path fill="#fbbcd3" d="M165.941 15.156c0.205-0.141 0.409-0.294 0.614-0.422-0.026-0.141-0.051-0.281-0.077-0.409-0.307 0.179-0.588 0.396-0.882 0.601 0.115 0.077 0.243 0.153 0.345 0.23z"></path>
<path fill="#fbbcd3" d="M171.606 14.107c0 0.128-0.013 0.269-0.038 0.409 0.166-0.038 0.333-0.077 0.512-0.153 0.307-0.141 0.601-0.345 0.908-0.512-0.026-0.141-0.038-0.269-0.064-0.409-0.102 0.051-0.205 0.102-0.307 0.153-0.32 0.192-0.652 0.409-1.010 0.512z"></path>
<path fill="#fbbcd3" d="M167.335 13.89c-0.038 0.026-0.077 0.038-0.115 0.051 0.026 0.141 0.051 0.269 0.077 0.396 0.678-0.256 1.407-0.32 2.123-0.153 0.064 0.026 0.115 0.038 0.179 0.051 0.115-0.102 0.23-0.217 0.345-0.307 0-0.013-0.013-0.013-0.026-0.013-0.857-0.256-1.727-0.32-2.583-0.026z"></path>
<path fill="#fbbcd3" d="M168.294 21.614c-0.026-0.090-0.051-0.166-0.077-0.256-0.614-0.064-1.228-0.192-1.842-0.269-0.166 0.115-0.32 0.23-0.448 0.358 0.806 0.077 1.611 0.256 2.417 0.307-0.026-0.038-0.038-0.090-0.051-0.141z"></path>
<path fill="#fbbcd3" d="M155.978 24.479c0.806 0.243 1.663 0.46 2.507 0.371 0.793-0.077 1.445-0.46 2.021-0.998 0.614-0.563 1.164-1.177 1.893-1.611 0.716-0.422 1.535-0.703 2.366-0.793 0.064 0 0.128-0.013 0.179-0.013 0.077-0.141 0.166-0.281 0.281-0.409-1.599 0.051-3.108 0.716-4.259 1.816-0.627 0.601-1.215 1.305-2.072 1.535-0.972 0.269-1.995-0.038-2.916-0.32-0.934-0.281-1.906-0.563-2.89-0.422-0.473 0.064-0.882 0.243-1.241 0.499 0.051 0.128 0.090 0.256 0.141 0.384 0.384-0.269 0.806-0.473 1.33-0.512 0.908-0.077 1.803 0.217 2.66 0.473z"></path>
<path fill="#fbbcd3" d="M170.276 21.128c-0.153 0.064-0.32 0.115-0.486 0.153-0.243 0.064-0.486 0.090-0.729 0.102 0.038 0.128 0.090 0.256 0.128 0.384 0.307-0.013 0.614-0.064 0.921-0.166 0.179-0.051 0.345-0.102 0.512-0.166-0.013-0.013-0.026-0.026-0.026-0.038-0.102-0.102-0.205-0.192-0.32-0.269z"></path>
<path fill="#fbbcd3" d="M171.107 20.796c0.102 0.102 0.192 0.217 0.269 0.333 0.473-0.179 0.946-0.345 1.458-0.396 0.396-0.038 0.793-0.013 1.177 0.051 0.013-0.128 0.013-0.269 0.013-0.396-0.179-0.038-0.358-0.051-0.537-0.064-0.844-0.051-1.611 0.179-2.379 0.473z"></path>
<path fill="#bb92c0" d="M170.455 26.231c-0.064 0.026-0.128 0.051-0.205 0.051-0.166 0-0.333-0.090-0.409-0.269-0.563-1.394-1.061-2.814-1.496-4.259-0.026-0.038-0.038-0.090-0.051-0.141-0.026-0.090-0.051-0.166-0.077-0.256-0.23-0.78-0.46-1.573-0.665-2.366-0.038 0.192-0.077 0.396-0.128 0.588-0.153 0.639-0.486 1.074-0.998 1.471-0.013 0.013-0.038 0.026-0.051 0.038-0.166 0.115-0.32 0.23-0.448 0.358-0.256 0.256-0.409 0.537-0.333 0.972 0.128 0.652 0.448 1.241 0.512 1.918 0.038 0.512-0.767 0.512-0.806 0-0.051-0.678-0.435-1.279-0.512-1.957-0.038-0.345 0.013-0.665 0.153-0.946 0.077-0.141 0.166-0.281 0.281-0.409 0.064-0.077 0.128-0.153 0.217-0.217 0.384-0.333 0.882-0.576 1.1-1.061 0.128-0.32 0.179-0.652 0.256-0.985-5.18 0.742-10.346 1.56-15.513 2.456-0.192 0.026-0.333-0.064-0.422-0.192-0.051-0.077-0.090-0.192-0.077-0.294 0.013-0.141 0.102-0.256 0.294-0.294 1.599-0.269 3.197-0.537 4.809-0.806 3.607-0.588 7.226-1.138 10.845-1.663-0.691-0.256-1.368-0.576-1.995-0.972-0.371-0.23-0.972-0.588-1.292-1.010-0.090-0.128-0.166-0.269-0.192-0.409-0.051-0.243 0.013-0.499 0.256-0.755 0.576-0.614 1.407-0.32 2.085 0.102 0.115 0.077 0.243 0.153 0.345 0.23 0.115 0.090 0.23 0.166 0.32 0.243 0.205 0.166 0.384 0.345 0.55 0.524-0.077-0.396-0.166-0.793-0.256-1.189-0.026-0.141-0.051-0.281-0.077-0.409-0.333-1.663-0.639-3.312-0.908-4.988-0.026-0.128-0.051-0.269-0.064-0.396-0.192-1.164-0.384-2.328-0.563-3.491 0-0.013 0-0.026 0-0.038-0.026-0.473 0.703-0.665 0.78-0.179 0 0.013 0 0.026 0 0.038 0.192 1.215 0.384 2.43 0.588 3.658 0.013 0.128 0.038 0.256 0.064 0.396 0.026 0.179 0.051 0.358 0.090 0.537 0.23 1.356 0.473 2.724 0.755 4.080 0.026 0.141 0.051 0.269 0.077 0.396 0.179 0.857 0.358 1.714 0.563 2.558 0.384-0.998 0.985-1.918 1.739-2.66 0.115-0.102 0.23-0.217 0.345-0.307 0-0.013 0-0.013 0-0.013 0.435-0.358 1.241-0.908 1.586-0.141 0.051 0.102 0.064 0.217 0.077 0.333 0 0.128-0.013 0.269-0.038 0.409-0.090 0.358-0.281 0.716-0.422 0.985-0.307 0.563-0.729 1.074-1.228 1.471-0.384 0.307-0.806 0.499-1.228 0.716 1.471-0.205 2.942-0.409 4.399-0.601 0.217-0.026 0.409 0.205 0.409 0.396-0.013 0.23-0.192 0.371-0.409 0.396-1.535 0.205-3.069 0.422-4.591 0.639 0.077 0.128 0.179 0.256 0.243 0.333 0.192 0.243 0.409 0.46 0.639 0.665 0.448 0.384 0.972 0.665 1.432 1.023 0.115 0.077 0.205 0.166 0.294 0.256 0.102 0.102 0.192 0.217 0.269 0.333 0.153 0.256 0.256 0.563 0.243 0.895-0.013 0.499-0.422 1.343-0.077 1.791 0.32 0.396-0.243 0.972-0.563 0.563-0.486-0.614-0.333-1.279-0.205-1.982 0.064-0.345 0.077-0.678-0.153-0.959-0.013-0.013-0.026-0.026-0.026-0.038-0.102-0.102-0.205-0.192-0.32-0.269-0.141-0.102-0.307-0.205-0.46-0.307-0.409-0.269-0.819-0.576-1.189-0.921 0.141 0.499 0.281 0.998 0.435 1.484 0.038 0.128 0.090 0.256 0.128 0.384 0.422 1.356 0.895 2.711 1.432 4.029 0.077 0.205-0.013 0.358-0.166 0.435zM168.767 16.78v0c0.333-0.179 0.639-0.396 0.921-0.665 0.409-0.396 0.742-0.882 0.959-1.407 0.026-0.064 0.051-0.128 0.077-0.205 0.026-0.064 0.051-0.141 0.064-0.217 0 0 0-0.013 0-0.013-0.013 0-0.013 0.013-0.026 0.013-0.013 0.013-0.026 0.013-0.038 0.026-0.064 0.051-0.128 0.102-0.192 0.166-0.153 0.128-0.307 0.256-0.448 0.396-0.55 0.563-0.985 1.202-1.317 1.906zM166.721 17.113v0c-0.217-0.333-0.473-0.639-0.755-0.908-0.23-0.217-0.486-0.409-0.755-0.576-0.038-0.013-0.064-0.038-0.090-0.051-0.077-0.051-0.192-0.115-0.333-0.179-0.256-0.128-0.576-0.23-0.703-0.013-0.051 0.064-0.013 0.141 0.051 0.217 0.102 0.115 0.269 0.23 0.409 0.32 0.064 0.038 0.128 0.077 0.166 0.102 0.345 0.243 0.703 0.46 1.074 0.652 0.307 0.166 0.614 0.307 0.934 0.435z"></path>
<path fill="#bb92c0" d="M15.948 13.532c0.102 0.038 0.192 0.102 0.269 0.166-0.038-0.179-0.077-0.371-0.102-0.55-0.908-0.998-1.675-2.11-2.251-3.364-0.192-0.422-0.793-0.524-1.177-0.307-0.435 0.256-0.499 0.755-0.307 1.177 0.588 1.292 1.381 2.443 2.315 3.491-0.013-0.064-0.026-0.115-0.013-0.179 0.051-0.524 0.793-0.678 1.266-0.435z"></path>
<path fill="#bb92c0" d="M37.895 21.192c0.013-0.026 0.026-0.038 0.038-0.064-0.026 0-0.038 0-0.051 0 0 0.026 0.013 0.051 0.013 0.064z"></path>
<path fill="#bb92c0" d="M17.278 14.286c-0.115-0.102-0.217-0.192-0.333-0.294 0.051 0.128 0.090 0.243 0.141 0.371 0.051 0.026 0.090 0.064 0.141 0.090 0.013-0.064 0.026-0.115 0.051-0.166z"></path>
<path fill="#bb92c0" d="M41.68 21.947c0.269-0.141 0.601-0.102 0.87 0.051 0.537-0.128 1.074-0.281 1.611-0.422 0.473-0.141 0.946-0.269 1.42-0.409 1.062-0.32 0.614-1.982-0.448-1.663-0.486 0.141-0.972 0.281-1.458 0.422-0.576 0.153-1.138 0.307-1.714 0.448 0.32 0.486 0.217 1.253-0.281 1.573z"></path>
<path fill="#bb92c0" d="M39.148 15.361c-0.153-0.806-0.78-1.586-1.675-1.496-0.921 0.102-1.688 0.998-2.302 1.599-0.038 0.051-0.090 0.090-0.128 0.141 0.115-0.243 0.217-0.499 0.32-0.755 0.486-1.33 0.806-2.903 0.179-4.233-0.576-1.228-1.88-1.79-3.185-1.432-0.627 0.179-1.138 0.512-1.56 0.959 0.269-1.202 0.588-2.379 0.959-3.555-0.064 0-0.141 0-0.205-0.013-0.153-0.051-0.281-0.128-0.384-0.23-0.396 1.228-0.729 2.481-1.010 3.747-0.153-0.512-0.384-0.985-0.703-1.407-0.422-0.563-1.023-1.151-1.752-1.215-0.639-0.064-1.215 0.294-1.624 0.767-0.895 1.010-1.394 2.468-1.663 3.773-0.038-0.192-0.077-0.371-0.128-0.563-0.269-0.972-0.793-1.918-1.65-2.481-0.742-0.473-1.727-0.576-2.519-0.166-0.588 0.294-0.921 0.819-1.087 1.407-0.358-1.023-0.639-2.059-0.857-3.121-0.153 0.166-0.371 0.256-0.601 0.256 0.192 0.934 0.435 1.842 0.729 2.75-0.038-0.013-0.077-0.026-0.102-0.038-0.908-0.192-1.637 0.422-1.931 1.228-0.217 0.588-0.23 1.241-0.153 1.867 0.026 0.179 0.064 0.371 0.102 0.55 0.294 0.205 0.563 0.473 0.87 0.665-0.051-0.128-0.090-0.243-0.141-0.371-0.179-0.601-0.269-1.228-0.217-1.854 0.064-0.601 0.345-1.42 1.061-1.471 0.524-0.038 1.023 0.384 1.113 0.895 0 0.051 0 0.115 0.013 0.166 0.038 0.409 0.627 0.422 0.639 0 0-0.102 0-0.205-0.013-0.294-0.026-0.55 0.026-1.113 0.333-1.573 0.32-0.486 0.882-0.703 1.458-0.665 1.292 0.090 2.046 1.343 2.34 2.481 0.371 1.407 0.384 2.916 0.524 4.361 0.051 0.46 0.090 0.921 0.128 1.381 0.486 0.064 0.934 0.307 1.253 0.665-0.601-1.496-0.831-3.121-0.703-4.745 0.102-1.215 0.422-2.417 0.946-3.504 0.269-0.524 0.563-1.087 1.036-1.458 0.614-0.486 1.241-0.205 1.739 0.307 0.998 0.985 1.33 2.507 0.908 3.837-0.115 0.396 0.499 0.55 0.627 0.166 0.345-1.151 0.998-2.379 2.187-2.814 1.202-0.435 2.379 0.128 2.775 1.343 0.409 1.241-0.013 2.686-0.512 3.85-0.512 1.215-1.253 2.315-2.085 3.338-0.243 0.294-0.499 0.588-0.767 0.882 0.141-0.026 0.294-0.026 0.422 0.013 0.269 0.077 0.486 0.256 0.652 0.473 0.806-1.522 1.854-2.916 3.082-4.105 0.588-0.563 1.791-1.829 2.456-0.678 0.601 1.074-0.256 2.302-0.499 3.351-0.077 0.345 0.409 0.563 0.588 0.243 0.435-0.755 1.062-1.368 1.854-1.739 0.409-0.192 1.036-0.448 1.458-0.166 0.294 0.192 0.358 0.601 0.358 0.921 0 0.806-0.333 1.65-0.678 2.392 0.128 0.026 0.23 0.090 0.333 0.166 0.077 0.051 0.141 0.128 0.205 0.205 0.051-0.115 0.115-0.256 0.166-0.384 0.256-0.588 0.524-1.292 0.601-1.982 0.038-0.345 0.026-0.691-0.064-1.023-0.115-0.422-0.371-0.78-0.78-0.946-0.192-0.077-0.384-0.115-0.588-0.115-0.358 0-0.729 0.115-1.062 0.256-0.192 0.077-0.384 0.166-0.563 0.269 0.256-0.524 0.512-1.049 0.793-1.56 0.32-0.601 0.652-1.202 1.010-1.778-0.090 0-0.166-0.013-0.256-0.038-0.141-0.038-0.269-0.102-0.371-0.192-0.281 0.486-0.563 0.972-0.831 1.471-0.281 0.537-0.563 1.074-0.831 1.624 0.013-0.205 0-0.396-0.038-0.601z"></path>
<path fill="#bb92c0" d="M23.583 16.934c-0.038-0.217-0.077-0.422-0.102-0.639-0.077-0.422-0.141-0.857-0.243-1.279-0.153-0.665-0.422-1.317-0.844-1.854-0.371-0.473-0.985-0.998-1.624-0.831-0.55 0.128-0.691 0.576-0.742 1.036-0.486-0.396-1.138-0.678-1.65-0.256-0.23 0.179-0.307 0.448-0.32 0.729 0.179-0.013 0.371 0.026 0.537 0.115 0.026 0.026 0.051 0.038 0.077 0.064 0.013-0.090 0.013-0.166 0.038-0.256 0.141-0.639 1.164 0.307 1.317 0.524 0.192 0.269 0.563 0.153 0.601-0.166 0.026-0.307-0.064-0.742 0.102-1.023 0.205-0.307 0.588-0.077 0.793 0.090 0.435 0.345 0.729 0.857 0.908 1.381 0.205 0.563 0.307 1.177 0.396 1.765 0.013 0.026 0.013 0.038 0.013 0.064 0.333 0.281 0.512 0.742 0.448 1.164 0.128-0.064 0.256-0.102 0.396-0.128-0.013-0.013-0.026-0.013-0.026-0.026-0.013-0.115-0.064-0.422-0.077-0.473z"></path>
<path fill="#bb92c0" d="M31.679 17.343c0.217-0.422 0.435-0.882 0.384-1.381-0.090-0.806-0.831-1.317-1.586-0.959-0.256 0.115-0.486 0.294-0.678 0.499-0.038-0.499-0.179-0.972-0.46-1.407-0.537-0.806-1.611-1.253-2.507-0.767-1.036 0.576-1.125 1.995-0.946 3.018 0.115 0.729 0.333 1.458 0.576 2.174 0.281 0 0.563 0.102 0.793 0.281-0.192-0.588-0.384-1.177-0.55-1.765-0.256-0.882-0.473-1.982 0.077-2.801 0.55-0.793 1.624-0.448 2.059 0.269 0.448 0.755 0.358 1.663 0.217 2.494-0.026 0.077-0.038 0.166-0.051 0.256-0.051 0.396 0.55 0.576 0.627 0.166 0.013-0.090 0.038-0.179 0.051-0.269 0.128-0.601 0.448-1.215 0.972-1.522 0.307-0.179 0.601-0.115 0.729 0.23 0.128 0.371-0.077 0.78-0.243 1.113-0.384 0.755-0.819 1.496-1.305 2.2 0.205 0.064 0.409 0.153 0.588 0.269 0.166-0.23 0.32-0.473 0.473-0.716 0.269-0.448 0.537-0.908 0.78-1.381z"></path>
<path fill="#bb92c0" d="M39.007 19.057c-0.499 0.077-0.972 0.281-1.394 0.576-0.051-0.409-0.179-0.793-0.384-1.138-0.141-0.256-0.345-0.576-0.627-0.665-0.294-0.102-0.524 0.102-0.716 0.307-0.46 0.499-0.793 1.138-0.908 1.803-0.013 0.026-0.013 0.064-0.013 0.090 0.269 0.192 0.473 0.499 0.537 0.831 0.013-0.026 0.026-0.038 0.038-0.064 0.026-0.588 0.115-1.164 0.422-1.675 0.090-0.166 0.281-0.524 0.46-0.614 0.013 0 0.013-0.013 0.026-0.013 0.038 0.038 0.064 0.077 0.102 0.115 0.064 0.102 0.128 0.192 0.179 0.294 0.217 0.422 0.281 0.882 0.243 1.343 0.205 0.051 0.384 0.153 0.537 0.294 0 0 0.013-0.013 0.013-0.013 0.396-0.371 0.87-0.652 1.394-0.793 0.217-0.064 0.627-0.166 0.729 0.115 0.064 0.153-0.013 0.358-0.115 0.537 0.192 0.051 0.358 0.141 0.499 0.281 0.051-0.128 0.115-0.243 0.205-0.345 0.038-0.102 0.051-0.205 0.064-0.32 0.051-0.755-0.639-1.049-1.292-0.946z"></path>
<path fill="#ffefac" d="M18.174 7.086c0.102-0.102 0.179-0.23 0.23-0.384 0.115-0.46-0.153-0.934-0.627-1.061-0.46-0.115-0.934 0.153-1.061 0.614-0.115 0.473 0.153 0.946 0.627 1.062 0.077 0.026 0.153 0.026 0.23 0.026 0.23 0 0.448-0.090 0.601-0.256z"></path>
<path fill="#ffefac" d="M31.756 6.587c0.371 0.013 0.716-0.243 0.819-0.614 0.115-0.448-0.153-0.908-0.601-1.023s-0.908 0.141-1.023 0.588c-0.077 0.294 0.013 0.601 0.217 0.806 0.102 0.102 0.23 0.179 0.384 0.23 0.064 0.013 0.141 0.013 0.205 0.013z"></path>
<path fill="#ffefac" d="M41.476 13.097c0.396-0.013 0.755-0.281 0.87-0.678 0.128-0.486-0.166-0.998-0.652-1.125s-0.985 0.166-1.113 0.652c-0.102 0.345 0.026 0.691 0.269 0.921 0.102 0.090 0.23 0.153 0.371 0.192 0.090 0.026 0.166 0.038 0.256 0.038z"></path>
<path fill="#ffb1e0" d="M41.68 21.947c0.499-0.32 0.601-1.087 0.281-1.573 0 0 0 0 0-0.013-0.064-0.077-0.128-0.153-0.205-0.205-0.102-0.077-0.205-0.141-0.333-0.166-0.409-0.115-0.895 0.026-1.189 0.333-0.090 0.102-0.153 0.217-0.205 0.345-0.141-0.141-0.307-0.23-0.499-0.281-0.601-0.166-1.368 0.141-1.599 0.742-0.013 0.026-0.026 0.038-0.038 0.064 0-0.013-0.013-0.038-0.013-0.064-0.077-0.23-0.205-0.435-0.371-0.588-0.153-0.141-0.333-0.243-0.537-0.294-0.051-0.013-0.102-0.026-0.153-0.038-0.499-0.064-1.010 0.179-1.279 0.588-0.013 0.026-0.026 0.038-0.038 0.064-0.064-0.333-0.269-0.639-0.537-0.831-0.153-0.115-0.333-0.192-0.512-0.23-0.512-0.102-1.087 0.153-1.356 0.601-0.051-0.23-0.153-0.448-0.294-0.627-0.166-0.217-0.384-0.396-0.652-0.473-0.128-0.038-0.281-0.038-0.422-0.013-0.358 0.064-0.691 0.32-0.742 0.678-0.153-0.205-0.345-0.384-0.563-0.524-0.179-0.115-0.384-0.205-0.588-0.269-0.729-0.217-1.547-0.115-2.136 0.371-0.038-0.307-0.217-0.563-0.448-0.742s-0.512-0.281-0.793-0.281c-0.192-0.013-0.371 0.026-0.537 0.128-0.077-0.205-0.192-0.396-0.345-0.563-0.32-0.358-0.767-0.601-1.253-0.665-0.217-0.026-0.435-0.026-0.639 0.013-0.141 0.026-0.269 0.064-0.396 0.128 0.064-0.422-0.115-0.882-0.448-1.164-0.038-0.038-0.077-0.064-0.128-0.090-0.409-0.269-0.972-0.269-1.368 0.013 0.051-0.051-0.435-0.742-0.499-0.793-0.345-0.333-0.627-0.192-1.010-0.333-0.563-0.217-0.678-0.831-1.164-1.177-0.026-0.026-0.051-0.038-0.077-0.064-0.166-0.090-0.358-0.128-0.537-0.115-0.333 0-0.665 0.166-0.78 0.448-0.026 0.051-0.038 0.102-0.051 0.166-0.051-0.026-0.090-0.064-0.141-0.090-0.307-0.192-0.576-0.46-0.87-0.665-0.077-0.064-0.166-0.128-0.269-0.166-0.473-0.243-1.215-0.090-1.266 0.435-0.013 0.064 0 0.115 0.013 0.179 0.026 0.166 0.128 0.32 0.217 0.473 0.32 0.473 0.703 0.921 1.125 1.304-0.473-0.090-0.934 0.371-0.946 0.857 0 0.473 0.358 0.908 0.78 1.125 0.435 0.205 0.934 0.23 1.42 0.217-0.32 0.729-0.013 1.688 0.678 2.11 0.678 0.409 1.663 0.243 2.174-0.371-0.064 0.55 0.435 1.049 0.972 1.164 0.55 0.115 1.113-0.064 1.611-0.307-0.077 0.652 0.307 1.343 0.908 1.611 0.601 0.281 1.368 0.115 1.803-0.384 0.115 0.512 0.512 0.946 1.010 1.113s1.074 0.038 1.471-0.307c0.166 0.614 0.703 1.1 1.317 1.228 0.627 0.128 1.305-0.115 1.714-0.601 0.128 0.665 0.652 1.253 1.317 1.368 0.678 0.102 1.407-0.371 1.496-1.049 0.243 0.729 0.959 1.266 1.714 1.292 0.755 0.038 1.509-0.435 1.816-1.138 0.55 0.499 1.266 0.857 2.008 0.844 0.729 0 1.496-0.448 1.727-1.151 0.371 0.333 0.959 0.422 1.407 0.179s0.691-0.819 0.499-1.292c-0.077-0.179-0.217-0.333-0.384-0.435-0.269-0.153-0.601-0.192-0.87-0.051z"></path>
<path fill="#ffb1e0" d="M72.029 9.963c0.179 0.537 0.333 1.074 0.473 1.611 0.153-0.23 0.384-0.396 0.563-0.601 0.435-0.499 0.55-1.241 0.294-1.842-0.102-0.256-0.269-0.473-0.435-0.691-0.307-0.384-0.639-0.767-0.959-1.138-0.358-0.396-0.716-0.806-1.074-1.202 0.064 0.921-0.652 1.714-0.819 2.622-0.090 0.46-0.038 0.946 0.115 1.394 0.077 0.205 0.166 0.396 0.294 0.55s0.294 0.269 0.448 0.371c0.422 0.294 0.844 0.576 1.305 0.793-0.153-0.601-0.32-1.189-0.524-1.778-0.064-0.205 0.256-0.281 0.32-0.090z"></path>
<path fill="#bb92c0" d="M72.502 11.575c-0.141-0.537-0.294-1.074-0.473-1.611-0.064-0.192-0.384-0.115-0.32 0.090 0.205 0.588 0.371 1.177 0.524 1.778 0.026 0.077 0.051 0.166 0.064 0.256l0.32-0.090c-0.038-0.141-0.077-0.281-0.115-0.422z"></path>
<path fill="#ffefac" d="M74.433 12.956l-0.192-0.639c-0.115-0.409-0.55-0.639-0.959-0.524l-0.665 0.205-0.32 0.090-0.614 0.179c-0.409 0.128-0.639 0.55-0.524 0.959l0.793 2.686c0.972-0.831 1.765-1.867 2.481-2.954z"></path>
<path fill="#ffefac" d="M77.298 22.702c-0.908 0.678-1.842 1.292-2.814 1.867l0.448 1.496c0.972-0.563 1.906-1.202 2.788-1.906l-0.422-1.458z"></path>
<path fill="#ffefac" d="M77.823 24.492c-0.882 0.703-1.816 1.33-2.801 1.88l0.038 0.153c0.128 0.409 0.55 0.652 0.959 0.524l1.611-0.46c0.409-0.128 0.639-0.55 0.524-0.959l-0.333-1.138z"></path>
<path fill="#ffefac" d="M76.608 20.374l-0.678-2.302c-0.844 0.793-1.752 1.522-2.711 2.174l0.678 2.315c1.010-0.588 1.931-1.317 2.711-2.187z"></path>
<path fill="#ffefac" d="M75.341 16.064c-0.819 0.844-1.714 1.611-2.673 2.315l0.46 1.535c0.946-0.652 1.854-1.394 2.699-2.2l-0.486-1.65z"></path>
<path fill="#ffefac" d="M76.723 20.732c-0.793 0.844-1.714 1.573-2.724 2.149l0.396 1.368c0.972-0.576 1.906-1.202 2.801-1.88l-0.473-1.637z"></path>
<path fill="#ffefac" d="M75.239 15.706l-0.691-2.34c-0.716 1.074-1.522 2.085-2.494 2.89l0.512 1.791c0.959-0.703 1.854-1.484 2.673-2.34z"></path>
<path fill="#f3c8f3" d="M74.549 13.365l-0.115-0.409c-0.716 1.087-1.509 2.123-2.481 2.954l0.102 0.345c0.972-0.806 1.778-1.816 2.494-2.89z"></path>
<path fill="#f3c8f3" d="M75.239 15.706c-0.819 0.857-1.714 1.637-2.673 2.34l0.102 0.333c0.959-0.703 1.854-1.471 2.673-2.315l-0.102-0.358z"></path>
<path fill="#f3c8f3" d="M75.828 17.714c-0.844 0.806-1.752 1.547-2.699 2.2l0.090 0.333c0.959-0.652 1.867-1.381 2.711-2.174l-0.102-0.358z"></path>
<path fill="#f3c8f3" d="M76.723 20.732l-0.115-0.358c-0.78 0.87-1.701 1.599-2.711 2.187l0.102 0.32c1.010-0.576 1.931-1.305 2.724-2.149z"></path>
<path fill="#f3c8f3" d="M77.196 22.369c-0.895 0.678-1.829 1.305-2.801 1.88l0.090 0.32c0.972-0.576 1.906-1.189 2.814-1.867l-0.102-0.333z"></path>
<path fill="#f3c8f3" d="M77.72 24.16c-0.882 0.703-1.816 1.343-2.788 1.906l0.090 0.307c0.985-0.55 1.918-1.177 2.801-1.88l-0.102-0.333z"></path>
<path fill="#bb92c0" d="M248.367 16.614c0.102-0.013 0.205-0.026 0.307-0.051-0.192 0.422-0.371 0.831-0.55 1.266-0.985 2.417-1.509 5.435 0.358 7.597 0.371 0.422 0.806 0.793 1.279 1.1 0.090-0.090 0.192-0.179 0.294-0.269 0.819-0.678 1.918-1.061 2.98-0.946 0.524 0.064 1.036 0.256 1.368 0.678 0.294 0.396 0.371 0.946 0.090 1.368-0.499 0.755-1.663 0.652-2.417 0.46-0.793-0.217-1.573-0.537-2.264-0.972-0.192 0.217-0.371 0.448-0.499 0.703-0.665 1.202-0.576 2.647-0.23 3.926 0.051 0.179 0.102 0.358 0.153 0.524h-0.269c-0.294-0.895-0.473-1.829-0.396-2.814 0.077-0.921 0.422-1.791 1.023-2.468-1.125-0.755-2.021-1.816-2.404-3.172-0.665-2.379 0.205-4.758 1.177-6.932zM249.992 26.666c0.422 0.256 0.87 0.473 1.33 0.639 0.499 0.179 1.036 0.358 1.573 0.384 0.46 0.026 1.023-0.026 1.33-0.396 0.46-0.55 0.026-1.266-0.512-1.535-0.537-0.256-1.202-0.243-1.778-0.128-0.729 0.153-1.407 0.524-1.944 1.036z"></path>
<path fill="#ffb1e0" d="M249.365 4.451c-0.755-0.269-1.611-0.281-2.456-0.128-0.639 0.128-1.279 0.333-1.854 0.652-1.356 0.729-2.34 2.046-2.724 3.415-0.396 1.381-0.217 2.814 0.345 4.041 0.281 0.614 0.652 1.189 1.087 1.714 1.151 1.381 2.481 2.775 4.604 2.468 0.102-0.013 0.205-0.026 0.307-0.051 0.064-0.013 0.115-0.026 0.166-0.038 1.010-0.256 1.944-0.87 2.545-1.688 0.384-0.55 0.627-1.151 0.819-1.765 0.422-1.394 0.588-2.852 0.358-4.22s-0.87-2.66-1.906-3.594c-0.371-0.333-0.793-0.627-1.292-0.806z"></path>
<path fill="#deb4de" d="M212.084 16.166l-0.013 0.205c0.153-0.026 0.294-0.051 0.46-0.026 0.678 0.115 0.998 0.908 1.586 1.266 0.729 0.422 2.89-0.269 2.967 0.831 0.038 0.499-0.205 1.1-0.294 1.586-0.128 0.703-0.281 1.42-0.46 2.11-0.217 0.78-0.448 1.56-0.729 2.315-0.102 0.307-0.23 0.614-0.486 0.819-0.192 0.166-0.448 0.243-0.703 0.307-1.611 0.371-3.389 0.141-4.898-0.627-0.384-0.192-0.755-0.435-1.023-0.767-0.448-0.576-0.486-1.33-0.46-2.021 0.051-1.573 0.371-3.108 0.793-4.604 0.102-0.333 0.23-0.703 0.537-0.87-0.307-0.038-0.601-0.102-0.895-0.192-0.499 2.225-0.908 4.387-1.228 6.497-0.064 0.409-0.141 0.921-0.013 1.368 0.128 0.422 0.448 0.806 0.908 1.1 0.435 0.281 0.959 0.435 1.407 0.563 1.739 0.486 3.236 0.678 4.591 0.563 0.396-0.026 0.844-0.090 1.164-0.345 0.371-0.281 0.537-0.767 0.691-1.317 0.972-3.312 1.906-6.702 2.814-9.976 0.141-0.512 0.281-1.036 0.269-1.56-0.026-0.473-0.192-0.882-0.46-1.113-0.179-0.128-0.396-0.217-0.614-0.307v0c-0.435-0.166-0.87-0.333-1.317-0.499-0.371 0.537-0.729 1.074-1.113 1.586-0.921 1.241-2.11 2.443-3.479 3.108z"></path>
<path fill="#ffefac" d="M211.624 21.576c-0.205-0.038-0.409-0.064-0.614-0.090l0.345-4.847c-0.153 0.051-0.32 0.090-0.486 0.102-0.153 0-0.307-0.026-0.46-0.064-0.32-0.064-0.639-0.153-0.934-0.051-0.038 0.013-0.077 0.038-0.115 0.064-0.307 0.166-0.435 0.537-0.537 0.87-0.422 1.496-0.742 3.031-0.793 4.604-0.026 0.691 0.013 1.445 0.46 2.021 0.269 0.333 0.639 0.576 1.023 0.767 1.509 0.767 3.287 0.998 4.898 0.627 0.256-0.064 0.512-0.141 0.703-0.307 0.256-0.205 0.384-0.512 0.486-0.819 0.281-0.755 0.512-1.535 0.729-2.315 0.179-0.691 0.333-1.407 0.46-2.11 0.090-0.486 0.333-1.087 0.294-1.586-0.077-1.1-2.238-0.409-2.967-0.831-0.588-0.358-0.908-1.151-1.586-1.266-0.166-0.026-0.307 0-0.46 0.026l-0.371 5.192-0.077 0.013z"></path>
<path fill="#ffb1e0" d="M211.355 16.639l-0.345 4.847c0.205 0.026 0.409 0.051 0.614 0.090l0.077-0.013 0.371-5.192 0.013-0.205 0.422-5.947c-0.026 0-0.051-0.013-0.090-0.013-0.115-0.026-0.243-0.051-0.384-0.090-0.064-0.013-0.128-0.026-0.205-0.038l-0.46 6.382-0.013 0.179z"></path>
<path fill="#ffb1e0" d="M212.494 9.848c0.013 0 0.026 0 0.038 0l0.422-5.909c-0.217-0.013-0.448-0.026-0.678-0.038l-0.422 5.794c0.090 0.026 0.179 0.038 0.269 0.064 0.128 0.038 0.256 0.064 0.371 0.090z"></path>
<path fill="#bb92c0" d="M212.532 9.848c1.496 0.294 2.942 0.78 4.361 1.317 0.409 0.153 0.819 0.307 1.228 0.46v0c0.23 0.090 0.499 0.192 0.716 0.371 0.486 0.409 0.588 1.036 0.588 1.381 0.026 0.576-0.128 1.125-0.269 1.663-0.908 3.287-1.842 6.676-2.814 9.988-0.141 0.473-0.333 1.125-0.819 1.509-0.396 0.307-0.921 0.384-1.368 0.422-0.767 0.064-1.573 0.038-2.443-0.090-0.716-0.102-1.471-0.269-2.276-0.486-0.473-0.141-1.023-0.307-1.509-0.614-0.524-0.333-0.908-0.793-1.061-1.292-0.153-0.524-0.064-1.087 0-1.535 0.333-2.136 0.742-4.323 1.253-6.574 0.345-1.56 0.742-3.159 1.189-4.822 0.205-0.78 0.524-1.624 1.304-1.893 0.371-0.128 0.819-0.051 1.241 0.038 0.090 0.026 0.179 0.038 0.269 0.064 0.128 0.038 0.256 0.064 0.371 0.090 0.013 0 0.026 0 0.038 0zM216.676 11.473v0c-1.356-0.512-2.75-0.972-4.169-1.253-0.026 0-0.051-0.013-0.090-0.013-0.115-0.026-0.243-0.051-0.384-0.090-0.064-0.013-0.128-0.026-0.205-0.038-0.141-0.038-0.294-0.077-0.435-0.090-0.243-0.038-0.473-0.038-0.652 0.026-0.627 0.205-0.895 0.946-1.074 1.637-0.448 1.663-0.844 3.274-1.202 4.847-0.499 2.225-0.908 4.387-1.228 6.497-0.064 0.409-0.141 0.921-0.013 1.368 0.128 0.422 0.448 0.806 0.908 1.1 0.435 0.281 0.959 0.435 1.407 0.563 1.739 0.486 3.236 0.678 4.591 0.563 0.396-0.026 0.844-0.090 1.164-0.345 0.371-0.281 0.537-0.767 0.691-1.317 0.972-3.312 1.906-6.702 2.814-9.976 0.141-0.512 0.281-1.036 0.269-1.56-0.026-0.473-0.192-0.882-0.46-1.113-0.179-0.128-0.396-0.217-0.614-0.307v0c-0.435-0.166-0.87-0.333-1.317-0.499z"></path>
<path fill="#fff" d="M54.482 7.853c-1.202-0.627-2.456-1.151-3.734-1.573-0.499-0.153-0.703 0.614-0.217 0.767 1.228 0.409 2.404 0.908 3.555 1.496 0.192 0.102 0.435 0.051 0.537-0.141 0.115-0.179 0.051-0.448-0.141-0.55z"></path>
<path fill="#fff" d="M190.419 10.232c-0.153-0.141-0.409-0.166-0.563 0-0.141 0.141-0.166 0.409 0 0.563 0.371 0.32 0.703 0.678 1.010 1.062 0.013 0.026 0.038 0.038 0.051 0.064 0 0.013 0 0.013 0.013 0.013 0 0 0 0.013 0.013 0.013 0.038 0.051 0.064 0.102 0.102 0.153 0.077 0.090 0.141 0.192 0.205 0.294 0.141 0.205 0.269 0.422 0.384 0.639 0.102 0.179 0.371 0.256 0.55 0.141 0.192-0.115 0.256-0.345 0.141-0.55-0.486-0.895-1.138-1.714-1.906-2.392z"></path>
<path fill="#fff" d="M8.633 23.968c-0.128-0.179-0.345-0.256-0.55-0.141-0.179 0.102-0.281 0.371-0.141 0.55 0.588 0.793 1.113 1.701 1.484 2.596 0.077 0.205 0.269 0.345 0.486 0.281 0.192-0.051 0.371-0.294 0.281-0.486-0.409-0.998-0.921-1.931-1.56-2.801z"></path>
<path fill="#ffefac" d="M97.659 28.227c-0.793-1.177-1.624-2.737-0.627-4.067 0.128-0.179 0.294-0.333 0.473-0.46 0.192-1.164 1.164-2.149 2.34-2.353 0.499-0.077 0.716 0.691 0.205 0.78-0.729 0.128-1.368 0.614-1.65 1.292 0.026 0 0.051 0 0.077 0 0.588 0.038 1.074 0.384 1.407 0.844s0.55 1.074 0.512 1.637c-0.038 0.703-0.614 1.1-1.279 0.857-0.806-0.307-1.356-1.087-1.56-1.931-0.064 0.128-0.128 0.269-0.153 0.396-0.23 0.934 0.46 1.867 0.946 2.596 0.294 0.435-0.396 0.831-0.691 0.409zM98.26 24.236v0c0.038 0.691 0.422 1.407 1.036 1.727 0.179 0.090 0.281 0.115 0.307-0.102 0.013-0.192-0.038-0.384-0.090-0.563-0.102-0.345-0.307-0.703-0.614-0.908-0.217-0.153-0.435-0.192-0.639-0.153z"></path>
<path fill="#ffefac" d="M78.283 5.884c-0.192-0.090-0.422-0.064-0.55 0.141-0.090 0.166-0.051 0.46 0.153 0.55 0.269 0.115 0.537 0.256 0.793 0.409 0.064 0.038 0.115 0.090 0.179 0.128 0.026 0.026 0.064 0.038 0.090 0.064 0 0 0.038 0.026 0.051 0.038 0.115 0.090 0.23 0.192 0.333 0.294 0.46 0.409 0.755 0.818 1.049 1.368 0.090 0.205 0.358 0.256 0.537 0.153 0.205-0.115 0.243-0.358 0.153-0.55-0.588-1.151-1.599-2.097-2.788-2.596z"></path>
<path fill="#ffefac" d="M135.259 10.577c0.192 0.051 0.46-0.064 0.499-0.281 0.115-0.934 0.205-1.867 0.256-2.788 0.013-0.499 0.038-0.985 0.038-1.471 0-0.512-0.793-0.512-0.806 0 0 0.448-0.013 0.882-0.026 1.33-0.038 0.908-0.115 1.816-0.243 2.711-0.026 0.217 0.051 0.435 0.281 0.499z"></path>
<path fill="#ffefac" d="M310.306 25.669c-0.205-0.064-0.448 0.077-0.499 0.281-0.051 0.217 0.064 0.422 0.281 0.486 0.102 0.038 0.205 0.064 0.307 0.102 0.051 0.026 0.115 0.051 0.166 0.064 0.026 0.013 0.051 0.026 0.077 0.038 0.013 0 0.077 0.026 0.051 0.013 0.038 0.026 0.179 0.090 0.256 0.128 0.102 0.051 0.205 0.102 0.307 0.153 0.192 0.102 0.371 0.217 0.537 0.345 0.051 0.026 0.090 0.064 0.141 0.090 0 0 0.038 0.038 0.051 0.038 0.013 0.013 0.038 0.038 0.038 0.038 0.090 0.064 0.179 0.141 0.256 0.217 0.166 0.141 0.422 0.166 0.576 0 0.141-0.153 0.166-0.422 0-0.563-0.742-0.652-1.611-1.138-2.545-1.432z"></path>
<path fill="#ffefac" d="M264.316 22.868c-0.064-0.153-0.051-0.32 0-0.46 0.141-0.358 0.486-0.652 0.793-0.87 0.576-0.396 1.266-0.639 1.982-0.729-0.090-0.038-0.179-0.064-0.269-0.102-0.396-0.153-0.78-0.333-1.164-0.524-0.32-0.166-0.678-0.32-0.921-0.576-0.256-0.269-0.269-0.639-0.051-0.934 0.205-0.281 0.537-0.448 0.87-0.512 0.793-0.141 1.548 0.281 2.174 0.703 0.064 0.038 0.128 0.090 0.192 0.128-0.128-0.179-0.256-0.358-0.371-0.537-0.358-0.537-0.921-1.215-0.818-1.918 0.102-0.716 0.895-0.985 1.522-0.78 0.793 0.243 1.177 1.151 1.458 1.854 0.166 0.396 0.294 0.806 0.409 1.228 0.217-0.384 0.448-0.742 0.716-1.074 0.512-0.601 1.177-1.164 1.944-1.368 0.358-0.102 0.767-0.077 1.049 0.179 0.269 0.256 0.358 0.639 0.294 0.998-0.141 0.819-0.767 1.535-1.394 2.034-0.115 0.102-0.243 0.192-0.371 0.281 0.077-0.013 0.166-0.026 0.243-0.038 0.345-0.051 0.703-0.077 1.049-0.077 0.358-0.013 0.716 0 1.062 0.090 0.333 0.077 0.639 0.269 0.793 0.588 0.141 0.307 0.077 0.652-0.153 0.908-0.256 0.256-0.601 0.333-0.946 0.345-0.396 0.013-0.793-0.013-1.177-0.038-0.524-0.038-1.062-0.102-1.586-0.192 0.448 0.333 0.87 0.691 1.202 1.125 0.396 0.486 0.703 1.1 0.742 1.739 0.026 0.294-0.077 0.665-0.422 0.716-0.32 0.064-0.678-0.115-0.934-0.269-0.588-0.345-1.087-0.895-1.484-1.445-0.243-0.345-0.46-0.716-0.639-1.1-0.115 0.678-0.269 1.356-0.512 1.995-0.141 0.396-0.307 0.767-0.512 1.125-0.179 0.333-0.396 0.678-0.665 0.946-0.217 0.23-0.537 0.384-0.857 0.269-0.345-0.115-0.512-0.473-0.537-0.819-0.038-0.384 0.051-0.793 0.166-1.164 0.141-0.435 0.32-0.844 0.524-1.241 0.217-0.409 0.46-0.806 0.729-1.189-0.448 0.281-0.921 0.524-1.42 0.716-0.716 0.256-1.509 0.384-2.276 0.243-0.166-0.038-0.345-0.090-0.435-0.256zM269.201 21.052v0c0.153 0.217 0.358 0.294 0.588 0.256 0.333-0.026 0.614-0.358 0.537-0.729-0.051-0.256-0.281-0.512-0.55-0.55-0.243-0.038-0.499 0.102-0.614 0.307-0.128 0.23-0.102 0.512 0.038 0.716zM267.82 16.384v0c-0.013-0.013-0.026-0.026-0.051-0.026 0.013 0.013 0.026 0.026 0.038 0.051 0-0.013 0.013-0.026 0.013-0.026zM265.249 18.903v0c-0.026-0.013-0.064-0.026-0.090-0.038-0.038 0-0.064-0.026-0.077-0.051-0.013 0.013-0.013 0.013-0.026 0.026 0.064 0.026 0.128 0.051 0.192 0.077 0-0.013 0-0.013 0-0.013zM266.017 21.896v0c0.038-0.013 0.077-0.026 0.115-0.026-0.013-0.013-0.013-0.013-0.026-0.013-0.026 0.013-0.051 0.026-0.090 0.038zM265.812 22.766v0c0.192-0.026 0.396-0.064 0.588-0.115-0.192 0.038-0.396 0.077-0.588 0.115z"></path>
<path fill="#bb92c0" d="M269.789 21.308c0.333-0.026 0.614-0.358 0.537-0.729-0.051-0.256-0.281-0.512-0.55-0.55-0.243-0.038-0.499 0.102-0.614 0.307-0.128 0.23-0.102 0.512 0.038 0.716 0.153 0.217 0.358 0.294 0.588 0.256z"></path>
<path fill="#bb92c0" d="M235.872 21.397c0.639-0.524 1.241-1.1 1.816-1.701 0.153-0.179-0.102-0.448-0.269-0.269-0.627 0.665-1.279 1.279-1.982 1.842-1.688-0.333-3.453-0.652-5.129-0.128-0.128 0.038-0.141 0.205-0.038 0.269 1.138 0.703 2.519 1.074 3.824 0.844-0.716 0.486-1.484 0.921-2.264 1.305-0.691-0.576-1.586-0.767-2.456-0.921-0.959-0.166-1.944-0.256-2.929-0.256-0.141 0-0.192 0.192-0.064 0.269 1.292 0.703 2.737 1.445 4.233 1.42-0.038 0.026-0.077 0.038-0.128 0.051-0.473 0.179-0.959 0.32-1.445 0.422-1.535-0.678-3.223-0.908-4.873-0.678-0.486 0.064-0.959 0.166-1.42 0.307-0.115 0.038-0.141 0.205-0.026 0.269 1.611 0.895 3.543 1.177 5.359 0.806 0.448-0.090 0.895-0.23 1.317-0.409 0.294-0.064 0.588-0.153 0.882-0.256-0.882 0.665-1.663 1.471-2.302 2.379-0.077 0.102 0.051 0.243 0.153 0.205 1.727-0.537 3.197-1.765 4.041-3.364 0.026-0.013 0.051-0.026 0.077-0.038 0.665-0.333 1.292-0.703 1.906-1.113-0.294 0.32-0.563 0.639-0.831 0.985-0.588 0.755-0.972 1.65-1.407 2.494-0.064 0.128 0.064 0.256 0.192 0.192 1.791-0.959 3.108-2.737 3.517-4.732 0.077-0.064 0.153-0.128 0.243-0.192z"></path>
<path fill="#ffefac" d="M235.859 8.633c-1.279 0.639-2.929 1.241-4.118 0.077-0.153-0.153-0.281-0.333-0.384-0.537-1.138-0.345-1.97-1.445-2.008-2.635-0.013-0.512 0.78-0.627 0.793-0.115 0.026 0.742 0.422 1.458 1.061 1.816 0-0.026 0-0.051 0.013-0.077 0.102-0.576 0.524-0.998 1.023-1.266s1.138-0.396 1.688-0.281c0.691 0.128 1.010 0.755 0.665 1.381-0.409 0.755-1.253 1.189-2.11 1.279 0.115 0.090 0.23 0.153 0.371 0.205 0.895 0.358 1.906-0.192 2.699-0.588 0.46-0.23 0.767 0.512 0.307 0.742zM231.997 7.495v0c0.678 0.051 1.445-0.23 1.842-0.793 0.115-0.166 0.153-0.256-0.064-0.307-0.179-0.038-0.384-0.026-0.563 0.013-0.358 0.051-0.729 0.205-0.985 0.473-0.179 0.192-0.256 0.409-0.23 0.614z"></path>
<path fill="#ce98d3" d="M311.457 8.685c0.499 0.716 0.946 1.471 1.33 2.251-1.023-0.844-2.404-1.202-3.747-1.151-0.128 0-0.179 0.153-0.102 0.243 1.202 1.292 2.903 1.88 4.527 2.417 0.333 0.831 0.614 1.701 0.818 2.571 0.064 0.243 0.422 0.141 0.371-0.090-0.205-0.806-0.448-1.599-0.742-2.379-0.038-0.102-0.077-0.192-0.115-0.294 0.627-1.931 0.358-4.118-0.742-5.845-0.077-0.115-0.256-0.064-0.256 0.077-0.038 0.946-0.141 1.918 0 2.865 0.064 0.422 0.141 0.844 0.243 1.266-0.333-0.652-0.703-1.292-1.113-1.906-0.026-0.026-0.038-0.038-0.051-0.064 0.051-1.816-0.627-3.607-1.854-4.924-0.090-0.090-0.256-0.026-0.243 0.090 0.115 1.113 0.396 2.2 0.831 3.21-0.205-0.23-0.409-0.448-0.639-0.652-0.281-0.371-0.601-0.703-0.946-1.010-0.576-0.499-1.228-0.908-1.918-1.228-0.985-0.448-2.059-0.691-3.146-0.703-0.128 0-0.179 0.153-0.102 0.243 0.333 0.358 0.691 0.678 1.074 0.972 0.563 0.422 1.177 0.78 1.816 1.062 0.87 0.396 1.803 0.652 2.762 0.742 0.384 0.333 0.729 0.703 1.062 1.087 0.026 0.026 0.051 0.064 0.077 0.090-1.202-0.703-2.699-0.793-4.093-0.831-0.102 0-0.192 0-0.294 0-0.141 0-0.192 0.192-0.077 0.269 0.102 0.051 0.205 0.102 0.307 0.153 0.767 0.409 1.56 0.767 2.379 1.061 0.818 0.281 1.701 0.563 2.583 0.409z"></path>
</svg>
