<!-- Generated by IcoMoon.io -->
<svg version="1.1" xmlns="http://www.w3.org/2000/svg" width="46" height="32" viewBox="0 0 46 32">
<title>female-dafault</title>
<path fill="#7c91ac" opacity="0.301961" d="M40.181 18.9c0 5.232-2.32 9.923-5.988 13.1h1.423l0.082-0.086 0.090 0.086h2.601l0.201-0.211 0.031 0.211h2.005c2.706-3.664 4.306-8.195 4.306-13.1 0-8.016-4.272-15.033-10.662-18.9h-5.491l0.322 0.094c0.434 0.169 0.697 0.405 0.79 0.709 0.047 0.126 0.049 0.263 0.005 0.412-0.147 0.503-0.57 0.651-1.27 0.446l-2.271-0.663 0.291-0.998h-2.127l-0.702 0.772-0.969-0.039 0.705-0.733h-1.987l0.115 0.688-0.825 0.139-0.139-0.827h-1.305c0.059 0.703-0.311 1.122-1.112 1.257l-0.258 0.043 0.059-0.712 0.083-0.014c0.069-0.012 0.157-0.067 0.266-0.168 0.104-0.090 0.143-0.225 0.119-0.406h-2.417c-0.18 0.284-0.325 0.499-0.435 0.645 0.082 0.021 0.133 0.033 0.152 0.037l0.091 0.025 0.092 0.026c0.068 0.020 0.149 0.045 0.244 0.076l0.131 0.040 0.142 0.045 1.357 0.436-1.177 0.447-1.012-0.374c-0.304-0.114-0.513-0.196-0.626-0.245l0.076 0.178c0.015 0.032 0.028 0.064 0.041 0.096l0.305 0.805-0.783 0.297-0.954-2.517 0.046-0.017h-2.403c-6.391 3.868-10.662 10.885-10.662 18.9 0 4.905 1.6 9.435 4.306 13.1h1.309c-0.030-0.027-0.059-0.058-0.085-0.095-0.070-0.099-0.096-0.218-0.076-0.357l0.246-2.208-1.29 0.922-0.441-0.617 1.821-1.302c0.138-0.098 0.269-0.136 0.395-0.113 0.113 0.024 0.207 0.088 0.281 0.191 0.072 0.101 0.097 0.22 0.077 0.357l-0.246 2.208 1.289-0.922 0.444 0.62-1.818 1.299c-0.008 0.006-0.016 0.011-0.023 0.016h1.409l0.508-0.532c0.117-0.122 0.24-0.184 0.367-0.185 0.116 0.003 0.22 0.048 0.311 0.135 0.089 0.086 0.136 0.198 0.141 0.336l0.019 0.245h1.797c-3.667-3.176-5.988-7.867-5.988-13.1 0-1.8 0.274-3.534 0.783-5.166l10.272 7.159-3.852 11.107h1.466l8.655-6.552 8.655 6.552h1.466l-3.852-11.107 10.272-7.159c0.509 1.631 0.783 3.366 0.783 5.166zM28.31 16.738c-0.516-0.548-1.249-0.89-2.060-0.89-1.012 0-1.9 0.531-2.401 1.33-0.501-0.799-1.389-1.33-2.401-1.33-1.014 0-1.904 0.534-2.404 1.336v-1.154h-1.321c0.977-1.836 2.909-3.086 5.134-3.086 2.501 0 4.632 1.58 5.453 3.795zM17.299 17.049h0.473v4.472h1.271v-1.347c0.5 0.802 1.389 1.336 2.404 1.336 1.012 0 1.9-0.532 2.401-1.33 0.501 0.798 1.389 1.33 2.401 1.33 0.858 0 1.627-0.382 2.146-0.985-0.748 2.345-2.945 4.044-5.538 4.044-3.21 0-5.813-2.602-5.813-5.813 0-0.594 0.089-1.167 0.255-1.707zM20.888 20.383c-0.716-0.235-1.233-0.909-1.233-1.704 0-0.908 0.675-1.658 1.55-1.777 0.062 0.001 0.123 0.004 0.182 0.010 0.076 0.008 0.143 0.023 0.192 0.050 0.041 0.023 0.073 0.057 0.099 0.097 0.033 0.051 0.053 0.111 0.063 0.171 0.009 0.055 0.010 0.108 0.002 0.159-0.007 0.053-0.023 0.104-0.047 0.153-0.025 0.053-0.058 0.106-0.099 0.159-0.042 0.055-0.092 0.113-0.15 0.175-0.055 0.059-0.114 0.117-0.176 0.178-0.074 0.073-0.152 0.151-0.239 0.245-0.079 0.084-0.157 0.172-0.223 0.258-0.071 0.090-0.134 0.182-0.183 0.272-0.050 0.093-0.084 0.182-0.105 0.268s-0.030 0.17-0.032 0.254 0.004 0.166 0.016 0.248c0.013 0.081 0.033 0.165 0.061 0.253 0.028 0.086 0.065 0.177 0.115 0.266 0.052 0.091 0.116 0.179 0.199 0.257l0.009 0.008zM21.936 16.953c0.753 0.213 1.305 0.905 1.305 1.726 0 0.872-0.622 1.598-1.446 1.76-0.080 0.010-0.164 0.012-0.265-0.014-0.076-0.019-0.163-0.055-0.249-0.101-0.077-0.042-0.151-0.094-0.212-0.151-0.063-0.058-0.11-0.124-0.148-0.191-0.039-0.069-0.068-0.143-0.092-0.215-0.023-0.071-0.040-0.14-0.050-0.211s-0.015-0.136-0.014-0.2c0.001-0.064 0.008-0.128 0.024-0.193s0.042-0.132 0.080-0.202c0.040-0.073 0.095-0.153 0.158-0.233 0.067-0.085 0.138-0.166 0.207-0.241 0.074-0.078 0.156-0.159 0.233-0.237 0.065-0.065 0.128-0.127 0.182-0.184 0.062-0.067 0.119-0.132 0.169-0.199 0.052-0.068 0.094-0.137 0.128-0.209 0.035-0.075 0.060-0.151 0.071-0.23s0.012-0.162-0.003-0.247c-0.013-0.077-0.038-0.157-0.078-0.23zM25.689 20.383c-0.716-0.235-1.233-0.909-1.233-1.704 0-0.908 0.675-1.658 1.55-1.777 0.062 0.001 0.124 0.004 0.181 0.010 0.076 0.008 0.143 0.023 0.193 0.050 0.041 0.023 0.074 0.057 0.099 0.097 0.033 0.051 0.053 0.111 0.063 0.171 0.009 0.055 0.010 0.108 0.002 0.159-0.008 0.053-0.024 0.104-0.047 0.153-0.025 0.053-0.058 0.106-0.098 0.159-0.042 0.055-0.092 0.113-0.15 0.175-0.055 0.059-0.114 0.117-0.176 0.178-0.074 0.073-0.152 0.151-0.239 0.245-0.079 0.084-0.157 0.172-0.224 0.258-0.071 0.090-0.134 0.182-0.183 0.272-0.050 0.093-0.084 0.182-0.105 0.268s-0.031 0.17-0.032 0.254 0.004 0.166 0.016 0.248c0.012 0.081 0.033 0.165 0.061 0.253 0.028 0.086 0.064 0.177 0.115 0.266 0.051 0.091 0.116 0.179 0.199 0.257l0.008 0.008zM26.738 16.953c0.753 0.213 1.305 0.905 1.305 1.726 0 0.872-0.622 1.598-1.446 1.76-0.080 0.010-0.165 0.012-0.265-0.014-0.076-0.019-0.163-0.055-0.249-0.101-0.077-0.042-0.151-0.094-0.212-0.151-0.062-0.058-0.11-0.124-0.148-0.191-0.039-0.069-0.069-0.143-0.092-0.215-0.023-0.071-0.040-0.14-0.050-0.211s-0.015-0.136-0.014-0.2c0.001-0.064 0.008-0.128 0.024-0.193s0.041-0.132 0.080-0.202c0.040-0.073 0.095-0.153 0.158-0.233 0.067-0.085 0.138-0.166 0.207-0.241 0.073-0.078 0.156-0.159 0.233-0.237 0.066-0.065 0.128-0.127 0.183-0.184 0.062-0.067 0.119-0.132 0.169-0.199 0.051-0.068 0.094-0.137 0.128-0.209 0.035-0.075 0.059-0.151 0.071-0.23s0.011-0.162-0.003-0.247c-0.013-0.077-0.039-0.157-0.078-0.23zM6.467 13.278c2.309-6.733 8.649-11.592 16.139-11.698l-3.623 11.944-12.516-0.246zM23.109 1.579c7.49 0.107 13.83 4.966 16.139 11.698l-12.516 0.246-3.623-11.944zM2.824 12.076l0.549 0.692-0.232 0.932 1.933 0.481-0.201 0.809-1.933-0.481-0.305 1.226-0.549-0.692 0.738-2.967zM6.298 9.382l0.402 0.777-1.093 2.349-2.441-1.135 1.315-2.827 0.407 0.784-0.735 1.579 0.292 0.136 0.899-1.934 0.352 0.692-0.698 1.499 0.332 0.155 0.965-2.076zM9.059 6.815l-0.492 0.667-0.836-0.616-0.95 1.289 0.836 0.616-0.497 0.674-2.167-1.598 0.497-0.674 0.767 0.566 0.951-1.288-0.768-0.566 0.492-0.667 2.167 1.598zM10.065 5.89l-0.583 0.595-1.921-1.886 0.583-0.595 1.921 1.885zM12.712 2.864l-0.008 0.875-1.076 0.818c-0.374 0.284-0.76 0.415-1.159 0.391-0.403-0.020-0.724-0.187-0.963-0.501s-0.309-0.661-0.212-1.043c0.095-0.376 0.33-0.705 0.704-0.989l1.502-1.142-0.002 0.881-1.076 0.818c-0.18 0.136-0.293 0.298-0.339 0.485-0.044 0.191-0.008 0.362 0.108 0.514s0.269 0.23 0.462 0.235c0.189 0.005 0.374-0.062 0.555-0.199l1.502-1.143zM14.689-0h0.666l-0.091 0.164c-0.065 0.117-0.127 0.233-0.186 0.35l-0.036 0.065-0.031 0.064c-0.033 0.064-0.051 0.099-0.055 0.106-0.029-0.106-0.080-0.255-0.151-0.446l-0.115-0.304zM27.354 0.568l0.104-0.355 1.472 0.43c0.165 0.048 0.23 0.13 0.197 0.246-0.036 0.121-0.136 0.157-0.3 0.109l-1.472-0.43zM33.743 1.885l-0.419 0.644c-0.445 0.683-1.034 0.786-1.766 0.309l-0.22-0.143 0.526-0.484 0.071 0.046c0.059 0.038 0.161 0.057 0.308 0.057 0.145 0.005 0.271-0.076 0.379-0.243l0.801-1.231 2.475 1.611-1.469 2.256-0.701-0.457 1.087-1.669-1.072-0.698zM34.84 5.066l-0.009-0.009 1.884-1.899 0.589 0.583-0.484 0.488 0.999 0.992c0.293 0.291 0.461 0.585 0.502 0.883 0.035 0.292-0.052 0.544-0.262 0.755-0.214 0.215-0.466 0.306-0.758 0.273-0.3-0.033-0.596-0.195-0.89-0.486l-1.591-1.578 0.020-0.003zM36.334 4.718l1.057 1.049c0.091 0.090 0.143 0.181 0.155 0.272 0.012 0.087-0.017 0.165-0.084 0.233-0.144 0.145-0.312 0.122-0.504-0.069l-1.057-1.048 0.434-0.437zM40.363 10.145c-0.048 0.125-0.138 0.229-0.27 0.311-0.443 0.277-0.859 0.107-1.246-0.511l-1.256-2.005 1.388-0.87 1.264 2.019c0.082 0.132 0.175 0.165 0.277 0.102 0.098-0.061 0.105-0.157 0.023-0.289l-1.264-2.019 0.892 0.106 0.946 1.511c0.176 0.282 0.261 0.533 0.253 0.753-0.013 0.232-0.12 0.412-0.323 0.539-0.123 0.077-0.251 0.111-0.382 0.102-0.111-0.010-0.207-0.048-0.289-0.113 0.038 0.125 0.033 0.247-0.014 0.365zM38.936 8.086l0.814 1.299c0.091 0.145 0.086 0.25-0.017 0.314-0.107 0.067-0.206 0.027-0.297-0.118l-0.814-1.299 0.314-0.197zM39.892 12.057l-0.326-0.766 2.477-1.055 0.326 0.766-2.477 1.054zM42.197 15.424c-0.083 0.105-0.199 0.178-0.349 0.219-0.505 0.136-0.853-0.149-1.042-0.853l-0.614-2.285 1.581-0.425 0.618 2.3c0.040 0.151 0.119 0.21 0.235 0.179 0.112-0.030 0.147-0.12 0.107-0.27l-0.618-2.3 0.822 0.362 0.463 1.721c0.086 0.321 0.093 0.586 0.022 0.794-0.080 0.219-0.236 0.359-0.466 0.421-0.14 0.037-0.271 0.033-0.395-0.015-0.103-0.041-0.184-0.106-0.244-0.192-0.001 0.13-0.041 0.245-0.12 0.344zM41.435 13.037l0.398 1.481c0.044 0.165 0.008 0.264-0.108 0.295-0.122 0.033-0.205-0.034-0.249-0.199l-0.398-1.481 0.358-0.096zM5.4 24.548l-0.806-0.369-0.216-0.939-1.945 0.449-0.188-0.813 1.945-0.449-0.285-1.234 0.805 0.369 0.69 2.987zM4.963 28.562l-0.853-0.203-1.070-2.366 2.458-1.112 1.288 2.848-0.862-0.203-0.72-1.591-0.294 0.133 0.881 1.947-0.756-0.184-0.683-1.511-0.334 0.151 0.945 2.091zM37.459 29.982l2.163-0.050-0.819-2.035 0.533-0.827 1.116 2.772c0.089 0.234 0.076 0.44-0.039 0.618-0.118 0.184-0.299 0.278-0.543 0.284l-2.966 0.098 0.555-0.861zM42.265 26.885l-0.342 0.762-2.461-1.107 0.342-0.761 2.461 1.106zM40.331 24.446l2.019-0.778-1.458-1.638 0.222-0.959 1.987 2.233c0.163 0.19 0.22 0.388 0.172 0.595-0.049 0.212-0.188 0.362-0.415 0.45l-2.759 1.095 0.231-0.998zM3.159 17.721c0.651 0 1.179 0.528 1.179 1.179s-0.528 1.179-1.179 1.179c-0.651 0-1.179-0.528-1.179-1.179s0.528-1.179 1.179-1.179zM42.557 17.721c0.651 0 1.179 0.528 1.179 1.179s-0.528 1.179-1.179 1.179-1.179-0.528-1.179-1.179c0-0.652 0.528-1.179 1.179-1.179z"></path>
<path fill="#87493f" d="M27.242 13.429c0 2.367-2.103 4.287-4.696 4.287s-4.696-1.919-4.696-4.287c0-2.367 2.102-4.287 4.696-4.287s4.696 1.919 4.696 4.287z"></path>
<path fill="#e3bca1" d="M31.124 25.006v6.163c0 0.457-0.404 0.831-0.903 0.831h-15.076c-0.495 0-0.903-0.375-0.903-0.831v-6.163c0-0.359 0.251-0.669 0.599-0.784l0.010-0.004 0.029-0.010 5.15-1.789v-1.319c0.724 0.623 1.582 0.984 2.505 0.984 0.956 0 1.846-0.39 2.586-1.060v1.24l5.353 1.942c0.375 0.101 0.648 0.422 0.648 0.8z"></path>
<path fill="#e5bb9f" d="M18.319 17.865c-0.133 0.025-0.268-0.006-0.396-0.084-0.351-0.208-0.656-0.758-0.762-1.445-0.14-0.934 0.148-1.762 0.648-1.852 0.045-0.008 0.092-0.011 0.134-0.002l0.080 0.010c0.106 0.025 0.213 0.084 0.312 0.173 0.293 0.256 0.537 0.75 0.627 1.348 0.142 0.934-0.149 1.763-0.645 1.852z"></path>
<path fill="#e5bb9f" d="M28.177 16.335c-0.117 0.776-0.494 1.382-0.903 1.51-0.084 0.028-0.169 0.036-0.253 0.019-0.496-0.089-0.786-0.918-0.643-1.852 0.086-0.566 0.308-1.042 0.583-1.306 0.099-0.098 0.204-0.167 0.314-0.203 0.086-0.028 0.172-0.036 0.259-0.019l0.017 0.006c0.486 0.103 0.765 0.923 0.627 1.846z"></path>
<path fill="#e5bb9f" d="M25.225 20.108v0.917c-0.766 0.671-1.687 1.060-2.677 1.060-0.955 0-1.844-0.361-2.593-0.984v-0.993h5.269z"></path>
<path fill="#f1ccb0" d="M27.386 15.684v0.075c-0.004 0.22-0.013 0.439-0.031 0.659-0.031 0.348-0.071 0.684-0.141 1.009-0.31 1.491-1.030 2.765-1.989 3.598-0.766 0.671-1.687 1.060-2.677 1.060-0.955 0-1.844-0.361-2.593-0.984-0.539-0.447-1.005-1.030-1.37-1.712-0.327-0.606-0.573-1.287-0.721-2.023-0.101-0.516-0.158-1.057-0.158-1.607v-0.075c0-0.414 0.029-0.81 0.088-1.194 0.017-0.14 0.044-0.281 0.070-0.417 0.153-0.771 0.419-1.484 0.77-2.11h0.004c0.955-0.643 2.426-1.241 3.905-1.241 1.473 0 2.954 0.598 3.912 1.241 0.343 0.612 0.602 1.304 0.757 2.047 0.026 0.128 0.040 0.26 0.056 0.388l0.010 0.034 0.008 0.063c0.013 0.075 0.027 0.149 0.036 0.233l0.004 0.034c0.007 0.094 0.017 0.189 0.027 0.283 0.014 0.21 0.031 0.419 0.031 0.638z"></path>
<path fill="#9ccfce" d="M27.522 13.175c0 0.836-0.013 1.219-0.234 1.32-0.040 0.022-0.092 0.031-0.154 0.031-0.365 0-1.558-1.774-4.59-1.774-2.69 0-3.936 1.395-4.433 1.712-0.066 0.036-0.119 0.062-0.158 0.062-0.062 0-0.115-0.009-0.159-0.035-0.211-0.106-0.224-0.485-0.224-1.317 0-0.308 0.409-0.77 1.065-1.211h0.004c0.955-0.642 2.426-1.241 3.905-1.241 1.474 0 2.953 0.599 3.912 1.241 0.656 0.441 1.066 0.903 1.066 1.211z"></path>
<path fill="#fefefe" d="M27.139 14.525c0 0.712-0.041 1.194-0.639 1.194s-1.25-1.407-3.955-1.407c-2.705 0-3.358 1.407-3.955 1.407s-0.638-0.482-0.638-1.194c0.041 0 0.092-0.023 0.157-0.061 0.5-0.315 1.745-1.714 4.435-1.714s3.936 1.399 4.437 1.714c0.065 0.038 0.116 0.061 0.157 0.061z"></path>
<path fill="#c4d3d3" d="M17.155 15.473c0.017-0.124 0.043-0.237 0.077-0.34 0.009-0.033 0.020-0.063 0.034-0.094-0.050 0.129-0.088 0.275-0.111 0.434zM17.287 14.986c0.092-0.222 0.228-0.387 0.396-0.462-0.164 0.076-0.3 0.24-0.396 0.462zM17.754 14.497l0.014-0.005c0.007-0.002 0.013-0.003 0.020-0.005 0 0 0.001 0 0.001 0-0.012 0.003-0.024 0.006-0.035 0.009z"></path>
<path fill="#d2a285" d="M17.966 17.801l-0.042-0.022c-0.002-0.001-0.004-0.002-0.006-0.003-0.065-0.040-0.126-0.088-0.184-0.147l-0.004-0.003c-0.030-0.030-0.063-0.067-0.090-0.104-0.030-0.034-0.057-0.070-0.084-0.111-0.111-0.164-0.207-0.364-0.278-0.592-0.050-0.15-0.087-0.314-0.114-0.485-0.047-0.304-0.047-0.599-0.010-0.859 0-0.001 0-0.001 0-0.002 0.023-0.159 0.061-0.305 0.111-0.434 0.002-0.004 0.004-0.008 0.006-0.012 0.005-0.014 0.011-0.027 0.016-0.041 0.096-0.222 0.231-0.386 0.396-0.462 0.017-0.007 0.033-0.014 0.050-0.019l0.021-0.008c0.011-0.003 0.023-0.006 0.035-0.009 0.002 0.002 0.004 0.002 0.006 0.004 0 0 0 0 0.001 0-0.058 0.383-0.088 0.779-0.088 1.193v0.075c0 0.55 0.056 1.091 0.158 1.607 0.029 0.147 0.063 0.292 0.1 0.435z"></path>
<path fill="#deb393" d="M18.101 18.249c0-0 0-0.001 0-0.001-0.037-0.111-0.074-0.224-0.104-0.341-0.009-0.030-0.019-0.063-0.028-0.095-0.001-0.003-0.002-0.007-0.002-0.011l-0.002-0c-0.037-0.143-0.071-0.288-0.1-0.435-0.101-0.516-0.158-1.057-0.158-1.607v-0.075c0-0.414 0.029-0.809 0.088-1.193 0.043 0.025 0.094 0.035 0.154 0.035 0 0.71 0.046 1.193 0.638 1.193 0 0 0.001 0 0.001 0s0.002 0 0.002 0c0.597 0 1.25-1.407 3.955-1.407 1.198 0 1.993 0.276 2.559 0.583 0.448 0.245 0.753 0.509 1 0.67-0.208 0.212-0.518 0.281-0.855 0.281-0.41 0-0.861-0.101-1.218-0.166-0.533-0.109-1.094-0.193-1.649-0.193-0.361 0-0.721 0.036-1.068 0.122-1.025 0.256-1.576 0.88-2.161 1.722-0.255 0.364-0.624 0.729-1.054 0.918z"></path>
<path fill="#89b4ae" d="M17.949 14.526c-0.060 0-0.111-0.010-0.154-0.035-0 0-0 0-0.001 0-0.002-0.001-0.004-0.002-0.006-0.004-0 0-0.001 0-0.001-0 0.001 0 0.002-0.001 0.004-0.001 0.043 0.026 0.096 0.036 0.158 0.036 0 0.001 0 0.002 0 0.004z"></path>
<path fill="#ede4de" d="M18.591 15.719c-0 0-0.002 0-0.002 0 0.092-0 0.184-0.036 0.289-0.097 0.559-0.308 1.378-1.312 3.667-1.312 1.198 0 1.994 0.277 2.56 0.585-0.566-0.308-1.362-0.583-2.559-0.583-2.705 0-3.358 1.407-3.955 1.407z"></path>
<path fill="#ebecec" d="M31.124 30.5v0.668c0 0.457-0.405 0.831-0.901 0.831h-15.076c-0.495 0-0.903-0.375-0.903-0.831v-0.668c1.098-0.499 1.016-5.449 0.99-6.414-0.004-0.105-0.006-0.162-0.006-0.162l1.992-0.715c0 0.063 0 0.124 0.002 0.185 0.084 5.231 3.748 7.346 5.315 7.473h0.002c0.051 0.004 0.1 0.006 0.145 0.006s0.094-0.002 0.145-0.006h0.002c1.571-0.13 5.248-2.252 5.315-7.512 0.002-0.048 0.002-0.097 0.002-0.147l1.992 0.715c0 0-0.002 0.055-0.005 0.155-0.027 0.945-0.113 5.92 0.989 6.421z"></path>
<path fill="#d9ac8e" d="M22.682 30.875c-0.045 0-0.092-0.002-0.143-0.006h-0.002c-0.195-0.016-0.422-0.062-0.671-0.142 0.405-0.447 0.613-1.075 0.718-1.65 0.033 0.006 0.067 0.008 0.101 0.008s0.068-0.001 0.101-0.008c0.105 0.576 0.312 1.2 0.717 1.647-0.191 0.063-0.371 0.106-0.531 0.129-0 0-0.001 0-0.002 0s-0.001 0-0.001 0c-0.009 0.002-0.019 0.003-0.028 0.004-0.038 0.005-0.076 0.009-0.112 0.012h-0.002c-0.051 0.004-0.098 0.006-0.143 0.006z"></path>
<path fill="#dfd8d4" d="M22.68 30.875c-0.046 0-0.093-0.002-0.145-0.006h-0.002c-0.195-0.015-0.42-0.063-0.669-0.141 0-0 0-0 0.001-0.001 0.249 0.080 0.476 0.126 0.671 0.142h0.002c0.051 0.004 0.099 0.006 0.143 0.006-0 0-0.001 0-0.002 0zM22.939 30.857c0.009-0.001 0.019-0.002 0.028-0.004-0.009 0.002-0.019 0.003-0.028 0.004zM22.969 30.853c0 0 0.001-0 0.002-0s-0.001 0-0.002 0z"></path>
<path fill="#c0d6e0" d="M14.371 24.579c0.1-0.154 0.253-0.276 0.435-0.344 0 0 0 0 0-0s0 0 0 0c0.004-0.001 0.007-0.002 0.011-0.004-0.187 0.067-0.344 0.191-0.447 0.348zM14.912 24.198l0.051-0.018 0.269-0.094c0 0 0 0 0 0l-0.321 0.111z"></path>
<path fill="#cda88f" d="M15.089 25.999c-0.285 0-0.568-0.015-0.846-0.046v-0.948c0-0.148 0.042-0.287 0.116-0.408 0-0 0-0.001 0-0.001s0.001-0 0.001-0.001c0.003-0.005 0.006-0.011 0.010-0.016 0.103-0.157 0.26-0.281 0.447-0.348 0.008-0.003 0.017-0.006 0.025-0.009l0.010-0.004 0.030-0.010 0.029-0.010 0.32-0.111c0.008 0.313 0.023 1.046 0.001 1.911-0.048 0-0.096 0.001-0.145 0.001z"></path>
<path fill="#c0d6e0" d="M17.221 23.396c0-0 0-0 0-0-0.002-0.061-0.002-0.122-0.002-0.185h0.001c0 0.063 0 0.124 0.002 0.185l0.241-0.084-0.241 0.084zM19.316 22.668v0zM22.537 22.084c-0.113 0-0.225-0.006-0.335-0.016 0.040 0.004 0.080 0.007 0.12 0.009 0.001 0 0.002 0 0.002 0s0.003 0 0.004 0c0.071 0.004 0.142 0.006 0.213 0.007-0.001 0-0.003 0-0.004 0zM25.122 21.767v-0.656c0 0 0.001-0 0.001-0v0.655c0 0-0 0-0.001 0.001z"></path>
<path fill="#cda88f" d="M17.515 25.68c-0.175-0.684-0.281-1.444-0.294-2.284l2.81-0.977v-1.257c0.269 0.215 0.555 0.396 0.856 0.54 0.002 0 0.003 0.001 0.004 0.002s0.002 0 0.002 0.001c0.266 0.127 0.544 0.224 0.83 0.288 0.157 0.035 0.316 0.060 0.478 0.075 0.111 0.011 0.222 0.016 0.335 0.016 0.002 0 0.003 0 0.004 0s0.004 0 0.006 0c0 0 0 0 0 0s0 0 0 0c0.036 0 0.073-0.001 0.109-0.002 0.019-0.001 0.039-0.002 0.059-0.002 0.050-0.002 0.099-0.006 0.148-0.010 0.826-0.070 1.597-0.412 2.259-0.96v0.656c-0.887 1.449-2.37 1.987-3.972 1.987-0.017 0-0.034 0-0.050 0-0.733 0.711-1.689 1.276-2.738 1.66-0.275 0.101-0.558 0.189-0.844 0.266-0 0-0.001 0-0.002 0z"></path>
<path fill="#d7b59b" d="M22.548 22.084c0 0-0 0-0 0 0.036 0 0.073-0.001 0.109-0.002-0.036 0.001-0.073 0.002-0.109 0.002zM22.328 22.078c-0.002 0-0.003 0-0.004 0 0.001 0 0.003 0 0.004 0zM22.321 22.077c-0.040-0.002-0.080-0.005-0.12-0.009-0.161-0.015-0.321-0.040-0.478-0.075 0.098 0.022 0.196 0.040 0.295 0.053s0.201 0.025 0.302 0.031zM22.864 22.071c0.827-0.071 1.598-0.413 2.259-0.961v0.001c0 0-0 0-0.001 0-0.662 0.548-1.432 0.89-2.259 0.96zM20.894 21.705c-0-0-0.001-0.001-0.002-0.001 0.001 0 0.002 0 0.002 0.001zM20.887 21.703c-0.3-0.144-0.587-0.325-0.856-0.54v-0c0.269 0.215 0.555 0.396 0.856 0.541z"></path>
<path fill="#d4d3d6" d="M15.234 25.998c0.022-0.865 0.007-1.597-0.001-1.911 0-0 0-0 0-0v0c0 0 0-0 0-0.001l0.001-0.001c-0.003-0.104-0.006-0.16-0.006-0.16l0.336-0.122 1.655-0.593c0 0.063 0 0.124 0.002 0.185 0 0 0 0 0 0 0.013 0.84 0.119 1.6 0.294 2.284-0.747 0.199-1.521 0.308-2.281 0.317-0 0-0 0-0 0z"></path>
<path fill="#87493f" d="M20.032 21.162v1.257l-0.065 0.022-1.977 0.688c-0.053-1.32 0.132-2.709 0.501-3.928 0.031 0.063 0.063 0.126 0.095 0.187 0.365 0.682 0.832 1.265 1.37 1.712l0.076 0.061z"></path>
<path fill="#653c35" d="M17.959 12.509c0.077-0.32 0.193-0.627 0.342-0.915-0.149 0.288-0.265 0.594-0.341 0.913-0 0.001-0.001 0.002-0.002 0.002zM18.817 10.824c0-0 0-0.001 0.001-0.001s-0 0.001-0.001 0.001zM18.82 10.82c0.016-0.019 0.033-0.039 0.050-0.059v0c-0.017 0.019-0.034 0.039-0.050 0.059z"></path>
<path fill="#ac8775" d="M15.146 32h-0.001c-0.49 0-0.897-0.369-0.903-0.82 0.006 0.452 0.412 0.82 0.903 0.82zM30.695 31.876c0.005-0.003 0.009-0.006 0.014-0.008 0.034-0.021 0.067-0.043 0.099-0.068l-0.001 0.001c-0.035 0.027-0.072 0.053-0.111 0.075zM14.243 31.169v-6.163c0-0.151 0.044-0.293 0.121-0.415-0.001 0.001-0.002 0.003-0.003 0.004 0 0-0 0.001-0.001 0.001s-0 0.001-0 0.001c-0.074 0.121-0.117 0.26-0.117 0.409v0.947c0 0 0.001 0 0.001 0v4.546c0 0-0.001 0-0.001 0.001v0.668z"></path>
<path fill="#ac8572" d="M17.967 17.805c-0.015-0.008-0.029-0.016-0.044-0.025-0.076-0.045-0.151-0.107-0.221-0.183 0.069 0.073 0.141 0.133 0.216 0.178 0.002 0.001 0.004 0.002 0.006 0.004l0.020 0.010 0.022 0.012c0 0.001 0 0.002 0.001 0.003z"></path>
<path fill="#b6927e" d="M18.492 19.206c-0.001-0.001-0.001-0.003-0.002-0.004 0 0 0 0.001-0 0.001-0.216-0.432-0.392-0.901-0.523-1.398-0-0.001-0.001-0.002-0.001-0.003l0.001 0.001c0.001 0.003 0.002 0.006 0.002 0.009 0.039 0.15 0.082 0.296 0.13 0.438 0-0 0.001-0.001 0.002-0.001 0.107 0.334 0.237 0.652 0.391 0.952v0.004c0 0-0 0.001-0 0.001z"></path>
<path fill="#6e9497" d="M17.785 14.486c-0.202-0.112-0.215-0.492-0.215-1.311 0-0.124 0.066-0.273 0.189-0.436-0.121 0.162-0.187 0.311-0.187 0.434 0 0.823 0.013 1.2 0.218 1.311l-0.005 0.002z"></path>
<path fill="#a67e69" d="M18.1 18.25c-0.048-0.142-0.091-0.289-0.13-0.438 0.009 0.032 0.019 0.065 0.028 0.095 0.030 0.117 0.067 0.23 0.104 0.341 0 0 0 0.001 0 0.001s-0.001 0.001-0.002 0.001z"></path>
<path fill="#8f999b" d="M17.702 17.598c-0.255-0.271-0.461-0.725-0.541-1.262-0.138-0.909 0.128-1.716 0.606-1.843l-0.014 0.005c-0.024 0.007-0.048 0.016-0.071 0.027-0.168 0.075-0.304 0.24-0.396 0.462-0.008 0.017-0.015 0.035-0.022 0.053-0.014 0.031-0.025 0.061-0.034 0.094-0.034 0.103-0.060 0.216-0.077 0.34-0.039 0.261-0.039 0.556 0.007 0.862 0.082 0.537 0.287 0.991 0.541 1.262z"></path>
<path fill="#9e7562" d="M17.918 17.776c-0.074-0.045-0.147-0.105-0.216-0.178-0.253-0.271-0.458-0.725-0.541-1.262-0.046-0.306-0.046-0.601-0.007-0.862 0 0-0 0.001-0 0.002-0.037 0.26-0.037 0.555 0.010 0.859 0.027 0.171 0.063 0.335 0.114 0.485 0.070 0.228 0.167 0.428 0.278 0.592 0.027 0.040 0.053 0.077 0.084 0.111 0.027 0.037 0.060 0.074 0.090 0.104l0.004 0.003c0.059 0.059 0.12 0.107 0.184 0.147zM17.266 15.039c0.007-0.018 0.014-0.036 0.022-0.053-0.006 0.013-0.011 0.027-0.016 0.041-0.002 0.004-0.004 0.008-0.006 0.012zM17.683 14.524c0.023-0.011 0.046-0.020 0.071-0.027l-0.021 0.008c-0.017 0.005-0.034 0.012-0.050 0.019z"></path>
<path fill="#b0aaae" d="M30.222 32h-15.076c-0.491 0-0.897-0.369-0.903-0.82 0-0.004 0-0.007 0-0.011v-0.668c0-0 0.001-0 0.001-0.001v0.667c0 0.458 0.409 0.833 0.903 0.833h15.076c0.049 0 0.097-0.004 0.145-0.011-0.048 0.007-0.096 0.011-0.146 0.011zM30.71 31.867c0.038-0.023 0.073-0.048 0.106-0.076l-0.007 0.008c-0.031 0.025-0.064 0.047-0.099 0.068zM15.233 24.086c-0.004-0.103-0.006-0.161-0.006-0.161s0.002 0.058 0.006 0.161v0zM15.227 23.925v0l0.37-0.133-0.034 0.012-0.337 0.122z"></path>
<path fill="#9c7869" d="M14.244 25.953c0 0-0 0-0.001 0v-0.947c0-0.148 0.043-0.287 0.117-0.409-0.074 0.12-0.116 0.26-0.116 0.408v0.948zM14.36 24.596c0 0 0.001-0 0.001-0.001s-0 0.001-0.001 0.001z"></path>
<path fill="#8a99a5" d="M14.806 24.235c0 0 0 0 0-0s0 0-0 0zM14.806 24.235c0.012-0.004 0.024-0.008 0.036-0.012-0.008 0.003-0.017 0.006-0.025 0.009-0.004 0.001-0.008 0.002-0.011 0.004zM14.852 24.219l0.029-0.010 0.082-0.029-0.051 0.018-0.031 0.011-0.029 0.010z"></path>
<path fill="#9c7869" d="M14.818 24.231c0.008-0.003 0.017-0.006 0.025-0.009v0l0.010-0.004 0.029-0.010 0.031-0.011-0.029 0.010-0.030 0.010-0.010 0.004c-0.008 0.003-0.017 0.006-0.025 0.009z"></path>
<path fill="#9c979d" d="M15.233 24.086c-0.004-0.103-0.006-0.161-0.006-0.161v0l0.337-0.122-0.336 0.122c0 0 0.003 0.056 0.006 0.16l-0.001 0.001z"></path>
<path fill="#653c35" d="M17.989 23.128c-0.053-1.319 0.132-2.707 0.5-3.926 0 0 0-0 0-0.001 0.001 0.001 0.001 0.003 0.002 0.004-0.371 1.213-0.555 2.601-0.501 3.919v0.003l-0.001 0z"></path>
<path fill="#87d923" d="M29.808 29.805c0 0.469-0.226 0.886-0.574 1.148l-0.341-0.983 0.851-0.593c0.042 0.135 0.065 0.279 0.065 0.428zM28.825 29.626c-0.042-0.046-0.103-0.074-0.17-0.074-0.084 0-0.157 0.044-0.199 0.11-0.042-0.066-0.115-0.11-0.199-0.11s-0.157 0.044-0.199 0.111v-0.095h-0.109c0.081-0.152 0.241-0.256 0.425-0.256 0.207 0 0.383 0.131 0.451 0.314zM27.913 29.652h0.039v0.37h0.105v-0.111c0.042 0.067 0.115 0.111 0.199 0.111s0.157-0.044 0.199-0.11c0.042 0.066 0.115 0.11 0.199 0.11 0.071 0 0.135-0.032 0.178-0.082-0.062 0.194-0.244 0.335-0.459 0.335-0.266 0-0.482-0.216-0.482-0.482 0-0.049 0.007-0.096 0.021-0.141zM28.211 29.928c-0.059-0.019-0.102-0.076-0.102-0.141 0-0.075 0.056-0.137 0.128-0.147 0.005 0 0.010 0 0.015 0.001 0.006 0 0.012 0.002 0.016 0.004s0.006 0.005 0.008 0.008c0.002 0.004 0.004 0.009 0.005 0.014s0.001 0.009 0 0.013-0.002 0.008-0.004 0.012c-0.002 0.004-0.005 0.009-0.008 0.013s-0.008 0.009-0.012 0.015c-0.004 0.005-0.009 0.010-0.015 0.015-0.006 0.006-0.012 0.012-0.020 0.021-0.006 0.007-0.013 0.014-0.019 0.021s-0.011 0.015-0.015 0.023c-0.004 0.008-0.007 0.015-0.009 0.022s-0.002 0.014-0.002 0.021c-0 0.007 0 0.014 0.001 0.021s0.003 0.014 0.005 0.021c0.002 0.007 0.006 0.015 0.010 0.022s0.010 0.015 0.017 0.021l0.001 0.001zM28.297 29.643c0.062 0.018 0.108 0.075 0.108 0.143 0 0.072-0.051 0.132-0.119 0.146-0.007 0.001-0.014 0.001-0.022-0.001-0.006-0.002-0.013-0.004-0.021-0.008s-0.012-0.008-0.017-0.012c-0.005-0.005-0.009-0.010-0.012-0.016s-0.006-0.012-0.007-0.018c-0.002-0.006-0.004-0.012-0.004-0.018s-0.001-0.011-0.001-0.017c0-0.005 0.001-0.011 0.002-0.016s0.004-0.011 0.007-0.017 0.008-0.012 0.013-0.019c0.006-0.007 0.011-0.014 0.017-0.020s0.012-0.013 0.019-0.019c0.006-0.006 0.011-0.011 0.015-0.015s0.010-0.011 0.014-0.017c0.004-0.006 0.008-0.011 0.011-0.017s0.005-0.012 0.006-0.019c0.001-0.006 0.001-0.013 0-0.021-0.001-0.006-0.003-0.013-0.006-0.019zM28.608 29.928c-0.059-0.019-0.102-0.076-0.102-0.141 0-0.075 0.056-0.137 0.128-0.147 0.005 0 0.010 0 0.015 0.001 0.006 0 0.012 0.002 0.016 0.004s0.006 0.005 0.008 0.008c0.002 0.004 0.004 0.009 0.005 0.014s0.001 0.009 0 0.013c-0 0.004-0.002 0.008-0.004 0.012s-0.004 0.009-0.008 0.013c-0.003 0.004-0.008 0.009-0.012 0.015s-0.010 0.010-0.015 0.015c-0.006 0.006-0.012 0.012-0.020 0.021-0.006 0.007-0.013 0.014-0.019 0.021s-0.011 0.015-0.015 0.023c-0.004 0.008-0.007 0.015-0.009 0.022s-0.002 0.014-0.002 0.021c-0 0.007 0 0.014 0.001 0.021s0.003 0.014 0.005 0.021c0.002 0.007 0.005 0.015 0.009 0.022s0.010 0.015 0.017 0.021l0.001 0.001zM28.695 29.643c0.062 0.018 0.108 0.075 0.108 0.143 0 0.072-0.052 0.132-0.12 0.146-0.007 0.001-0.014 0.001-0.022-0.001-0.006-0.002-0.013-0.004-0.021-0.008-0.006-0.004-0.012-0.008-0.017-0.012s-0.009-0.010-0.012-0.016c-0.003-0.006-0.006-0.012-0.007-0.018s-0.003-0.012-0.004-0.018c-0.001-0.006-0.001-0.011-0.001-0.017s0-0.011 0.002-0.016c0.001-0.005 0.003-0.011 0.006-0.017s0.008-0.012 0.013-0.019c0.006-0.007 0.012-0.014 0.017-0.020s0.013-0.013 0.019-0.019c0.006-0.006 0.011-0.011 0.015-0.015s0.010-0.011 0.014-0.017c0.004-0.006 0.008-0.011 0.011-0.017s0.005-0.012 0.006-0.019c0.001-0.006 0.001-0.013 0-0.021-0.001-0.006-0.003-0.013-0.006-0.019zM29.204 30.976c-0.235 0.166-0.521 0.264-0.83 0.264s-0.596-0.098-0.83-0.264l0.83-0.628 0.83 0.628zM27.513 30.953c-0.349-0.262-0.574-0.679-0.574-1.148 0-0.149 0.023-0.293 0.065-0.428l0.851 0.593-0.341 0.983zM27.016 29.339c0.191-0.557 0.716-0.96 1.337-0.969l-0.3 0.989-1.037-0.020zM28.394 28.37c0.62 0.008 1.146 0.411 1.337 0.969l-1.037 0.020-0.3-0.989zM26.714 29.24l0.046 0.057-0.019 0.077 0.16 0.040-0.017 0.067-0.16-0.040-0.025 0.101-0.046-0.057 0.061-0.245zM27.002 29.017l0.033 0.064-0.090 0.195-0.202-0.094 0.109-0.234 0.034 0.065-0.061 0.131 0.024 0.011 0.074-0.16 0.029 0.057-0.058 0.124 0.027 0.013 0.080-0.172zM27.23 28.804l-0.041 0.055-0.069-0.051-0.079 0.107 0.069 0.051-0.041 0.056-0.179-0.132 0.041-0.056 0.063 0.047 0.079-0.107-0.063-0.047 0.041-0.055 0.179 0.132zM27.314 28.727l-0.048 0.049-0.159-0.156 0.048-0.049 0.159 0.156zM27.533 28.477l-0 0.073-0.089 0.068c-0.031 0.023-0.063 0.034-0.096 0.032s-0.060-0.016-0.080-0.042-0.025-0.055-0.017-0.086c0.008-0.031 0.027-0.059 0.058-0.082l0.125-0.094-0 0.073-0.089 0.068c-0.015 0.011-0.024 0.025-0.028 0.040s-0.001 0.030 0.009 0.042c0.010 0.013 0.022 0.019 0.038 0.020s0.031-0.005 0.046-0.017l0.124-0.095zM27.966 28.35l-0.098 0.037-0.084-0.031c-0.025-0.009-0.043-0.016-0.052-0.020l0.003 0.007 0.003 0.008c0.001 0.002 0.002 0.005 0.003 0.008l0.025 0.067-0.065 0.025-0.079-0.209 0.065-0.025 0.018 0.048c0.006 0.016 0.010 0.028 0.012 0.037 0-0 0.002-0.003 0.005-0.009l0.002-0.005 0.003-0.005c0.005-0.010 0.010-0.019 0.015-0.029l0.041-0.073 0.093-0.036-0.057 0.090c-0.017 0.026-0.029 0.046-0.040 0.059 0.007 0.002 0.011 0.003 0.012 0.003l0.008 0.002 0.008 0.002c0.006 0.002 0.012 0.004 0.020 0.006l0.011 0.004 0.012 0.004 0.113 0.036zM28.076 28.163l0.011 0.063c0.011 0.067-0.019 0.106-0.090 0.118l-0.021 0.004 0.005-0.059 0.007-0.001c0.006-0.001 0.013-0.006 0.022-0.014s0.012-0.020 0.010-0.036l-0.021-0.12 0.241-0.040 0.037 0.22-0.069 0.011-0.027-0.163-0.105 0.018zM28.649 28.088l-0.196 0.215-0.080-0.003 0.069-0.071-0.13-0.154 0.089 0.004 0.051 0.064c0 0 0.001 0.002 0.002 0.003s0.002 0.003 0.004 0.005l0.004 0.005 0.004 0.006c0.008 0.010 0.013 0.016 0.014 0.017 0.002-0.002 0.005-0.006 0.010-0.011s0.012-0.014 0.020-0.023l0.053-0.060 0.087 0.004zM28.949 28.233l-0.24-0.070 0.061-0.042 0.221 0.064-0.042 0.048zM28.891 28.247c0.036 0.014 0.058 0.034 0.065 0.059 0.004 0.011 0.004 0.022 0 0.034-0.012 0.042-0.047 0.054-0.105 0.037l-0.188-0.055 0.038-0.13 0.189 0.055zM28.746 28.286l0.009-0.029 0.122 0.036c0.013 0.004 0.019 0.011 0.016 0.021s-0.011 0.013-0.025 0.009l-0.122-0.036zM29.275 28.395l-0.035 0.054c-0.037 0.056-0.086 0.065-0.146 0.025l-0.018-0.012 0.044-0.040 0.006 0.004c0.005 0.003 0.013 0.005 0.026 0.005s0.022-0.006 0.031-0.020l0.067-0.102 0.205 0.134-0.122 0.187-0.058-0.038 0.090-0.138-0.089-0.058zM29.366 28.659l-0-0.001 0.156-0.157 0.049 0.048-0.040 0.040 0.083 0.082c0.024 0.024 0.038 0.048 0.042 0.073s-0.004 0.045-0.022 0.063c-0.018 0.018-0.039 0.025-0.063 0.023s-0.049-0.016-0.073-0.040l-0.132-0.13 0.002-0zM29.49 28.63l0.088 0.087c0.008 0.007 0.012 0.015 0.013 0.023s-0.002 0.013-0.007 0.019c-0.012 0.012-0.025 0.010-0.042-0.006l-0.088-0.087 0.036-0.036zM29.824 29.080c-0.004 0.011-0.012 0.019-0.023 0.026-0.037 0.023-0.071 0.009-0.103-0.042l-0.104-0.166 0.115-0.072 0.105 0.168c0.007 0.011 0.015 0.014 0.023 0.008s0.009-0.013 0.002-0.024l-0.105-0.167 0.074 0.009 0.078 0.125c0.015 0.023 0.021 0.044 0.021 0.062-0.001 0.019-0.010 0.034-0.027 0.045-0.010 0.006-0.021 0.009-0.032 0.008-0.009-0.001-0.017-0.004-0.024-0.010 0.003 0.011 0.002 0.021-0.001 0.030zM29.705 28.909l0.067 0.107c0.008 0.012 0.007 0.021-0.001 0.026s-0.017 0.002-0.025-0.010l-0.067-0.108 0.026-0.016zM29.784 29.238l-0.027-0.063 0.205-0.087 0.027 0.063-0.205 0.087zM29.975 29.517c-0.007 0.008-0.017 0.015-0.029 0.018-0.042 0.011-0.070-0.012-0.086-0.071l-0.051-0.189 0.131-0.035 0.051 0.191c0.003 0.012 0.010 0.017 0.019 0.015s0.012-0.010 0.009-0.023l-0.051-0.191 0.068 0.030 0.038 0.142c0.007 0.027 0.008 0.048 0.002 0.066s-0.019 0.030-0.038 0.035c-0.012 0.003-0.023 0.003-0.033-0.001-0.008-0.003-0.015-0.008-0.020-0.016 0 0.011-0.004 0.020-0.010 0.029zM29.912 29.319l0.033 0.123c0.004 0.014 0.001 0.022-0.009 0.024s-0.017-0.003-0.021-0.017l-0.033-0.123 0.030-0.008zM26.927 30.273l-0.067-0.031-0.018-0.078-0.161 0.037-0.016-0.067 0.161-0.037-0.023-0.102 0.067 0.031 0.057 0.247zM26.891 30.605l-0.071-0.017-0.089-0.196 0.204-0.092 0.107 0.236-0.071-0.017-0.060-0.132-0.024 0.011 0.073 0.161-0.063-0.015-0.057-0.125-0.027 0.012 0.078 0.173zM27.017 30.67l-0.107 0.076-0.037-0.051 0.151-0.108c0.011-0.008 0.022-0.011 0.033-0.009 0.009 0.002 0.017 0.007 0.023 0.016s0.008 0.018 0.006 0.030l-0.020 0.183 0.107-0.076 0.037 0.051-0.151 0.107c-0.011 0.008-0.022 0.011-0.033 0.010-0.009-0.002-0.017-0.007-0.023-0.016s-0.008-0.018-0.006-0.029l0.020-0.183zM27.224 30.928l-0.091 0.095-0.045-0.043 0.128-0.134c0.010-0.010 0.020-0.015 0.030-0.015s0.018 0.004 0.026 0.011c0.007 0.007 0.011 0.016 0.012 0.028l0.014 0.183 0.091-0.095 0.046 0.044-0.128 0.134c-0.010 0.010-0.020 0.015-0.030 0.015s-0.019-0.004-0.026-0.011c-0.007-0.007-0.011-0.016-0.012-0.028l-0.014-0.184zM27.415 31.255l-0.056-0.040 0.13-0.182 0.056 0.040-0.13 0.182zM27.739 31.281c0.050 0.025 0.065 0.056 0.047 0.092-0.022 0.044-0.062 0.051-0.119 0.022l-0.185-0.094 0.065-0.031 0.151 0.076c0.014 0.007 0.023 0.006 0.028-0.004s0-0.018-0.014-0.025l-0.108-0.055c-0.025-0.012-0.041-0.027-0.049-0.044-0.007-0.016-0.006-0.033 0.003-0.050 0.021-0.042 0.060-0.048 0.117-0.019l0.173 0.088-0.066 0.032-0.138-0.070c-0.014-0.007-0.023-0.006-0.028 0.003s0 0.018 0.014 0.025l0.109 0.055zM28.321 31.491l-0.051 0.052-0.111-0.014c-0.039-0.005-0.069-0.019-0.092-0.044s-0.032-0.053-0.028-0.086c0.004-0.032 0.020-0.057 0.048-0.074s0.061-0.023 0.099-0.018l0.155 0.019-0.051 0.052-0.111-0.014c-0.019-0.002-0.034 0.001-0.048 0.009s-0.021 0.021-0.023 0.037c-0.002 0.016 0.002 0.029 0.014 0.041s0.026 0.018 0.045 0.021l0.155 0.019zM28.627 31.47l-0.040 0.061-0.197 0.015-0.017-0.223 0.069-0.005 0.012 0.166 0.173-0.013zM28.958 31.344c0.018 0.065-0.017 0.11-0.107 0.135-0.051 0.015-0.092 0.017-0.12 0.007-0.027-0.009-0.046-0.030-0.055-0.063l-0.034-0.121 0.066-0.019 0.034 0.121c0.004 0.016 0.013 0.026 0.025 0.029s0.036-0 0.069-0.010c0.025-0.007 0.042-0.015 0.050-0.025s0.010-0.021 0.005-0.036l-0.034-0.122 0.067-0.019 0.034 0.121zM29.271 31.189c0.010 0.005 0.018 0.013 0.024 0.025 0.019 0.039 0.002 0.072-0.052 0.099l-0.176 0.089-0.061-0.122 0.177-0.089c0.011-0.006 0.015-0.013 0.011-0.022s-0.012-0.010-0.024-0.004l-0.177 0.089 0.016-0.073 0.132-0.067c0.025-0.012 0.046-0.017 0.064-0.015s0.033 0.013 0.042 0.031c0.006 0.011 0.007 0.021 0.006 0.032-0.002 0.009-0.006 0.017-0.012 0.023 0.011-0.002 0.021-0.001 0.030 0.004zM29.090 31.291l0.114-0.057c0.012-0.006 0.021-0.005 0.026 0.004s0.001 0.017-0.012 0.024l-0.113 0.057-0.014-0.027zM29.677 30.872l0.011 0.072-0.136 0.142-0.162-0.154 0.048-0.050 0.12 0.115 0.119-0.125zM29.583 30.723l0.179-0.004-0.068-0.168 0.044-0.069 0.092 0.23c0.007 0.019 0.006 0.036-0.003 0.051s-0.025 0.023-0.045 0.023l-0.246 0.008 0.046-0.071zM29.981 30.466l-0.028 0.063-0.204-0.092 0.028-0.063 0.204 0.092zM29.821 30.264l0.167-0.065-0.121-0.136 0.019-0.080 0.165 0.185c0.013 0.016 0.018 0.032 0.014 0.049s-0.016 0.030-0.034 0.038l-0.228 0.090 0.019-0.082zM26.742 29.707c0.054 0 0.098 0.044 0.098 0.098s-0.044 0.098-0.098 0.098c-0.054 0-0.098-0.044-0.098-0.098s0.044-0.098 0.098-0.098zM30.005 29.707c0.054 0 0.098 0.044 0.098 0.098s-0.044 0.098-0.098 0.098-0.098-0.044-0.098-0.098c0-0.054 0.044-0.098 0.098-0.098zM30.202 29.805c0-1.010-0.819-1.829-1.829-1.829s-1.829 0.819-1.829 1.829 0.819 1.829 1.829 1.829c1.010 0 1.829-0.819 1.829-1.829z"></path>
</svg>
