<!-- Generated by IcoMoon.io -->
<svg version="1.1" xmlns="http://www.w3.org/2000/svg" width="32" height="32" viewBox="0 0 32 32">
<title>male-dafault</title>
<path fill="#7c91ac" opacity="0.2" d="M28.556 16c0 4.11-1.975 7.759-5.028 10.050l-2.984-8.605 7.444-5.188c0.369 1.182 0.568 2.44 0.568 3.744zM19.952 14.433c-0.374-0.397-0.905-0.645-1.494-0.645-0.734 0-1.377 0.385-1.74 0.964-0.363-0.579-1.006-0.964-1.74-0.964-0.735 0-1.38 0.387-1.742 0.968v-0.836h-0.957c0.708-1.331 2.109-2.237 3.721-2.237 1.812 0 3.357 1.144 3.952 2.75zM11.972 14.658h0.343v3.241h0.921v-0.976c0.362 0.581 1.007 0.968 1.742 0.968 0.734 0 1.377-0.385 1.74-0.964 0.363 0.579 1.006 0.964 1.74 0.964 0.622 0 1.179-0.277 1.556-0.714-0.543 1.7-2.134 2.931-4.014 2.931-2.327 0-4.213-1.886-4.213-4.213 0-0.431 0.065-0.846 0.185-1.237zM14.572 17.074c-0.519-0.171-0.893-0.659-0.893-1.235 0-0.658 0.489-1.202 1.123-1.288 0.045 0.001 0.089 0.003 0.131 0.007 0.055 0.006 0.104 0.017 0.14 0.037 0.030 0.016 0.053 0.041 0.072 0.070 0.024 0.037 0.038 0.081 0.046 0.123 0.007 0.040 0.007 0.079 0.002 0.116s-0.017 0.075-0.034 0.111c-0.018 0.038-0.042 0.077-0.071 0.116-0.030 0.040-0.067 0.082-0.109 0.126-0.040 0.043-0.083 0.085-0.127 0.129-0.054 0.053-0.11 0.11-0.174 0.177-0.057 0.061-0.113 0.125-0.162 0.186-0.051 0.065-0.097 0.132-0.133 0.197-0.037 0.067-0.061 0.132-0.076 0.194s-0.022 0.123-0.023 0.184c-0.001 0.061 0.003 0.12 0.012 0.18s0.024 0.12 0.044 0.183c0.020 0.063 0.047 0.128 0.083 0.192 0.037 0.066 0.084 0.13 0.144 0.186l0.006 0.006zM15.332 14.588c0.546 0.154 0.946 0.656 0.946 1.251 0 0.632-0.451 1.158-1.048 1.275-0.058 0.007-0.119 0.009-0.192-0.010-0.055-0.014-0.119-0.040-0.181-0.073-0.056-0.030-0.11-0.067-0.154-0.109-0.045-0.042-0.080-0.090-0.107-0.138-0.028-0.050-0.050-0.103-0.066-0.155s-0.029-0.102-0.037-0.153c-0.008-0.050-0.011-0.099-0.010-0.145s0.006-0.093 0.018-0.14c0.012-0.047 0.030-0.095 0.058-0.146 0.029-0.053 0.069-0.111 0.115-0.169 0.048-0.062 0.1-0.12 0.15-0.174 0.053-0.057 0.113-0.116 0.169-0.172 0.048-0.047 0.093-0.092 0.132-0.134 0.045-0.048 0.086-0.095 0.123-0.144 0.037-0.050 0.068-0.1 0.092-0.151 0.025-0.054 0.043-0.11 0.052-0.167s0.008-0.117-0.002-0.179c-0.010-0.056-0.028-0.114-0.056-0.167zM18.052 17.074c-0.519-0.171-0.893-0.659-0.893-1.235 0-0.658 0.489-1.202 1.123-1.288 0.045 0.001 0.089 0.003 0.131 0.007 0.055 0.006 0.104 0.017 0.14 0.037 0.029 0.016 0.053 0.041 0.072 0.070 0.024 0.037 0.038 0.081 0.046 0.123 0.007 0.040 0.007 0.079 0.002 0.116s-0.017 0.075-0.034 0.111c-0.018 0.038-0.042 0.077-0.071 0.116-0.030 0.040-0.067 0.082-0.109 0.126-0.040 0.043-0.083 0.085-0.127 0.129-0.054 0.053-0.11 0.11-0.174 0.177-0.057 0.061-0.113 0.125-0.162 0.186-0.051 0.065-0.097 0.132-0.133 0.197-0.037 0.067-0.061 0.132-0.076 0.194s-0.022 0.123-0.023 0.184c-0.001 0.061 0.002 0.12 0.012 0.18s0.024 0.12 0.044 0.183c0.020 0.063 0.047 0.128 0.083 0.192 0.037 0.066 0.084 0.13 0.144 0.186l0.006 0.006zM18.812 14.588c0.546 0.154 0.946 0.656 0.946 1.251 0 0.632-0.451 1.158-1.048 1.275-0.058 0.007-0.119 0.009-0.192-0.010-0.055-0.014-0.119-0.040-0.181-0.073-0.056-0.030-0.11-0.067-0.154-0.109-0.045-0.042-0.080-0.090-0.107-0.138-0.028-0.050-0.050-0.103-0.067-0.155s-0.029-0.102-0.037-0.153c-0.008-0.050-0.011-0.099-0.010-0.145s0.006-0.093 0.018-0.14c0.012-0.047 0.030-0.095 0.058-0.146 0.029-0.053 0.069-0.111 0.115-0.169 0.048-0.062 0.1-0.12 0.15-0.174 0.053-0.057 0.113-0.116 0.169-0.172 0.047-0.047 0.093-0.092 0.132-0.134 0.045-0.048 0.087-0.095 0.123-0.144 0.037-0.050 0.068-0.1 0.092-0.151 0.025-0.054 0.043-0.11 0.052-0.167s0.008-0.117-0.002-0.179c-0.010-0.056-0.028-0.114-0.056-0.167zM23.262 26.243c-2.050 1.456-4.556 2.312-7.262 2.312s-5.212-0.856-7.262-2.312l7.262-5.498 7.262 5.498zM8.472 26.050c-3.053-2.29-5.028-5.939-5.028-10.050 0-1.304 0.199-2.561 0.568-3.744l7.444 5.188-2.984 8.605zM4.121 11.925c1.673-4.879 6.268-8.401 11.697-8.478l-2.626 8.657-9.071-0.178zM16.182 3.447c5.429 0.077 10.023 3.599 11.697 8.478l-9.071 0.178-2.626-8.657zM1.481 11.054l0.398 0.502-0.168 0.676 1.401 0.348-0.146 0.586-1.401-0.349-0.221 0.889-0.398-0.502 0.535-2.151zM3.998 9.101l0.291 0.563-0.792 1.703-1.769-0.823 0.953-2.049 0.295 0.568-0.532 1.145 0.212 0.098 0.652-1.401 0.256 0.502-0.505 1.087 0.241 0.112 0.7-1.504zM6 7.242l-0.357 0.483-0.606-0.447-0.689 0.934 0.605 0.446-0.36 0.488-1.57-1.158 0.36-0.488 0.556 0.41 0.689-0.934-0.556-0.41 0.357-0.484 1.57 1.158zM6.729 6.571l-0.423 0.431-1.393-1.366 0.423-0.431 1.393 1.366zM8.647 4.378l-0.005 0.634-0.78 0.593c-0.271 0.206-0.551 0.3-0.84 0.283-0.292-0.015-0.525-0.136-0.698-0.363s-0.224-0.479-0.153-0.755c0.069-0.272 0.239-0.511 0.51-0.717l1.089-0.828-0.002 0.639-0.78 0.593c-0.13 0.099-0.212 0.216-0.246 0.352-0.031 0.139-0.005 0.263 0.078 0.373s0.195 0.167 0.335 0.17c0.137 0.003 0.271-0.045 0.403-0.145l1.089-0.828zM12.429 3.266l-0.853 0.323-0.733-0.271c-0.221-0.083-0.372-0.142-0.454-0.177l0.027 0.064 0.028 0.064c0.011 0.023 0.021 0.046 0.030 0.070l0.221 0.583-0.567 0.215-0.692-1.824 0.567-0.215 0.16 0.423c0.052 0.138 0.089 0.246 0.11 0.323 0.002-0.005 0.015-0.031 0.039-0.077l0.023-0.046 0.026-0.047c0.043-0.085 0.088-0.169 0.134-0.254l0.358-0.644 0.818-0.31-0.5 0.788c-0.144 0.229-0.259 0.401-0.345 0.514 0.060 0.015 0.096 0.024 0.11 0.027l0.133 0.037c0.049 0.015 0.108 0.033 0.177 0.055l0.095 0.029 0.103 0.033 0.984 0.316zM13.397 1.631l0.092 0.549c0.098 0.583-0.165 0.927-0.79 1.032l-0.187 0.031 0.043-0.516 0.060-0.010c0.050-0.008 0.114-0.049 0.193-0.121 0.079-0.068 0.107-0.174 0.083-0.316l-0.177-1.050 2.111-0.355 0.323 1.924-0.598 0.101-0.239-1.424-0.915 0.154zM18.41 0.978l-1.713 1.884-0.702-0.028 0.6-0.624-1.136-1.35 0.775 0.031 0.444 0.561c0.006 0.006 0.013 0.015 0.022 0.027s0.021 0.026 0.036 0.042l0.036 0.045 0.039 0.048c0.070 0.087 0.11 0.138 0.119 0.154 0.014-0.019 0.042-0.052 0.083-0.099 0.049-0.058 0.107-0.125 0.174-0.2l0.464-0.521 0.758 0.030zM21.037 2.252l-2.097-0.612 0.534-0.373 1.934 0.565-0.372 0.42zM20.526 2.37c0.315 0.122 0.506 0.293 0.573 0.514 0.034 0.091 0.036 0.191 0.004 0.299-0.106 0.364-0.413 0.472-0.921 0.323l-1.646-0.481 0.333-1.139 1.657 0.484zM19.259 2.714l0.075-0.257 1.067 0.312c0.119 0.035 0.167 0.094 0.142 0.178-0.026 0.088-0.098 0.114-0.218 0.079l-1.066-0.312zM23.89 3.668l-0.304 0.467c-0.322 0.495-0.749 0.57-1.28 0.224l-0.159-0.103 0.381-0.35 0.051 0.033c0.042 0.028 0.117 0.041 0.224 0.041 0.105 0.003 0.196-0.055 0.275-0.176l0.581-0.892 1.794 1.168-1.064 1.635-0.508-0.331 0.788-1.21-0.777-0.506zM24.684 5.973l-0.006-0.006 1.366-1.377 0.427 0.423-0.351 0.354 0.725 0.719c0.213 0.211 0.334 0.424 0.363 0.64 0.026 0.212-0.038 0.394-0.19 0.547-0.155 0.156-0.338 0.222-0.55 0.198-0.217-0.024-0.432-0.141-0.645-0.352l-1.153-1.144 0.014-0.002zM25.768 5.721l0.766 0.76c0.066 0.066 0.104 0.132 0.112 0.197 0.008 0.063-0.012 0.12-0.061 0.169-0.104 0.105-0.226 0.088-0.365-0.050l-0.766-0.76 0.314-0.317zM28.688 9.655c-0.035 0.091-0.1 0.166-0.196 0.226-0.321 0.201-0.622 0.078-0.903-0.37l-0.91-1.453 1.006-0.63 0.916 1.463c0.060 0.096 0.127 0.12 0.201 0.074 0.071-0.044 0.076-0.114 0.016-0.21l-0.916-1.463 0.647 0.077 0.686 1.095c0.128 0.204 0.189 0.386 0.184 0.546-0.009 0.169-0.087 0.299-0.234 0.391-0.089 0.056-0.181 0.080-0.277 0.074-0.080-0.007-0.15-0.035-0.21-0.082 0.027 0.091 0.024 0.179-0.010 0.264zM27.653 8.162l0.59 0.942c0.066 0.106 0.062 0.181-0.012 0.228-0.077 0.049-0.149 0.020-0.215-0.085l-0.59-0.942 0.227-0.142zM28.347 11.040l-0.237-0.555 1.795-0.764 0.237 0.555-1.795 0.764zM30.017 13.481c-0.060 0.077-0.144 0.129-0.253 0.159-0.366 0.099-0.618-0.108-0.755-0.618l-0.445-1.656 1.146-0.308 0.448 1.667c0.029 0.109 0.086 0.152 0.171 0.129 0.081-0.022 0.106-0.087 0.077-0.196l-0.448-1.667 0.596 0.263 0.335 1.248c0.063 0.233 0.068 0.425 0.016 0.575-0.058 0.159-0.171 0.26-0.338 0.305-0.101 0.027-0.197 0.024-0.287-0.011-0.075-0.030-0.133-0.077-0.176-0.14-0.001 0.095-0.030 0.178-0.087 0.25zM29.464 11.751l0.288 1.073c0.032 0.12 0.006 0.192-0.078 0.214-0.088 0.024-0.148-0.025-0.181-0.145l-0.288-1.073 0.259-0.070zM3.347 20.093l-0.584-0.267-0.157-0.681-1.41 0.325-0.136-0.59 1.41-0.325-0.206-0.894 0.584 0.267 0.5 2.164zM3.031 23.003l-0.618-0.147-0.776-1.715 1.782-0.806 0.933 2.064-0.625-0.147-0.522-1.153-0.213 0.096 0.638 1.412-0.548-0.134-0.495-1.095-0.242 0.11 0.685 1.515zM4.131 23.567l-0.934 0.668-0.32-0.447 1.32-0.943c0.1-0.071 0.195-0.099 0.286-0.082 0.082 0.018 0.15 0.064 0.203 0.139 0.052 0.073 0.071 0.159 0.055 0.259l-0.178 1.6 0.934-0.668 0.321 0.449-1.317 0.942c-0.1 0.071-0.195 0.099-0.286 0.082-0.083-0.015-0.152-0.062-0.207-0.139-0.051-0.071-0.070-0.157-0.055-0.259l0.178-1.6zM5.944 25.831l-0.794 0.83-0.397-0.38 1.121-1.172c0.085-0.089 0.173-0.134 0.266-0.134 0.084 0.002 0.159 0.035 0.226 0.098 0.065 0.062 0.099 0.143 0.103 0.244l0.123 1.606 0.794-0.83 0.399 0.382-1.119 1.17c-0.085 0.089-0.173 0.134-0.266 0.134-0.084 0-0.161-0.032-0.229-0.098-0.064-0.061-0.098-0.142-0.103-0.244l-0.123-1.606zM7.609 28.689l-0.493-0.351 1.134-1.593 0.493 0.351-1.134 1.593zM10.448 28.919c0.436 0.222 0.573 0.491 0.411 0.809-0.193 0.38-0.539 0.444-1.038 0.19l-1.623-0.826 0.574-0.272 1.318 0.67c0.123 0.063 0.207 0.052 0.25-0.034 0.042-0.083 0.002-0.156-0.121-0.219l-0.948-0.482c-0.217-0.11-0.359-0.24-0.425-0.39-0.063-0.139-0.054-0.287 0.025-0.443 0.184-0.361 0.525-0.415 1.023-0.162l1.514 0.77-0.577 0.277-1.209-0.615c-0.123-0.063-0.205-0.054-0.246 0.026-0.041 0.082-0.001 0.154 0.123 0.216l0.948 0.482zM15.537 30.756l-0.448 0.451-0.975-0.121c-0.338-0.042-0.605-0.17-0.801-0.385-0.199-0.215-0.281-0.465-0.246-0.749s0.175-0.501 0.419-0.649c0.24-0.147 0.529-0.2 0.868-0.158l1.361 0.168-0.448 0.457-0.975-0.121c-0.162-0.020-0.303 0.007-0.422 0.080-0.119 0.078-0.188 0.185-0.205 0.322s0.023 0.256 0.121 0.357c0.096 0.098 0.226 0.158 0.39 0.178l1.36 0.168zM18.215 30.573l-0.352 0.531-1.722 0.131-0.149-1.95 0.603-0.046 0.11 1.449 1.51-0.115zM21.116 29.469c0.16 0.568-0.151 0.963-0.933 1.183-0.45 0.127-0.8 0.149-1.051 0.065-0.243-0.079-0.405-0.263-0.487-0.552l-0.299-1.061 0.579-0.163 0.299 1.061c0.040 0.142 0.112 0.226 0.217 0.252 0.109 0.026 0.31-0.002 0.605-0.085 0.221-0.062 0.367-0.134 0.438-0.214 0.069-0.078 0.085-0.185 0.047-0.32l-0.299-1.061 0.585-0.165 0.299 1.061zM23.852 28.107c0.087 0.043 0.157 0.115 0.208 0.216 0.171 0.339 0.021 0.628-0.452 0.867l-1.534 0.776-0.537-1.062 1.544-0.781c0.101-0.051 0.132-0.116 0.092-0.194-0.038-0.075-0.107-0.087-0.208-0.036l-1.544 0.781 0.136-0.639 1.155-0.584c0.216-0.109 0.403-0.153 0.561-0.133 0.167 0.025 0.29 0.114 0.369 0.269 0.048 0.094 0.064 0.188 0.048 0.283-0.015 0.079-0.048 0.147-0.101 0.202 0.093-0.019 0.181-0.007 0.263 0.034zM22.268 29.003l0.994-0.503c0.111-0.056 0.187-0.045 0.226 0.033 0.041 0.082 0.006 0.151-0.105 0.207l-0.994 0.503-0.121-0.24zM27.404 25.341l0.093 0.631-1.194 1.249-1.413-1.351 0.418-0.437 1.050 1.004 1.046-1.094zM26.583 24.032l1.567-0.036-0.593-1.475 0.386-0.599 0.808 2.010c0.065 0.169 0.055 0.319-0.028 0.448-0.085 0.133-0.217 0.201-0.393 0.206l-2.15 0.071 0.402-0.624zM30.066 21.787l-0.248 0.552-1.783-0.802 0.248-0.552 1.783 0.802zM28.664 20.019l1.463-0.564-1.057-1.187 0.161-0.695 1.44 1.618c0.118 0.137 0.16 0.281 0.125 0.431-0.036 0.154-0.136 0.263-0.301 0.326l-1.999 0.793 0.168-0.723zM1.724 15.146c0.472 0 0.854 0.382 0.854 0.854s-0.383 0.854-0.854 0.854-0.854-0.382-0.854-0.854c0-0.472 0.383-0.854 0.854-0.854zM30.277 15.146c0.472 0 0.854 0.382 0.854 0.854s-0.383 0.854-0.854 0.854-0.854-0.382-0.854-0.854c0-0.472 0.383-0.854 0.854-0.854zM32 16c0-8.837-7.163-16-16-16s-16 7.163-16 16c0 8.837 7.163 16 16 16s16-7.163 16-16z"></path>
<path fill="#fefefe" d="M22.11 19.109v4.31c0 0.32-0.293 0.582-0.653 0.582h-10.913c-0.357 0-0.653-0.262-0.653-0.582v-4.31c0-0.253 0.182-0.468 0.434-0.548l0.006-0.003 0.021-0.006 2.561-0.951c0.364 0.961 1.17 1.678 2.069 2.195 0.034-0.21 0.133-0.444 0.268-0.659 0.17 0.708 0.182 3.060 0.182 3.060h0.649c0.342-2.164 0-3.685 0-3.685 0.403 0.283 0.77 0.831 0.844 1.284 0.896-0.517 1.702-1.232 2.066-2.189l2.65 0.942c0.271 0.071 0.468 0.295 0.468 0.56z"></path>
<path fill="#e5bb9f" d="M12.935 14.113c-0.092 0.017-0.187-0.004-0.277-0.058-0.244-0.147-0.458-0.531-0.532-1.011-0.070-0.472 0.014-0.906 0.2-1.134 0.067-0.084 0.148-0.139 0.241-0.158l0.012-0.004c0.032-0.006 0.064-0.007 0.094-0.001l0.057 0.007 0.013 0.004c0.069 0.018 0.139 0.058 0.205 0.117 0.204 0.179 0.376 0.525 0.439 0.943 0.1 0.653-0.104 1.232-0.451 1.295z"></path>
<path fill="#e5bb9f" d="M19.831 13.044c-0.082 0.543-0.346 0.966-0.632 1.056-0.059 0.019-0.118 0.025-0.177 0.014-0.347-0.063-0.55-0.642-0.45-1.295 0.060-0.396 0.216-0.729 0.408-0.913 0.069-0.069 0.142-0.117 0.219-0.142 0.060-0.020 0.121-0.025 0.181-0.014l0.013 0.004c0.34 0.072 0.535 0.646 0.438 1.291z"></path>
<path fill="#e5bb9f" d="M17.951 17.286c-0.059 0.065-0.12 0.127-0.185 0.185l-0.064 0.058c-0.028 0.031-0.059 0.059-0.093 0.083-0.037 0.031-0.074 0.062-0.111 0.092-0.209 0.169-0.425 0.311-0.61 0.41-0.095 0.049-0.194 0.102-0.296 0.151-0.162 0.083-0.335 0.169-0.511 0.246 0 0 0.342 1.52 0 3.685v-0.157c0-1.244-0.255-3.528-0.255-3.528-0.191-0.086-0.379-0.179-0.557-0.268-0.086-0.043-0.17-0.086-0.249-0.129-0.188-0.099-0.403-0.241-0.61-0.41-0.037-0.030-0.074-0.061-0.111-0.092-0.077-0.064-0.148-0.132-0.219-0.2l-0.064-0.065-0.016-0.018c0.025-0.012 0.053-0.022 0.080-0.031v-1.616h3.685v1.508c0.062 0.031 0.123 0.062 0.185 0.096z"></path>
<path fill="#f1ccb0" d="M19.277 12.588v0.052c-0.003 0.154-0.009 0.308-0.021 0.462-0.021 0.244-0.049 0.478-0.099 0.705-0.391 1.875-1.705 3.257-3.264 3.257-1.573 0-2.893-1.401-3.276-3.3-0.071-0.361-0.11-0.739-0.11-1.124v-0.052c0-0.29 0.021-0.566 0.061-0.834 0.013-0.098 0.031-0.197 0.049-0.292 0.108-0.539 0.293-1.038 0.539-1.475h0.003c0.668-0.45 1.696-0.868 2.731-0.868 1.031 0 2.066 0.419 2.737 0.868 0.24 0.428 0.422 0.911 0.53 1.431 0.019 0.090 0.028 0.182 0.040 0.271l0.006 0.025 0.006 0.043c0.009 0.052 0.018 0.105 0.025 0.164l0.003 0.025c0.006 0.064 0.012 0.132 0.019 0.197 0.009 0.148 0.021 0.293 0.021 0.446z"></path>
<path fill="#e1eef1" d="M19.262 11.716l-0.017 0.017-0.018 0.014-0.018 0.011-0.003 0.001v0.001c-0.027 0.012-0.062 0.019-0.104 0.019-0.256 0-1.090-1.241-3.21-1.241-1.882 0-2.753 0.976-3.1 1.197l-0.048 0.024c-0.026 0.012-0.047 0.020-0.064 0.020-0.043 0-0.078-0.006-0.11-0.025l-0.002-0.001c-0.146-0.076 0.039-0.395 0.039-0.973 0-0.201 0.081-0.45 0.465-0.734 0.028-0.020 0.056-0.038 0.084-0.058h0.004c0.151-0.101 0.318-0.201 0.501-0.294 0.511-0.261 1.133-0.477 1.779-0.549h0.001c0.074-0.009 0.149-0.014 0.223-0.020h0.001c0.075-0.004 0.15-0.006 0.226-0.006 0.122 0 0.245 0.006 0.367 0.017l0.015 0.001c0.129 0.012 0.256 0.031 0.383 0.054 0.036 0.006 0.070 0.014 0.105 0.021 0.035 0.006 0.069 0.013 0.104 0.022 0.036 0.008 0.070 0.016 0.105 0.025 0.033 0.008 0.066 0.017 0.1 0.027l0.026 0.008c0.221 0.061 0.435 0.135 0.637 0.219 0.068 0.028 0.133 0.057 0.199 0.086 0.033 0.015 0.065 0.030 0.096 0.046 0.032 0.015 0.063 0.031 0.093 0.047 0.031 0.015 0.062 0.031 0.091 0.047 0.031 0.016 0.060 0.032 0.089 0.049 0.117 0.064 0.227 0.132 0.328 0.2 0.028 0.020 0.057 0.038 0.084 0.058 0.388 0.286 0.489 0.548 0.489 0.75 0 0.508 0.164 0.812 0.062 0.92z"></path>
<path fill="#cda68d" d="M19.761 12.133c-0.127 0.126-0.298 0.226-0.484 0.305-0.003-0.062-0.006-0.123-0.010-0.185-0.089-0.060-0.218-0.162-0.357-0.268-0.524-0.403-1.454-1.030-3.034-1.030-1.46 0-2.367 0.535-2.908 0.935-0.191 0.141-0.336 0.264-0.444 0.343-0.006 0.080-0.010 0.16-0.010 0.243-0.123-0.044-0.242-0.106-0.362-0.177 0.039-0.157 0.1-0.292 0.179-0.388 0.065-0.082 0.145-0.137 0.235-0.156l0.008 0.004c0.028 0.016 0.063 0.021 0.102 0.021 0.017 0 0.038-0.007 0.064-0.020l0.002-0.001 0.046-0.022c0.347-0.222 1.218-1.197 3.1-1.197 2.12 0 2.954 1.241 3.211 1.241 0.042 0 0.076-0.006 0.104-0.019v-0.001l0.004-0.001 0.001 0.004 0.006-0.001c0.057-0.017 0.114-0.022 0.172-0.011l0.012 0.004c0.158 0.033 0.283 0.175 0.365 0.381z"></path>
<path fill="#87493f" d="M19.712 11.627c-0.056-0.083-0.041-0.174-0.115-0.245 0.010 0.119 0.015 0.24 0.005 0.361-0.004 0.041-0.011 0.080-0.019 0.119-0.057-0.057-0.123-0.094-0.195-0.11l-0.012-0.004c-0.056-0.011-0.114-0.006-0.171 0.011v-0.001l0.003-0.001 0.018-0.011 0.018-0.014 0.017-0.017c0.102-0.108-0.062-0.413-0.062-0.92 0-0.202-0.101-0.464-0.489-0.75-0.027-0.020-0.055-0.038-0.084-0.058-0.101-0.068-0.211-0.136-0.328-0.2-0.028-0.017-0.058-0.033-0.089-0.049-0.030-0.016-0.060-0.032-0.091-0.047-0.031-0.016-0.062-0.032-0.093-0.047-0.031-0.016-0.063-0.031-0.096-0.046-0.066-0.029-0.131-0.059-0.199-0.086-0.24-0.101-0.496-0.187-0.762-0.254-0.035-0.009-0.069-0.017-0.105-0.025-0.034-0.009-0.069-0.016-0.104-0.022-0.035-0.009-0.070-0.015-0.105-0.021-0.127-0.023-0.254-0.042-0.383-0.054l-0.015-0.001c-0.125-0.012-0.252-0.018-0.377-0.018-0.073 0-0.144 0.002-0.216 0.007h-0.001c-0.066 0.003-0.13 0.007-0.195 0.014h-0.010l-0.018 0.006h-0.001c-0.601 0.185-1.078 0.577-1.316 1.195-0.056-0.304-0.035-0.612 0.103-0.887-0.27 0.133-0.467 0.351-0.606 0.61-0.021-0.104-0.002-0.249 0.039-0.369l0.001-0.002c-0.185 0.095-0.354 0.195-0.505 0.297h-0.001c-0.028 0.020-0.056 0.038-0.084 0.058-0.384 0.285-0.465 0.533-0.465 0.734 0 0.578-0.185 0.897-0.039 0.973-0.092 0.019-0.174 0.074-0.241 0.158-0.059-0.2-0.081-0.412-0.065-0.611-0.033-0.058-0.055-0.121-0.062-0.189-0.059 0.085-0.11 0.175-0.149 0.269-0.154-0.614 0.31-1.31 0.586-1.652 0.42-0.502 1.13-1.17 1.725-1.406 0.451-0.219 0.906-0.321 1.337-0.321 0.6 0 1.154 0.198 1.587 0.56 0.156 0.129 0.294 0.286 0.405 0.471 0.041-0.022 0.096-0.035 0.161-0.040 0.317-0.027 0.787 0.104 1.218 0.582 0.376 0.42 0.675 1.093 0.675 1.711 0 0.117-0.010 0.232-0.033 0.342z"></path>
<path fill="#87493f" d="M19.205 11.758l0.021-0.011-0.018 0.011-0.003 0.001z"></path>
<path fill="#87493f" d="M19.226 11.747l0.036-0.031z"></path>
<path fill="#87493f" d="M17.069 9.286l0.026 0.008c-0.042-0.012-0.083-0.024-0.125-0.035 0.033 0.008 0.066 0.017 0.1 0.027z"></path>
<path fill="#87493f" d="M19.262 11.715c0.074-0.082 0.096-0.248 0.103-0.531 0.003-0.101 0.003-0.219 0.003-0.351 0-0.103-0.065-0.232-0.185-0.369-0.093-0.11-0.218-0.224-0.371-0.341-0.059-0.044-0.122-0.090-0.19-0.135l-0.027-0.017c-0.037-0.025-0.074-0.049-0.113-0.071-0.222-0.137-0.474-0.268-0.749-0.383-0.048-0.021-0.098-0.041-0.148-0.059-0.12-0.047-0.246-0.090-0.375-0.13-0.038-0.012-0.078-0.023-0.117-0.033 0.589 0.163 1.128 0.422 1.533 0.694 0.458 0.308 0.745 0.631 0.745 0.846 0 0.507-0.008 0.774-0.111 0.882z"></path>
<path fill="#ef7c1b" d="M15.826 18.511c-0.216 0.151-0.419 0.376-0.573 0.622l-0.003 0.003c-0.135 0.215-0.234 0.449-0.268 0.659-0.898-0.517-1.705-1.235-2.069-2.195 0.188-0.345 0.425-0.575 0.754-0.708 0.080 0.147 0.197 0.295 0.332 0.437l0.016 0.018 0.064 0.065c0.071 0.068 0.142 0.136 0.219 0.2 0.037 0.031 0.074 0.062 0.111 0.092 0.206 0.169 0.421 0.311 0.61 0.41 0.080 0.043 0.163 0.086 0.249 0.129 0.178 0.089 0.366 0.181 0.557 0.268z"></path>
<path fill="#ef7c1b" d="M18.994 17.6l-0.003 0.006c-0.363 0.957-1.17 1.671-2.066 2.189-0.074-0.453-0.44-1.001-0.844-1.284 0.175-0.077 0.348-0.163 0.511-0.246 0.102-0.049 0.201-0.102 0.296-0.151 0.185-0.099 0.4-0.241 0.61-0.41 0.037-0.030 0.074-0.061 0.111-0.092 0.034-0.025 0.065-0.052 0.093-0.083l0.064-0.058c0.065-0.058 0.127-0.12 0.185-0.185 0.117-0.129 0.215-0.261 0.289-0.394 0.329 0.132 0.566 0.363 0.754 0.708z"></path>
<path fill="#cf6426" d="M16.081 22.039v0.157h-0.649c0 0-0.012-2.352-0.182-3.060l0.003-0.003c0.154-0.246 0.357-0.471 0.573-0.622 0 0 0.255 2.284 0.255 3.528z"></path>
<path fill="#ef7c1b" d="M16.877 20.204c0 0.113-0.092 0.205-0.205 0.205s-0.206-0.092-0.206-0.205c0-0.113 0.092-0.205 0.206-0.205s0.205 0.092 0.205 0.205z"></path>
<path fill="#ef7c1b" d="M16.813 21.333c0 0.113-0.092 0.206-0.206 0.206s-0.205-0.092-0.205-0.206c0-0.113 0.092-0.205 0.205-0.205s0.206 0.092 0.206 0.205z"></path>
<path fill="#cf6426" d="M14.080 16.799v0.499c-0.027 0.009-0.055 0.018-0.080 0.031-0.135-0.142-0.252-0.29-0.332-0.437 0.086-0.047 0.249-0.083 0.412-0.093z"></path>
<path fill="#cf6426" d="M18.24 16.892c-0.074 0.132-0.172 0.264-0.289 0.394-0.062-0.034-0.124-0.064-0.185-0.096v-0.446c0.166 0.022 0.327 0.071 0.474 0.148z"></path>
<path fill="#594364" d="M10.321 18.561v0c0.001-0 0.002-0.001 0.004-0.001l0-0h-0.001l-0.004 0.001zM10.327 18.56l0.002-0.001 0.002-0.001 0.021-0.006 2.561-0.951c0-0 0-0 0-0.001l0-0c-0 0-0 0-0 0.001l-2.586 0.96z"></path>
<path fill="#cdced2" d="M13.373 19.584c-1.17 0-2.674-0.238-3.053-1.021 0-0 0.001-0 0.001-0v-0.001c0.001-0 0.002-0.001 0.004-0.001l0-0h0.001l0.001-0.001 0.004-0.002 0.021-0.006 2.561-0.951c0.297 0.786 0.892 1.409 1.59 1.893l-0.002 0c-0.268 0.054-0.673 0.090-1.129 0.090z"></path>
<path fill="#594364" d="M13.771 16.852c0.073-0.022 0.162-0.039 0.255-0.048 0.018-0.002 0.037-0.003 0.055-0.004v0c-0.111 0.007-0.223 0.026-0.31 0.052z"></path>
<path fill="#b6907d" d="M15.394 18.306c-0.033-0.016-0.066-0.033-0.098-0.049-0.007-0.004-0.014-0.007-0.022-0.011-0 0-0 0-0 0-0.002-0.001-0.003-0.002-0.005-0.002-0.086-0.043-0.17-0.086-0.249-0.129-0.188-0.099-0.403-0.241-0.61-0.41-0.037-0.030-0.074-0.061-0.111-0.092-0.077-0.064-0.148-0.132-0.219-0.2l-0.064-0.065-0.016-0.018c0.025-0.012 0.053-0.022 0.080-0.031v-0.5c0.001 0 0.001 0 0.002 0v-0.42c0.524 0.434 1.145 0.685 1.811 0.685 0.692 0 1.336-0.273 1.872-0.74v0.672c-0.549 0.829-1.357 1.207-2.371 1.309z"></path>
<path fill="#bd9f89" d="M15.894 17.064c-0.666 0-1.287-0.251-1.811-0.685v-0.001c0.523 0.435 1.145 0.686 1.81 0.686 0.691 0 1.336-0.272 1.873-0.74v0.001c-0.536 0.467-1.18 0.74-1.872 0.74z"></path>
<path fill="#c16228" d="M14.504 19.493c-0.698-0.484-1.293-1.107-1.59-1.893v0c0-0 0-0 0-0.001l0.001-0c0.186-0.343 0.424-0.575 0.753-0.706 0.080 0.147 0.197 0.295 0.332 0.437v0l0.016 0.018 0.064 0.065c0.071 0.068 0.142 0.136 0.219 0.2 0.037 0.031 0.074 0.062 0.111 0.092 0.206 0.169 0.421 0.311 0.61 0.41 0.080 0.043 0.163 0.086 0.249 0.129 0.001 0.001 0.003 0.002 0.005 0.002-0.422 0.302-0.698 0.743-0.767 1.246l-0.003 0.001zM15.394 18.306c-0.034-0.016-0.066-0.032-0.098-0.049 0.032 0.016 0.065 0.033 0.098 0.049h-0z"></path>
<path fill="#a45427" d="M14 17.329c-0.135-0.141-0.252-0.29-0.332-0.437 0-0 0.001-0 0.001-0.001 0.011-0.006 0.022-0.012 0.035-0.017 0.020-0.008 0.042-0.016 0.066-0.023 0.087-0.026 0.198-0.046 0.31-0.052v0.499c-0.027 0.009-0.055 0.018-0.080 0.031v0z"></path>
<path fill="#87493f" d="M13.544 11.181c-0.166 0.211-0.299 0.446-0.373 0.7-0.021-0.138-0.028-0.285-0.021-0.424 0.111-0.085 0.241-0.18 0.394-0.276z"></path>
<path fill="#87493f" d="M18.492 11.573c-0.066-0.111-0.205-0.175-0.319-0.237 0.006 0.104-0.001 0.207-0.015 0.313-0.044-0.085-0.095-0.165-0.155-0.238-0.155-0.179-0.355-0.293-0.554-0.41 0.010 0.123 0.002 0.243-0.032 0.362-0.195-0.37-0.491-0.542-0.827-0.776 0.309 0.043 0.584 0.115 0.827 0.201 0.283 0.1 0.525 0.221 0.729 0.344 0.122 0.071 0.231 0.144 0.326 0.213 0.015 0.074 0.024 0.156 0.020 0.228z"></path>
<path fill="#fefefe" d="M18.909 12.528c0 0.115-0.093 0.208-0.208 0.208s-0.208-0.093-0.208-0.208c0-0.115 0.093-0.208 0.208-0.208s0.208 0.093 0.208 0.208z"></path>
<path fill="#fefefe" d="M18.77 12.023c0 0.062-0.050 0.112-0.112 0.112s-0.112-0.050-0.112-0.112c0-0.062 0.050-0.113 0.112-0.113s0.112 0.050 0.112 0.113z"></path>
<path fill="#c3bec3" d="M21.456 24h-10.913c-0.357 0-0.653-0.262-0.653-0.582v-4.31c0-0.251 0.179-0.465 0.429-0.546 0 0 0 0 0 0.001-0.25 0.079-0.428 0.296-0.428 0.544v4.31c0 0.32 0.296 0.582 0.652 0.582h10.914c0.112 0 0.218-0.025 0.311-0.070-0.093 0.045-0.199 0.070-0.311 0.070z"></path>
<path fill="#ac8572" d="M12.689 14.073c-0.011-0.005-0.021-0.011-0.031-0.017-0.244-0.147-0.458-0.531-0.532-1.011-0.070-0.472 0.014-0.906 0.2-1.134v0c0-0 0.001-0.001 0.002-0.002s0 0 0 0c-0.019 0.024-0.038 0.050-0.053 0.079-0.038 0.057-0.067 0.124-0.091 0.196-0.014 0.036-0.026 0.074-0.033 0.114-0.055 0.212-0.064 0.472-0.024 0.745 0.074 0.48 0.286 0.866 0.532 1.012l0.029 0.017c0 0 0 0.001 0 0.002z"></path>
<path fill="#b6927e" d="M14.082 16.378c-0.001-0-0.001-0.001-0.002-0.002v0.001c-0.643-0.534-1.139-1.345-1.391-2.304-0-0.001-0-0.001-0-0.002l0.004 0.002c0.251 0.959 0.745 1.768 1.389 2.303v0.001z"></path>
<path fill="#653c35" d="M12.327 11.91v0c-0.058-0.195-0.080-0.403-0.066-0.598-0.012 0.194 0.010 0.403 0.068 0.596-0 0.001-0.001 0.001-0.002 0.002zM12.051 11.379c-0.154-0.614 0.31-1.31 0.586-1.652 0.069-0.082 0.145-0.168 0.227-0.257l0.039-0.039c-0.098 0.103-0.186 0.203-0.265 0.296-0.277 0.341-0.74 1.038-0.587 1.651-0 0-0 0.001-0 0.001zM12.261 11.299c-0.033-0.058-0.055-0.12-0.061-0.187 0-0.001 0.001-0.002 0.002-0.003 0.004 0.069 0.026 0.131 0.060 0.189 0 0 0 0.001 0 0.001z"></path>
<path fill="#b75d28" d="M13.509 16.967c0.050-0.028 0.103-0.053 0.158-0.075v0c0 0 0 0 0 0s-0 0-0 0c-0.055 0.022-0.108 0.047-0.158 0.075z"></path>
<path fill="#9d4d27" d="M13.668 16.892c0 0 0 0-0 0v0c0.014-0.008 0.030-0.015 0.047-0.021-0.003 0.001-0.007 0.003-0.010 0.004-0.013 0.006-0.026 0.012-0.037 0.017z"></path>
<path fill="#48374d" d="M10.319 18.562c0-0 0-0-0-0l0.002-0v0c-0.001 0-0.001 0-0.002 0.001z"></path>
<path fill="#97949a" d="M10.32 18.563c-0-0-0-0-0-0.001s0.001-0 0.002-0.001v0.001c-0 0-0.001 0-0.001 0z"></path>
<path fill="#48374d" d="M10.325 18.56h-0.001l0.004-0.002-0.002 0.001z"></path>
<path fill="#97949a" d="M10.326 18.56h-0.001l0.002-0.001z"></path>
<path fill="#48374d" d="M12.914 17.599c0.156-0.287 0.347-0.494 0.596-0.632-0.249 0.138-0.439 0.346-0.596 0.631l-0 0z"></path>
<path fill="#924c26" d="M12.914 17.599c0.156-0.286 0.347-0.494 0.596-0.631 0.050-0.028 0.103-0.053 0.158-0.075 0 0 0-0 0-0s0 0 0 0c-0.329 0.131-0.567 0.363-0.753 0.706l-0.001 0z"></path>
<path fill="#7d4324" d="M13.668 16.893c-0-0-0-0-0-0 0.011-0.006 0.023-0.012 0.037-0.017-0.013 0.006-0.025 0.011-0.035 0.017-0 0-0.001 0-0.001 0.001z"></path>
<path fill="#48374d" d="M14.026 16.803c0.018-0.002 0.037-0.003 0.055-0.004v0c-0.018 0.001-0.037 0.003-0.055 0.004z"></path>
<path fill="#87685d" d="M14.080 16.799v-0.422c0.001 0.001 0.001 0.001 0.002 0.002v0.42c-0.001 0-0.001 0-0.002 0z"></path>
<path fill="#8e7266" d="M14.082 16.379c-0.001-0.001-0.001-0.001-0.002-0.002v-0.001c0.001 0 0.001 0.001 0.002 0.002v0.001z"></path>
<path fill="#87d923" d="M21.403 22.463c0 0.329-0.158 0.621-0.402 0.804l-0.239-0.688 0.596-0.415c0.029 0.095 0.045 0.195 0.045 0.3zM20.714 22.337c-0.030-0.032-0.072-0.052-0.119-0.052-0.059 0-0.11 0.031-0.139 0.077-0.029-0.046-0.081-0.077-0.139-0.077s-0.11 0.031-0.139 0.078v-0.067h-0.077c0.057-0.107 0.169-0.179 0.298-0.179 0.145 0 0.269 0.092 0.316 0.22zM20.076 22.356h0.027v0.259h0.074v-0.078c0.029 0.047 0.081 0.077 0.139 0.077s0.11-0.031 0.139-0.077c0.029 0.046 0.080 0.077 0.139 0.077 0.050 0 0.094-0.022 0.124-0.057-0.043 0.136-0.171 0.234-0.321 0.234-0.186 0-0.337-0.151-0.337-0.337 0-0.034 0.005-0.068 0.015-0.099zM20.284 22.549c-0.042-0.014-0.071-0.053-0.071-0.099 0-0.053 0.039-0.096 0.090-0.103 0.004 0 0.007 0 0.011 0.001s0.008 0.001 0.011 0.003c0.002 0.001 0.004 0.003 0.006 0.006s0.003 0.007 0.004 0.010c0 0.003 0 0.006 0 0.009s-0.001 0.006-0.003 0.009c-0.001 0.003-0.003 0.006-0.006 0.009s-0.005 0.007-0.009 0.010c-0.003 0.003-0.007 0.007-0.010 0.010s-0.009 0.009-0.014 0.014c-0.005 0.005-0.009 0.010-0.013 0.015s-0.008 0.011-0.011 0.016c-0.003 0.005-0.005 0.011-0.006 0.016s-0.002 0.010-0.002 0.015c-0 0.005 0 0.010 0.001 0.014s0.002 0.010 0.003 0.015c0.002 0.005 0.004 0.010 0.007 0.015s0.007 0.010 0.012 0.015l0 0zM20.345 22.35c0.044 0.012 0.076 0.052 0.076 0.1 0 0.051-0.036 0.093-0.084 0.102-0.005 0-0.010 0.001-0.015-0.001-0.004-0.001-0.010-0.003-0.015-0.006s-0.009-0.005-0.012-0.009c-0.004-0.003-0.006-0.007-0.009-0.011s-0.004-0.008-0.005-0.012-0.002-0.008-0.003-0.012-0.001-0.008-0.001-0.012 0-0.007 0.001-0.011c0.001-0.004 0.002-0.008 0.005-0.012s0.005-0.009 0.009-0.014c0.004-0.005 0.008-0.010 0.012-0.014s0.009-0.009 0.013-0.014c0.004-0.004 0.008-0.007 0.011-0.011s0.007-0.008 0.010-0.012c0.003-0.004 0.005-0.008 0.007-0.012s0.003-0.009 0.004-0.013c0.001-0.005 0.001-0.009-0-0.014s-0.002-0.009-0.004-0.013zM20.562 22.549c-0.041-0.014-0.071-0.053-0.071-0.099 0-0.053 0.039-0.096 0.090-0.103 0.004 0 0.007 0 0.011 0.001s0.008 0.001 0.011 0.003c0.002 0.001 0.004 0.003 0.006 0.006s0.003 0.007 0.004 0.010c0.001 0.003 0.001 0.006 0 0.009s-0.001 0.006-0.003 0.009c-0.001 0.003-0.003 0.006-0.006 0.009s-0.005 0.007-0.009 0.010c-0.003 0.003-0.007 0.007-0.010 0.010s-0.009 0.009-0.014 0.014c-0.005 0.005-0.009 0.010-0.013 0.015s-0.008 0.011-0.011 0.016c-0.003 0.005-0.005 0.011-0.006 0.016s-0.002 0.010-0.002 0.015c-0 0.005 0 0.010 0.001 0.014s0.002 0.010 0.003 0.015c0.002 0.005 0.004 0.010 0.007 0.015s0.007 0.010 0.012 0.015l0 0zM20.623 22.35c0.044 0.012 0.076 0.052 0.076 0.1 0 0.051-0.036 0.093-0.084 0.102-0.005 0-0.010 0.001-0.015-0.001-0.004-0.001-0.009-0.003-0.014-0.006s-0.009-0.005-0.012-0.009c-0.004-0.003-0.006-0.007-0.009-0.011s-0.004-0.008-0.005-0.012-0.002-0.008-0.003-0.012-0.001-0.008-0.001-0.012 0-0.007 0.001-0.011c0.001-0.004 0.002-0.008 0.005-0.012s0.005-0.009 0.009-0.014c0.004-0.005 0.008-0.010 0.012-0.014s0.009-0.009 0.013-0.014c0.004-0.004 0.008-0.007 0.011-0.011s0.007-0.008 0.010-0.012c0.003-0.004 0.006-0.008 0.007-0.012s0.003-0.009 0.004-0.013c0.001-0.005 0.001-0.009-0-0.014s-0.002-0.009-0.004-0.013zM20.979 23.282c-0.164 0.116-0.364 0.185-0.581 0.185s-0.417-0.069-0.581-0.185l0.581-0.44 0.581 0.44zM19.796 23.267c-0.244-0.183-0.402-0.475-0.402-0.804 0-0.104 0.016-0.205 0.045-0.3l0.596 0.415-0.239 0.688zM19.448 22.137c0.134-0.39 0.501-0.672 0.936-0.678l-0.21 0.693-0.726-0.014zM20.413 21.459c0.434 0.006 0.802 0.288 0.936 0.678l-0.726 0.014-0.21-0.693zM19.237 22.067l0.032 0.040-0.013 0.054 0.112 0.028-0.012 0.047-0.112-0.028-0.018 0.071-0.032-0.040 0.043-0.172zM19.438 21.911l0.023 0.045-0.063 0.136-0.141-0.066 0.076-0.164 0.024 0.045-0.043 0.092 0.017 0.008 0.052-0.112 0.021 0.040-0.041 0.087 0.019 0.009 0.056-0.12zM19.598 21.762l-0.029 0.039-0.048-0.036-0.055 0.075 0.049 0.036-0.029 0.039-0.126-0.093 0.029-0.039 0.044 0.033 0.055-0.075-0.044-0.033 0.029-0.039 0.126 0.093zM19.656 21.709l-0.034 0.034-0.111-0.109 0.034-0.034 0.111 0.109zM19.81 21.533l-0 0.051-0.062 0.047c-0.022 0.016-0.044 0.024-0.067 0.023s-0.042-0.011-0.056-0.029c-0.014-0.018-0.018-0.038-0.012-0.060s0.019-0.041 0.041-0.057l0.087-0.066-0 0.051-0.062 0.047c-0.010 0.008-0.017 0.017-0.020 0.028s-0 0.021 0.006 0.030c0.007 0.009 0.016 0.013 0.027 0.014s0.022-0.004 0.032-0.012l0.087-0.066zM20.112 21.444l-0.068 0.026-0.059-0.022c-0.018-0.007-0.030-0.011-0.036-0.014l0.002 0.005 0.002 0.005c0.001 0.002 0.002 0.004 0.002 0.006l0.018 0.047-0.045 0.017-0.055-0.146 0.045-0.017 0.013 0.034c0.004 0.011 0.007 0.020 0.009 0.026 0-0 0.001-0.002 0.003-0.006l0.002-0.004 0.002-0.004c0.003-0.007 0.007-0.014 0.011-0.020l0.029-0.052 0.065-0.025-0.040 0.063c-0.012 0.018-0.021 0.032-0.028 0.041 0.005 0.001 0.008 0.002 0.009 0.002l0.011 0.003c0.004 0.001 0.009 0.003 0.014 0.004l0.008 0.002 0.008 0.003 0.079 0.025zM20.19 21.313l0.007 0.044c0.008 0.047-0.013 0.074-0.063 0.082l-0.015 0.003 0.003-0.041 0.005-0.001c0.004-0.001 0.009-0.004 0.015-0.010s0.008-0.014 0.007-0.025l-0.014-0.084 0.169-0.028 0.026 0.154-0.048 0.008-0.019-0.114-0.073 0.012zM20.591 21.261l-0.137 0.151-0.056-0.002 0.048-0.050-0.091-0.108 0.062 0.003 0.036 0.045c0 0 0.001 0.001 0.002 0.002s0.002 0.002 0.003 0.003l0.003 0.004 0.003 0.004c0.006 0.007 0.009 0.011 0.010 0.012 0.001-0.001 0.003-0.004 0.007-0.008s0.009-0.010 0.014-0.016l0.037-0.042 0.061 0.003zM20.801 21.363l-0.168-0.049 0.043-0.030 0.155 0.045-0.030 0.034zM20.76 21.372c0.025 0.010 0.041 0.023 0.046 0.041 0.003 0.007 0.003 0.015 0 0.024-0.008 0.029-0.033 0.038-0.074 0.026l-0.132-0.039 0.027-0.091 0.133 0.039zM20.659 21.4l0.006-0.021 0.085 0.025c0.010 0.003 0.013 0.008 0.011 0.014s-0.008 0.009-0.017 0.006l-0.085-0.025zM21.029 21.476l-0.024 0.037c-0.026 0.040-0.060 0.046-0.102 0.018l-0.013-0.008 0.030-0.028 0.004 0.003c0.003 0.002 0.009 0.003 0.018 0.003s0.016-0.004 0.022-0.014l0.047-0.071 0.143 0.093-0.085 0.131-0.041-0.026 0.063-0.097-0.062-0.041zM21.093 21.661l-0-0 0.109-0.11 0.034 0.034-0.028 0.028 0.058 0.057c0.017 0.017 0.027 0.034 0.029 0.051s-0.003 0.031-0.015 0.044c-0.012 0.012-0.027 0.018-0.044 0.016s-0.035-0.011-0.052-0.028l-0.092-0.092 0.001-0zM21.179 21.641l0.061 0.061c0.005 0.005 0.008 0.011 0.009 0.016s-0.001 0.010-0.005 0.014c-0.008 0.008-0.018 0.007-0.029-0.004l-0.061-0.061 0.025-0.025zM21.413 21.955c-0.003 0.007-0.008 0.013-0.016 0.018-0.026 0.016-0.050 0.006-0.072-0.030l-0.073-0.116 0.081-0.050 0.073 0.117c0.005 0.008 0.010 0.010 0.016 0.006s0.006-0.009 0.001-0.017l-0.073-0.117 0.052 0.006 0.055 0.088c0.010 0.016 0.015 0.031 0.015 0.044s-0.007 0.024-0.019 0.031c-0.007 0.004-0.015 0.006-0.022 0.006-0.006-0.001-0.012-0.003-0.017-0.007 0.002 0.007 0.002 0.014-0.001 0.021zM21.33 21.836l0.047 0.075c0.005 0.008 0.005 0.015-0.001 0.018s-0.012 0.002-0.017-0.007l-0.047-0.075 0.018-0.011zM21.386 22.066l-0.019-0.044 0.144-0.061 0.019 0.044-0.144 0.061zM21.519 22.261c-0.005 0.006-0.012 0.010-0.020 0.013-0.029 0.008-0.049-0.009-0.060-0.049l-0.036-0.132 0.092-0.025 0.036 0.133c0.002 0.009 0.007 0.012 0.014 0.010s0.008-0.007 0.006-0.016l-0.036-0.133 0.048 0.021 0.027 0.1c0.005 0.019 0.005 0.034 0.001 0.046s-0.014 0.021-0.027 0.024c-0.008 0.002-0.016 0.002-0.023-0.001-0.006-0.002-0.011-0.006-0.014-0.011-0 0.008-0.002 0.014-0.007 0.020zM21.475 22.123l0.023 0.086c0.003 0.010 0 0.015-0.006 0.017s-0.012-0.002-0.015-0.012l-0.023-0.086 0.021-0.006zM19.386 22.79l-0.047-0.021-0.013-0.054-0.113 0.026-0.011-0.047 0.113-0.026-0.017-0.071 0.047 0.021 0.040 0.173zM19.361 23.023l-0.050-0.012-0.062-0.137 0.143-0.064 0.075 0.165-0.050-0.012-0.042-0.092-0.017 0.008 0.051 0.113-0.044-0.011-0.040-0.088-0.019 0.009 0.055 0.121zM19.449 23.068l-0.075 0.053-0.026-0.036 0.106-0.075c0.008-0.006 0.016-0.008 0.023-0.007s0.012 0.005 0.016 0.011c0.004 0.006 0.006 0.013 0.004 0.021l-0.014 0.128 0.075-0.053 0.026 0.036-0.105 0.075c-0.008 0.006-0.016 0.008-0.023 0.007s-0.012-0.005-0.017-0.011c-0.004-0.006-0.006-0.013-0.004-0.021l0.014-0.128zM19.594 23.249l-0.064 0.066-0.032-0.030 0.090-0.094c0.007-0.007 0.014-0.011 0.021-0.011s0.013 0.003 0.018 0.008c0.005 0.005 0.008 0.012 0.008 0.019l0.010 0.128 0.064-0.066 0.032 0.030-0.089 0.094c-0.007 0.007-0.014 0.011-0.021 0.011s-0.013-0.003-0.018-0.008c-0.005-0.005-0.008-0.011-0.008-0.019l-0.010-0.128zM19.727 23.478l-0.039-0.028 0.091-0.127 0.039 0.028-0.091 0.127zM19.954 23.496c0.035 0.018 0.046 0.039 0.033 0.065-0.015 0.030-0.043 0.036-0.083 0.015l-0.13-0.066 0.046-0.022 0.105 0.054c0.010 0.005 0.017 0.004 0.020-0.003s0-0.012-0.010-0.017l-0.076-0.039c-0.017-0.009-0.029-0.019-0.034-0.031s-0.004-0.023 0.002-0.035c0.015-0.029 0.042-0.033 0.082-0.013l0.121 0.062-0.046 0.022-0.097-0.049c-0.010-0.005-0.016-0.004-0.020 0.002s0 0.012 0.010 0.017l0.076 0.039zM20.361 23.643l-0.036 0.036-0.078-0.010c-0.027-0.003-0.048-0.014-0.064-0.031s-0.023-0.037-0.020-0.060 0.014-0.040 0.034-0.052c0.019-0.012 0.042-0.016 0.069-0.013l0.109 0.014-0.036 0.037-0.078-0.010c-0.013-0.002-0.024 0-0.034 0.006s-0.015 0.015-0.016 0.026 0.002 0.021 0.010 0.029c0.008 0.008 0.018 0.013 0.031 0.014l0.109 0.013zM20.575 23.629l-0.028 0.042-0.138 0.011-0.012-0.156 0.048-0.004 0.009 0.116 0.121-0.009zM20.807 23.54c0.013 0.045-0.012 0.077-0.075 0.095-0.036 0.010-0.064 0.012-0.084 0.005s-0.032-0.021-0.039-0.044l-0.024-0.085 0.046-0.013 0.024 0.085c0.003 0.012 0.009 0.018 0.017 0.020s0.025-0 0.048-0.007c0.018-0.005 0.029-0.011 0.035-0.017s0.007-0.015 0.004-0.026l-0.024-0.085 0.047-0.013 0.024 0.085zM21.026 23.431c0.007 0.003 0.013 0.009 0.017 0.017 0.014 0.027 0.002 0.050-0.036 0.069l-0.123 0.062-0.043-0.085 0.124-0.063c0.008-0.004 0.011-0.009 0.007-0.015s-0.009-0.007-0.017-0.003l-0.123 0.063 0.011-0.051 0.093-0.047c0.017-0.009 0.032-0.012 0.045-0.011s0.023 0.009 0.029 0.022c0.004 0.008 0.005 0.015 0.004 0.023-0.001 0.006-0.004 0.012-0.008 0.016 0.008-0.002 0.015-0.001 0.021 0.003zM20.9 23.503l0.080-0.040c0.009-0.004 0.015-0.003 0.018 0.003s0.001 0.012-0.008 0.017l-0.079 0.040-0.010-0.019zM21.31 23.21l0.007 0.050-0.096 0.1-0.113-0.108 0.034-0.035 0.084 0.080 0.084-0.088zM21.245 23.105l0.125-0.003-0.047-0.118 0.031-0.048 0.065 0.161c0.005 0.014 0.004 0.026-0.002 0.036s-0.017 0.016-0.031 0.016l-0.172 0.006 0.032-0.050zM21.523 22.926l-0.020 0.044-0.143-0.064 0.020-0.044 0.143 0.064zM21.411 22.784l0.117-0.045-0.085-0.095 0.013-0.056 0.115 0.13c0.009 0.011 0.013 0.023 0.010 0.034s-0.011 0.021-0.024 0.026l-0.16 0.064 0.013-0.058zM19.256 22.395c0.038 0 0.068 0.031 0.068 0.068s-0.031 0.068-0.068 0.068c-0.038 0-0.068-0.031-0.068-0.068s0.031-0.068 0.068-0.068zM21.54 22.395c0.038 0 0.068 0.031 0.068 0.068s-0.031 0.068-0.068 0.068c-0.038 0-0.068-0.031-0.068-0.068s0.031-0.068 0.068-0.068zM21.678 22.463c0-0.707-0.573-1.28-1.28-1.28s-1.28 0.573-1.28 1.28c0 0.707 0.573 1.28 1.28 1.28s1.28-0.573 1.28-1.28z"></path>
</svg>
