<!-- Generated by IcoMoon.io -->
<svg version="1.1" xmlns="http://www.w3.org/2000/svg" width="46" height="32" viewBox="0 0 46 32">
<title>male-dafault</title>
<path fill="#7c91ac" opacity="0.301961" d="M40.181 18.9c0 5.233-2.32 9.923-5.988 13.1h1.423l0.082-0.086 0.090 0.086h2.601l0.202-0.211 0.031 0.211h2.005c2.706-3.664 4.306-8.195 4.306-13.1 0-8.015-4.272-15.033-10.663-18.9h-5.491l0.322 0.094c0.434 0.169 0.697 0.405 0.79 0.709 0.047 0.126 0.049 0.263 0.005 0.412-0.147 0.502-0.57 0.651-1.27 0.446l-2.271-0.663 0.291-0.998h-2.127l-0.702 0.772-0.969-0.039 0.704-0.733h-1.987l0.116 0.688-0.825 0.139-0.139-0.827h-1.304c0.059 0.703-0.311 1.122-1.112 1.257l-0.257 0.043 0.059-0.712 0.083-0.014c0.069-0.012 0.157-0.067 0.266-0.167 0.104-0.090 0.143-0.225 0.119-0.406h-2.417c-0.18 0.284-0.325 0.499-0.435 0.645 0.083 0.020 0.133 0.033 0.152 0.037l0.183 0.051c0.068 0.020 0.149 0.045 0.244 0.076l0.131 0.040 0.143 0.045 1.357 0.436-1.177 0.447-1.011-0.374c-0.304-0.114-0.513-0.196-0.626-0.245l0.038 0.089 0.038 0.089c0.015 0.032 0.029 0.064 0.041 0.096l0.305 0.805-0.783 0.297-0.954-2.517 0.046-0.017h-2.403c-6.391 3.868-10.663 10.885-10.663 18.9 0 4.905 1.601 9.435 4.306 13.1h1.309c-0.031-0.027-0.059-0.058-0.085-0.095-0.070-0.098-0.096-0.217-0.076-0.357l0.246-2.208-1.29 0.922-0.441-0.617 1.821-1.302c0.138-0.098 0.269-0.136 0.395-0.113 0.113 0.024 0.207 0.088 0.28 0.191 0.072 0.101 0.098 0.22 0.077 0.357l-0.246 2.208 1.289-0.922 0.443 0.62-1.817 1.299c-0.008 0.006-0.016 0.011-0.024 0.016h1.409l0.508-0.532c0.117-0.122 0.24-0.184 0.367-0.185 0.116 0.003 0.22 0.048 0.311 0.135 0.089 0.085 0.137 0.198 0.141 0.336l0.019 0.245h1.797c-3.667-3.177-5.987-7.867-5.987-13.1 0-1.799 0.274-3.534 0.783-5.166l10.271 7.159-3.852 11.107h1.466l8.655-6.552 8.655 6.552h1.466l-3.852-11.107 10.272-7.159c0.509 1.631 0.783 3.366 0.783 5.166zM28.31 16.737c-0.516-0.548-1.249-0.89-2.060-0.89-1.013 0-1.901 0.531-2.401 1.33-0.5-0.799-1.389-1.33-2.401-1.33-1.014 0-1.904 0.534-2.404 1.336v-1.154h-1.321c0.977-1.836 2.91-3.086 5.134-3.086 2.5 0 4.632 1.579 5.453 3.795zM17.299 17.049h0.474v4.472h1.271v-1.346c0.5 0.802 1.389 1.335 2.404 1.335 1.012 0 1.9-0.532 2.401-1.33 0.5 0.799 1.388 1.33 2.401 1.33 0.858 0 1.627-0.382 2.146-0.985-0.748 2.345-2.945 4.044-5.538 4.044-3.21 0-5.813-2.602-5.813-5.813 0-0.594 0.089-1.167 0.255-1.707zM20.887 20.382c-0.716-0.235-1.233-0.909-1.233-1.704 0-0.908 0.675-1.658 1.55-1.777 0.062 0.001 0.123 0.003 0.182 0.010 0.075 0.008 0.143 0.023 0.192 0.050 0.041 0.023 0.073 0.057 0.099 0.097 0.033 0.051 0.053 0.111 0.063 0.171 0.009 0.055 0.010 0.108 0.002 0.16s-0.024 0.104-0.047 0.153c-0.025 0.053-0.058 0.106-0.098 0.159-0.041 0.055-0.092 0.114-0.15 0.175-0.056 0.059-0.114 0.117-0.176 0.179-0.074 0.073-0.152 0.151-0.239 0.245-0.079 0.084-0.157 0.172-0.223 0.257-0.071 0.090-0.134 0.182-0.183 0.272-0.050 0.093-0.084 0.182-0.106 0.268s-0.030 0.17-0.032 0.254c-0.002 0.084 0.003 0.166 0.016 0.248s0.033 0.165 0.061 0.253c0.028 0.086 0.065 0.177 0.114 0.266 0.052 0.091 0.116 0.179 0.199 0.257l0.009 0.008zM21.936 16.953c0.753 0.212 1.305 0.905 1.305 1.726 0 0.872-0.622 1.598-1.446 1.76-0.080 0.010-0.165 0.012-0.265-0.014-0.076-0.020-0.163-0.055-0.249-0.101-0.077-0.042-0.151-0.093-0.212-0.151-0.063-0.058-0.11-0.123-0.148-0.19-0.039-0.069-0.068-0.143-0.092-0.215s-0.040-0.141-0.050-0.211c-0.011-0.069-0.015-0.136-0.014-0.2s0.008-0.128 0.024-0.193c0.016-0.065 0.041-0.132 0.079-0.202 0.040-0.073 0.095-0.153 0.158-0.233 0.066-0.085 0.138-0.166 0.207-0.24 0.074-0.078 0.156-0.16 0.233-0.237 0.065-0.065 0.128-0.127 0.182-0.185 0.063-0.067 0.12-0.132 0.169-0.198 0.052-0.068 0.095-0.137 0.128-0.209 0.035-0.075 0.059-0.151 0.071-0.23s0.011-0.162-0.003-0.247c-0.013-0.077-0.038-0.157-0.078-0.23zM25.689 20.382c-0.716-0.235-1.233-0.909-1.233-1.704 0-0.908 0.675-1.658 1.55-1.777 0.062 0.001 0.123 0.003 0.181 0.010 0.076 0.008 0.143 0.023 0.193 0.050 0.041 0.023 0.074 0.057 0.099 0.097 0.033 0.051 0.053 0.111 0.063 0.171 0.009 0.055 0.010 0.108 0.002 0.16s-0.024 0.104-0.047 0.153c-0.025 0.053-0.058 0.106-0.098 0.159-0.042 0.055-0.092 0.114-0.15 0.175-0.056 0.059-0.114 0.117-0.176 0.179-0.074 0.073-0.152 0.151-0.239 0.245-0.079 0.084-0.157 0.172-0.223 0.257-0.071 0.090-0.134 0.182-0.183 0.272-0.050 0.093-0.084 0.182-0.105 0.268s-0.030 0.17-0.032 0.254c-0.001 0.084 0.003 0.166 0.016 0.248s0.033 0.165 0.061 0.253c0.028 0.086 0.064 0.177 0.115 0.266 0.051 0.091 0.116 0.179 0.199 0.257l0.008 0.008zM26.737 16.953c0.753 0.212 1.305 0.905 1.305 1.726 0 0.872-0.622 1.598-1.446 1.76-0.080 0.010-0.165 0.012-0.265-0.014-0.076-0.020-0.163-0.055-0.249-0.101-0.077-0.042-0.151-0.093-0.212-0.151s-0.11-0.123-0.148-0.19c-0.039-0.069-0.069-0.143-0.092-0.215s-0.040-0.141-0.050-0.211c-0.011-0.069-0.015-0.136-0.014-0.2s0.008-0.128 0.024-0.193c0.016-0.065 0.041-0.132 0.079-0.202 0.040-0.073 0.095-0.153 0.158-0.233 0.067-0.085 0.138-0.166 0.207-0.24 0.073-0.078 0.156-0.16 0.233-0.237 0.065-0.065 0.128-0.127 0.183-0.185 0.063-0.067 0.119-0.132 0.169-0.198 0.051-0.068 0.094-0.137 0.127-0.209 0.035-0.075 0.059-0.151 0.071-0.23s0.011-0.162-0.003-0.247c-0.014-0.077-0.039-0.157-0.078-0.23zM6.467 13.277c2.309-6.732 8.648-11.592 16.139-11.698l-3.623 11.944-12.516-0.246zM23.109 1.579c7.49 0.107 13.83 4.966 16.139 11.698l-12.516 0.246-3.623-11.944zM2.824 12.076l0.549 0.692-0.233 0.933 1.933 0.481-0.201 0.808-1.933-0.481-0.305 1.226-0.549-0.692 0.739-2.967zM6.298 9.382l0.402 0.777-1.093 2.349-2.441-1.135 1.315-2.827 0.408 0.784-0.735 1.579 0.292 0.136 0.899-1.933 0.353 0.692-0.697 1.499 0.332 0.154 0.965-2.075zM9.059 6.815l-0.492 0.667-0.836-0.616-0.95 1.289 0.836 0.616-0.497 0.673-2.167-1.598 0.497-0.673 0.768 0.566 0.95-1.288-0.768-0.566 0.492-0.667 2.167 1.598zM10.065 5.89l-0.583 0.595-1.921-1.885 0.583-0.594 1.921 1.885zM12.712 2.864l-0.007 0.875-1.076 0.818c-0.374 0.284-0.76 0.414-1.159 0.391-0.403-0.020-0.724-0.187-0.963-0.501s-0.309-0.661-0.211-1.043c0.095-0.376 0.33-0.705 0.704-0.99l1.502-1.142-0.002 0.881-1.076 0.818c-0.179 0.136-0.292 0.298-0.339 0.485-0.043 0.191-0.007 0.363 0.108 0.514s0.269 0.23 0.462 0.235c0.189 0.005 0.374-0.062 0.555-0.2l1.502-1.143zM14.689-0h0.665l-0.091 0.164c-0.065 0.117-0.127 0.233-0.186 0.35l-0.036 0.065-0.031 0.064c-0.034 0.064-0.052 0.1-0.055 0.106-0.029-0.106-0.080-0.255-0.152-0.446l-0.115-0.304zM27.354 0.568l0.104-0.355 1.472 0.43c0.165 0.048 0.23 0.13 0.197 0.246-0.036 0.121-0.136 0.157-0.301 0.109l-1.471-0.43zM33.743 1.885l-0.419 0.644c-0.445 0.683-1.034 0.786-1.767 0.309l-0.219-0.143 0.526-0.483 0.071 0.046c0.058 0.038 0.161 0.057 0.308 0.057 0.145 0.005 0.271-0.076 0.379-0.243l0.801-1.231 2.475 1.611-1.468 2.256-0.701-0.457 1.086-1.669-1.072-0.698zM34.839 5.065l-0.009-0.009 1.884-1.9 0.589 0.584-0.485 0.488 1 0.992c0.293 0.291 0.46 0.585 0.502 0.883 0.035 0.292-0.052 0.543-0.262 0.755-0.213 0.215-0.466 0.306-0.759 0.273-0.3-0.033-0.596-0.195-0.89-0.486l-1.591-1.578 0.020-0.003zM36.334 4.717l1.057 1.048c0.092 0.091 0.143 0.182 0.155 0.272 0.012 0.087-0.016 0.165-0.084 0.234-0.144 0.145-0.312 0.122-0.504-0.069l-1.057-1.048 0.433-0.437zM40.363 10.145c-0.048 0.125-0.138 0.229-0.27 0.312-0.443 0.277-0.858 0.107-1.246-0.511l-1.256-2.005 1.388-0.869 1.264 2.019c0.083 0.132 0.175 0.165 0.277 0.102 0.098-0.061 0.106-0.158 0.023-0.289l-1.264-2.019 0.892 0.106 0.946 1.511c0.176 0.282 0.261 0.533 0.253 0.753-0.012 0.233-0.12 0.412-0.322 0.539-0.123 0.077-0.25 0.111-0.382 0.102-0.11-0.009-0.207-0.048-0.289-0.113 0.038 0.125 0.033 0.247-0.014 0.365zM38.936 8.085l0.814 1.299c0.091 0.145 0.086 0.25-0.017 0.314-0.107 0.067-0.206 0.027-0.297-0.118l-0.814-1.299 0.314-0.196zM39.892 12.056l-0.326-0.766 2.477-1.055 0.326 0.766-2.477 1.055zM42.197 15.424c-0.083 0.106-0.199 0.178-0.349 0.219-0.506 0.135-0.853-0.149-1.042-0.853l-0.614-2.285 1.581-0.425 0.618 2.3c0.040 0.151 0.119 0.21 0.236 0.179 0.112-0.030 0.147-0.12 0.106-0.27l-0.618-2.301 0.822 0.362 0.462 1.722c0.086 0.321 0.093 0.586 0.022 0.794-0.080 0.219-0.236 0.359-0.466 0.421-0.14 0.037-0.272 0.033-0.395-0.015-0.103-0.041-0.184-0.106-0.243-0.192-0.001 0.13-0.041 0.245-0.12 0.344zM41.435 13.037l0.398 1.48c0.045 0.166 0.009 0.265-0.108 0.296-0.122 0.033-0.205-0.034-0.25-0.199l-0.398-1.481 0.358-0.096zM5.4 24.548l-0.805-0.369-0.217-0.939-1.945 0.449-0.188-0.813 1.945-0.449-0.285-1.234 0.805 0.369 0.69 2.987zM4.963 28.562l-0.853-0.203-1.070-2.366 2.458-1.112 1.288 2.848-0.862-0.203-0.719-1.591-0.294 0.133 0.881 1.948-0.756-0.185-0.683-1.51-0.334 0.151 0.945 2.091zM37.459 29.982l2.163-0.050-0.819-2.035 0.533-0.827 1.115 2.773c0.089 0.234 0.076 0.44-0.039 0.618-0.118 0.183-0.299 0.278-0.543 0.284l-2.966 0.098 0.555-0.861zM42.265 26.884l-0.342 0.762-2.461-1.107 0.342-0.761 2.461 1.106zM40.331 24.446l2.019-0.778-1.458-1.638 0.223-0.959 1.987 2.233c0.163 0.19 0.22 0.388 0.172 0.595-0.049 0.212-0.188 0.362-0.415 0.45l-2.759 1.095 0.232-0.998zM3.159 17.721c0.651 0 1.179 0.528 1.179 1.179s-0.528 1.179-1.179 1.179c-0.651 0-1.179-0.528-1.179-1.179s0.528-1.179 1.179-1.179zM42.557 17.721c0.651 0 1.179 0.528 1.179 1.179s-0.528 1.179-1.179 1.179-1.179-0.528-1.179-1.179c0-0.651 0.528-1.179 1.179-1.179z"></path>
<path fill="#fefefe" d="M31.585 25.012v6.157c0 0.457-0.418 0.831-0.933 0.831h-15.59c-0.51 0-0.932-0.374-0.932-0.831v-6.157c0-0.361 0.26-0.669 0.621-0.783l0.009-0.005 0.030-0.009 3.659-1.359c0.519 1.372 1.672 2.397 2.955 3.136 0.049-0.299 0.19-0.634 0.383-0.941 0.242 1.012 0.26 4.371 0.26 4.371h0.928c0.488-3.092 0-5.264 0-5.264 0.576 0.405 1.099 1.188 1.205 1.834 1.28-0.739 2.432-1.76 2.951-3.127l3.786 1.345c0.387 0.101 0.669 0.422 0.669 0.8z"></path>
<path fill="#e5bb9f" d="M18.479 17.876c-0.132 0.025-0.268-0.005-0.395-0.083-0.349-0.209-0.655-0.759-0.76-1.445-0.1-0.674 0.020-1.294 0.286-1.62 0.096-0.119 0.212-0.198 0.344-0.225l0.017-0.005c0.046-0.008 0.091-0.010 0.134-0.001l0.081 0.010 0.019 0.006c0.099 0.026 0.199 0.082 0.293 0.167 0.292 0.255 0.537 0.75 0.627 1.347 0.142 0.933-0.148 1.76-0.645 1.85z"></path>
<path fill="#e5bb9f" d="M28.33 16.349c-0.118 0.775-0.494 1.38-0.903 1.508-0.084 0.028-0.169 0.036-0.253 0.019-0.495-0.090-0.786-0.917-0.643-1.85 0.086-0.566 0.308-1.041 0.583-1.305 0.099-0.098 0.204-0.167 0.313-0.204 0.086-0.028 0.173-0.036 0.259-0.020l0.018 0.005c0.486 0.103 0.764 0.922 0.626 1.845z"></path>
<path fill="#e5bb9f" d="M25.644 22.409c-0.084 0.092-0.172 0.181-0.265 0.264l-0.092 0.083c-0.040 0.044-0.084 0.084-0.133 0.119-0.052 0.044-0.105 0.088-0.158 0.132-0.299 0.242-0.607 0.444-0.871 0.585-0.136 0.070-0.277 0.145-0.423 0.216-0.232 0.119-0.479 0.242-0.729 0.351 0 0 0.488 2.172 0 5.264v-0.224c0-1.777-0.365-5.040-0.365-5.040-0.273-0.123-0.541-0.255-0.795-0.383-0.123-0.062-0.242-0.123-0.356-0.184-0.269-0.141-0.576-0.344-0.871-0.585-0.053-0.044-0.106-0.087-0.159-0.132-0.11-0.092-0.211-0.189-0.313-0.286l-0.092-0.092-0.022-0.026c0.035-0.018 0.075-0.031 0.114-0.044v-2.309h5.264v2.155c0.088 0.044 0.176 0.088 0.265 0.136z"></path>
<path fill="#f1ccb0" d="M27.538 15.698v0.075c-0.004 0.22-0.013 0.44-0.030 0.659-0.030 0.348-0.071 0.682-0.141 1.007-0.558 2.679-2.436 4.653-4.662 4.653-2.247 0-4.133-2.001-4.679-4.714-0.101-0.515-0.158-1.056-0.158-1.606v-0.075c0-0.414 0.031-0.809 0.088-1.192 0.018-0.141 0.044-0.282 0.070-0.417 0.154-0.77 0.418-1.482 0.77-2.107h0.004c0.954-0.642 2.424-1.24 3.901-1.24 1.473 0 2.951 0.598 3.91 1.24 0.343 0.611 0.602 1.302 0.757 2.045 0.027 0.128 0.040 0.26 0.057 0.387l0.008 0.035 0.009 0.061c0.013 0.074 0.026 0.15 0.036 0.233l0.004 0.035c0.009 0.092 0.017 0.189 0.026 0.281 0.014 0.211 0.030 0.418 0.030 0.638z"></path>
<path fill="#e1eef1" d="M27.517 14.451l-0.024 0.025-0.026 0.020-0.025 0.016-0.005 0.002v0.001c-0.039 0.018-0.089 0.027-0.148 0.027-0.366 0-1.557-1.772-4.586-1.772-2.688 0-3.932 1.394-4.428 1.71l-0.069 0.034c-0.038 0.017-0.067 0.028-0.092 0.028-0.062 0-0.112-0.009-0.157-0.035l-0.003-0.002c-0.208-0.109 0.056-0.565 0.056-1.39 0-0.287 0.116-0.642 0.665-1.049 0.039-0.028 0.079-0.055 0.12-0.083h0.005c0.215-0.145 0.454-0.287 0.716-0.421 0.731-0.373 1.619-0.681 2.541-0.784h0.002c0.106-0.012 0.213-0.021 0.319-0.028h0.002c0.107-0.005 0.215-0.009 0.322-0.009 0.174 0 0.35 0.009 0.524 0.024l0.021 0.002c0.185 0.017 0.366 0.044 0.547 0.077 0.051 0.009 0.1 0.020 0.149 0.030 0.050 0.009 0.099 0.019 0.148 0.031 0.051 0.011 0.1 0.023 0.15 0.036 0.047 0.012 0.094 0.025 0.142 0.038l0.037 0.011c0.315 0.088 0.622 0.193 0.91 0.313 0.097 0.041 0.19 0.081 0.284 0.123 0.047 0.021 0.093 0.043 0.137 0.065 0.046 0.021 0.090 0.044 0.134 0.067 0.044 0.021 0.088 0.044 0.131 0.067 0.044 0.023 0.086 0.046 0.127 0.070 0.167 0.092 0.324 0.188 0.468 0.285 0.041 0.028 0.081 0.055 0.119 0.083 0.555 0.408 0.699 0.783 0.699 1.072 0 0.725 0.234 1.16 0.088 1.315z"></path>
<path fill="#cda68d" d="M28.23 15.048c-0.181 0.18-0.426 0.324-0.692 0.437-0.004-0.088-0.009-0.176-0.015-0.264-0.127-0.086-0.312-0.231-0.51-0.383-0.748-0.575-2.077-1.471-4.335-1.471-2.086 0-3.381 0.764-4.154 1.336-0.273 0.201-0.48 0.377-0.634 0.489-0.009 0.114-0.014 0.229-0.014 0.347-0.176-0.063-0.345-0.151-0.517-0.253 0.056-0.225 0.143-0.417 0.255-0.555 0.093-0.117 0.208-0.195 0.336-0.223l0.011 0.005c0.041 0.022 0.090 0.030 0.146 0.030 0.024 0 0.054-0.011 0.092-0.028l0.003-0.002 0.065-0.032c0.495-0.316 1.741-1.711 4.428-1.711 3.029 0 4.22 1.773 4.587 1.773 0.059 0 0.109-0.009 0.148-0.027v-0.001l0.005-0.002 0.001 0.005 0.009-0.002c0.081-0.024 0.164-0.032 0.245-0.016l0.017 0.005c0.226 0.047 0.405 0.25 0.521 0.544z"></path>
<path fill="#87493f" d="M28.159 14.324c-0.079-0.119-0.058-0.248-0.164-0.35 0.014 0.17 0.021 0.343 0.008 0.516-0.006 0.058-0.016 0.114-0.027 0.171-0.081-0.081-0.176-0.134-0.278-0.157l-0.018-0.005c-0.081-0.016-0.164-0.008-0.244 0.016v-0.001l0.005-0.002 0.025-0.016 0.026-0.020 0.024-0.025c0.146-0.155-0.088-0.589-0.088-1.315 0-0.289-0.144-0.663-0.699-1.072-0.038-0.028-0.079-0.055-0.119-0.083-0.144-0.097-0.301-0.194-0.468-0.285-0.040-0.024-0.083-0.047-0.127-0.070-0.042-0.023-0.086-0.046-0.131-0.067-0.044-0.023-0.088-0.046-0.134-0.067-0.044-0.023-0.090-0.044-0.137-0.065-0.094-0.042-0.186-0.084-0.284-0.123-0.343-0.144-0.709-0.268-1.089-0.362-0.050-0.012-0.099-0.025-0.15-0.036-0.049-0.012-0.099-0.022-0.148-0.031-0.049-0.013-0.1-0.021-0.149-0.030-0.181-0.033-0.362-0.060-0.547-0.077l-0.021-0.002c-0.178-0.017-0.36-0.026-0.539-0.026-0.104 0-0.206 0.003-0.308 0.011h-0.002c-0.094 0.004-0.186 0.010-0.279 0.019h-0.014l-0.026 0.009h-0.002c-0.859 0.264-1.54 0.824-1.879 1.707-0.079-0.434-0.050-0.874 0.147-1.267-0.386 0.19-0.667 0.502-0.866 0.871-0.030-0.149-0.003-0.355 0.056-0.528l0.002-0.003c-0.264 0.135-0.505 0.278-0.722 0.424h-0.002c-0.041 0.028-0.081 0.055-0.12 0.083-0.549 0.407-0.665 0.762-0.665 1.049 0 0.825-0.264 1.281-0.056 1.39-0.132 0.027-0.248 0.106-0.344 0.225-0.084-0.285-0.116-0.589-0.093-0.873-0.048-0.083-0.079-0.173-0.088-0.27-0.085 0.122-0.157 0.25-0.213 0.384-0.22-0.877 0.443-1.871 0.838-2.361 0.6-0.718 1.614-1.672 2.464-2.008 0.644-0.313 1.294-0.459 1.909-0.459 0.858 0 1.649 0.283 2.267 0.8 0.223 0.185 0.42 0.408 0.579 0.672 0.058-0.032 0.137-0.049 0.229-0.056 0.452-0.038 1.125 0.148 1.74 0.831 0.537 0.6 0.965 1.561 0.965 2.445 0 0.167-0.014 0.331-0.047 0.489z"></path>
<path fill="#87493f" d="M27.436 14.511l0.030-0.016-0.025 0.016-0.005 0.002z"></path>
<path fill="#87493f" d="M27.466 14.495l0.051-0.045z"></path>
<path fill="#87493f" d="M24.384 10.98l0.037 0.011c-0.060-0.017-0.119-0.034-0.179-0.049 0.047 0.012 0.094 0.025 0.142 0.038z"></path>
<path fill="#87493f" d="M27.517 14.451c0.105-0.117 0.137-0.355 0.148-0.758 0.005-0.145 0.005-0.312 0.005-0.502 0-0.148-0.093-0.331-0.264-0.528-0.132-0.157-0.311-0.321-0.53-0.488-0.084-0.063-0.175-0.128-0.271-0.193l-0.038-0.025c-0.052-0.035-0.106-0.071-0.162-0.102-0.317-0.195-0.678-0.383-1.070-0.548-0.069-0.030-0.139-0.058-0.211-0.084-0.172-0.067-0.352-0.129-0.535-0.185-0.055-0.017-0.111-0.033-0.167-0.047 0.841 0.232 1.611 0.603 2.19 0.991 0.655 0.44 1.065 0.901 1.065 1.209 0 0.724-0.011 1.105-0.158 1.26z"></path>
<path fill="#ef7c1b" d="M22.608 24.159c-0.308 0.216-0.598 0.537-0.818 0.889l-0.005 0.004c-0.193 0.307-0.334 0.642-0.383 0.941-1.283-0.739-2.436-1.764-2.955-3.136 0.269-0.492 0.608-0.822 1.078-1.011 0.115 0.211 0.282 0.422 0.475 0.624l0.022 0.026 0.092 0.092c0.101 0.097 0.203 0.194 0.313 0.286 0.052 0.044 0.106 0.088 0.159 0.132 0.295 0.242 0.602 0.444 0.871 0.585 0.114 0.061 0.233 0.123 0.356 0.184 0.254 0.128 0.523 0.259 0.795 0.383z"></path>
<path fill="#ef7c1b" d="M27.134 22.857l-0.004 0.009c-0.519 1.367-1.671 2.388-2.951 3.127-0.106-0.646-0.629-1.43-1.205-1.834 0.251-0.11 0.497-0.233 0.729-0.351 0.146-0.070 0.287-0.145 0.423-0.216 0.264-0.141 0.572-0.344 0.871-0.585 0.052-0.044 0.106-0.087 0.158-0.132 0.049-0.035 0.093-0.075 0.133-0.119l0.092-0.083c0.093-0.083 0.181-0.172 0.265-0.264 0.167-0.184 0.307-0.373 0.413-0.562 0.471 0.189 0.809 0.519 1.077 1.011z"></path>
<path fill="#cf6426" d="M22.974 29.199v0.224h-0.928c0 0-0.017-3.36-0.26-4.371l0.005-0.004c0.22-0.352 0.51-0.672 0.818-0.889 0 0 0.365 3.263 0.365 5.040z"></path>
<path fill="#ef7c1b" d="M24.11 26.578c0 0.162-0.131 0.293-0.293 0.293s-0.294-0.131-0.294-0.293c0-0.162 0.131-0.293 0.294-0.293s0.293 0.131 0.293 0.293z"></path>
<path fill="#ef7c1b" d="M24.018 28.19c0 0.162-0.132 0.294-0.294 0.294s-0.293-0.132-0.293-0.294c0-0.162 0.131-0.293 0.293-0.293s0.294 0.132 0.294 0.293z"></path>
<path fill="#cf6426" d="M20.115 21.714v0.713c-0.039 0.013-0.079 0.026-0.114 0.044-0.193-0.203-0.36-0.414-0.475-0.624 0.123-0.066 0.356-0.119 0.589-0.133z"></path>
<path fill="#cf6426" d="M26.056 21.846c-0.106 0.189-0.246 0.378-0.413 0.562-0.089-0.048-0.177-0.092-0.265-0.136v-0.638c0.238 0.031 0.467 0.101 0.677 0.212z"></path>
<path fill="#594364" d="M14.744 24.231v0c0.002-0 0.003-0.001 0.005-0.002l0.001-0h-0.001l-0.001 0-0.004 0.001zM14.753 24.228l0.003-0.002 0.003-0.002 0.030-0.009 3.659-1.359c0-0 0-0.001 0.001-0.001l0-0c-0 0.001-0 0.001-0.001 0.001l-3.695 1.371z"></path>
<path fill="#cdced2" d="M19.104 25.692c-1.671 0-3.819-0.34-4.361-1.458 0.001-0 0.001-0 0.002-0.001v-0.001c0.002-0 0.003-0.001 0.005-0.002l0.001-0h0.001l0.002-0.001 0.006-0.003 0.030-0.009 3.659-1.359c0.425 1.123 1.274 2.013 2.271 2.704l-0.003 0.001c-0.383 0.077-0.961 0.129-1.613 0.129z"></path>
<path fill="#594364" d="M19.672 21.788c0.104-0.032 0.231-0.056 0.364-0.069 0.026-0.002 0.052-0.004 0.078-0.006v0.001c-0.159 0.009-0.318 0.037-0.442 0.074z"></path>
<path fill="#b6907d" d="M21.991 23.866c-0.047-0.023-0.094-0.047-0.14-0.070-0.010-0.005-0.021-0.011-0.031-0.016-0 0-0 0-0.001 0-0.002-0.001-0.005-0.002-0.007-0.003-0.123-0.062-0.242-0.123-0.356-0.184-0.269-0.141-0.576-0.344-0.871-0.585-0.053-0.044-0.106-0.087-0.159-0.132-0.11-0.092-0.211-0.189-0.313-0.286l-0.092-0.092-0.022-0.026c0.035-0.018 0.075-0.031 0.114-0.044v-0.714c0.001 0 0.002 0 0.003 0v-0.6c0.748 0.62 1.635 0.979 2.587 0.979 0.988 0 1.908-0.389 2.674-1.057v0.961c-0.785 1.185-1.939 1.725-3.388 1.869z"></path>
<path fill="#bd9f89" d="M22.705 22.092c-0.952 0-1.839-0.359-2.587-0.979v-0.001c0.747 0.622 1.635 0.98 2.586 0.98 0.987 0 1.909-0.389 2.675-1.057v0.002c-0.766 0.667-1.686 1.057-2.674 1.057z"></path>
<path fill="#c16228" d="M20.719 25.562c-0.998-0.692-1.847-1.581-2.271-2.704v0c0-0.001 0-0.001 0.001-0.001l0.002-0.001c0.265-0.49 0.606-0.821 1.076-1.008 0.114 0.21 0.281 0.421 0.474 0.624v0l0.022 0.026 0.092 0.092c0.101 0.097 0.203 0.194 0.313 0.286 0.052 0.044 0.106 0.088 0.159 0.132 0.295 0.242 0.602 0.444 0.871 0.585 0.114 0.061 0.233 0.123 0.356 0.184 0.002 0.001 0.005 0.003 0.007 0.003-0.602 0.431-0.998 1.061-1.096 1.78l-0.005 0.001zM21.991 23.866c-0.048-0.023-0.094-0.046-0.14-0.070 0.046 0.023 0.093 0.047 0.14 0.070h-0z"></path>
<path fill="#a45427" d="M20 22.471c-0.193-0.202-0.36-0.414-0.474-0.624 0-0 0.001-0.001 0.002-0.001 0.015-0.009 0.032-0.017 0.050-0.025 0.028-0.011 0.060-0.023 0.094-0.033 0.124-0.038 0.283-0.065 0.442-0.074v0.713c-0.039 0.013-0.079 0.026-0.114 0.044v0z"></path>
<path fill="#87493f" d="M19.349 13.687c-0.237 0.301-0.428 0.637-0.533 1-0.030-0.197-0.041-0.406-0.030-0.605 0.158-0.122 0.344-0.257 0.563-0.395z"></path>
<path fill="#87493f" d="M26.417 14.247c-0.094-0.158-0.293-0.25-0.456-0.338 0.009 0.148-0.002 0.296-0.021 0.447-0.063-0.121-0.135-0.236-0.222-0.34-0.222-0.255-0.507-0.419-0.792-0.586 0.014 0.176 0.003 0.347-0.045 0.518-0.279-0.528-0.701-0.775-1.181-1.109 0.442 0.061 0.834 0.164 1.181 0.287 0.405 0.143 0.749 0.315 1.041 0.491 0.175 0.102 0.33 0.206 0.466 0.305 0.021 0.105 0.034 0.223 0.029 0.325z"></path>
<path fill="#fefefe" d="M27.012 15.612c0 0.164-0.132 0.297-0.297 0.297-0.164 0-0.297-0.133-0.297-0.297s0.133-0.297 0.297-0.297c0.165 0 0.297 0.133 0.297 0.297z"></path>
<path fill="#fefefe" d="M26.815 14.89c0 0.089-0.071 0.161-0.16 0.161s-0.161-0.072-0.161-0.161c0-0.089 0.072-0.161 0.161-0.161s0.16 0.072 0.16 0.161z"></path>
<path fill="#c3bec3" d="M30.652 32h-15.59c-0.51 0-0.932-0.374-0.932-0.831v-6.157c0-0.358 0.256-0.664 0.612-0.78 0 0 0 0.001 0.001 0.001-0.357 0.113-0.612 0.423-0.612 0.777v6.158c0 0.457 0.422 0.832 0.931 0.832h15.592c0.159 0 0.311-0.036 0.444-0.1-0.132 0.064-0.284 0.101-0.445 0.101z"></path>
<path fill="#ac8572" d="M18.128 17.818c-0.015-0.008-0.030-0.016-0.044-0.025-0.349-0.209-0.655-0.759-0.76-1.445-0.1-0.674 0.020-1.294 0.286-1.62v0c0.001-0.001 0.002-0.002 0.002-0.003 0 0 0 0 0 0.001-0.027 0.034-0.055 0.071-0.075 0.112-0.055 0.082-0.095 0.177-0.129 0.28-0.020 0.051-0.038 0.106-0.048 0.164-0.079 0.303-0.092 0.675-0.034 1.064 0.106 0.685 0.409 1.238 0.76 1.445l0.041 0.024c0 0.001 0 0.001 0.001 0.003z"></path>
<path fill="#b6927e" d="M20.118 21.112c-0.001-0.001-0.002-0.002-0.003-0.002v0.001c-0.919-0.764-1.628-1.922-1.987-3.292-0-0.001-0-0.002-0.001-0.003l0.006 0.004c0.358 1.37 1.064 2.526 1.985 3.29v0.002z"></path>
<path fill="#653c35" d="M17.609 14.729v0c-0.082-0.278-0.114-0.576-0.094-0.854-0.017 0.277 0.014 0.576 0.097 0.851-0.001 0.001-0.002 0.002-0.002 0.003zM17.215 13.971c-0.22-0.877 0.443-1.871 0.838-2.361 0.098-0.117 0.207-0.241 0.324-0.367l0.056-0.056c-0.14 0.147-0.266 0.29-0.379 0.423-0.395 0.488-1.057 1.483-0.839 2.359-0 0.001-0 0.001-0.001 0.001zM17.516 13.856c-0.048-0.082-0.079-0.171-0.088-0.268 0.001-0.001 0.002-0.002 0.002-0.004 0.006 0.099 0.037 0.188 0.085 0.269 0 0.001 0 0.001 0 0.002z"></path>
<path fill="#b75d28" d="M19.299 21.954c0.072-0.040 0.147-0.076 0.226-0.108v0c0 0 0 0 0 0s-0 0.001-0.001 0.001c-0.079 0.032-0.154 0.067-0.226 0.107z"></path>
<path fill="#9d4d27" d="M19.526 21.846c0 0 0 0-0 0v0c0.020-0.011 0.042-0.021 0.067-0.031-0.005 0.002-0.010 0.004-0.014 0.006-0.019 0.008-0.037 0.016-0.052 0.025z"></path>
<path fill="#48374d" d="M14.742 24.232c0-0 0-0-0-0.001l0.003-0.001v0c-0.001 0-0.002 0.001-0.003 0.001z"></path>
<path fill="#97949a" d="M14.742 24.233c-0-0-0-0.001-0.001-0.001 0.001-0 0.002-0.001 0.003-0.001v0.001c-0.001 0-0.001 0-0.002 0.001z"></path>
<path fill="#48374d" d="M14.75 24.229h-0.001l0.006-0.003-0.003 0.002z"></path>
<path fill="#97949a" d="M14.751 24.229h-0.001l0.003-0.001z"></path>
<path fill="#48374d" d="M18.448 22.856c0.223-0.41 0.495-0.706 0.851-0.902-0.356 0.197-0.627 0.494-0.851 0.902l-0 0z"></path>
<path fill="#924c26" d="M18.448 22.856c0.223-0.408 0.495-0.705 0.851-0.902 0.072-0.040 0.147-0.075 0.226-0.107 0 0 0-0.001 0.001-0.001s0 0.001 0 0.001c-0.47 0.188-0.81 0.518-1.076 1.008l-0.002 0.001z"></path>
<path fill="#7d4324" d="M19.526 21.847c-0-0-0-0-0-0.001 0.016-0.008 0.033-0.017 0.052-0.025-0.018 0.008-0.035 0.016-0.050 0.025-0.001 0-0.001 0.001-0.002 0.001z"></path>
<path fill="#48374d" d="M20.037 21.719c0.026-0.002 0.052-0.004 0.078-0.006v0c-0.026 0.002-0.052 0.004-0.078 0.006z"></path>
<path fill="#87685d" d="M20.115 21.713v-0.603c0.001 0.001 0.002 0.002 0.003 0.003v0.6c-0.001 0-0.002 0-0.003 0z"></path>
<path fill="#8e7266" d="M20.118 21.113c-0.001-0.001-0.002-0.002-0.003-0.003v-0.001c0.001 0.001 0.002 0.002 0.003 0.002v0.001z"></path>
<path fill="#87d923" d="M30.575 29.804c0 0.47-0.226 0.887-0.575 1.149l-0.341-0.983 0.851-0.593c0.042 0.135 0.065 0.279 0.065 0.428zM29.592 29.625c-0.043-0.045-0.103-0.074-0.171-0.074-0.084 0-0.157 0.044-0.199 0.11-0.042-0.066-0.115-0.11-0.199-0.11s-0.158 0.044-0.199 0.111v-0.096h-0.109c0.081-0.152 0.241-0.256 0.425-0.256 0.207 0 0.384 0.131 0.451 0.314zM28.68 29.651h0.039v0.37h0.105v-0.112c0.042 0.067 0.115 0.111 0.199 0.111s0.157-0.044 0.199-0.11c0.041 0.066 0.115 0.11 0.199 0.11 0.071 0 0.135-0.032 0.178-0.082-0.062 0.194-0.244 0.335-0.459 0.335-0.266 0-0.482-0.215-0.482-0.481 0-0.049 0.007-0.097 0.021-0.141zM28.977 29.927c-0.059-0.020-0.102-0.075-0.102-0.141 0-0.075 0.056-0.137 0.128-0.147 0.005 0 0.010 0 0.015 0.001 0.006 0.001 0.012 0.002 0.016 0.004s0.006 0.005 0.008 0.008c0.003 0.004 0.004 0.009 0.005 0.014s0.001 0.009 0 0.013c-0.001 0.004-0.002 0.009-0.004 0.013s-0.005 0.009-0.008 0.013c-0.003 0.005-0.008 0.009-0.012 0.014s-0.009 0.010-0.015 0.015c-0.006 0.006-0.013 0.013-0.020 0.020s-0.013 0.014-0.018 0.021c-0.006 0.007-0.011 0.015-0.015 0.022s-0.007 0.015-0.009 0.022c-0.002 0.007-0.002 0.014-0.003 0.021s0 0.014 0.001 0.021c0.001 0.007 0.003 0.014 0.005 0.021s0.005 0.015 0.009 0.022 0.010 0.015 0.016 0.021l0.001 0.001zM29.064 29.643c0.062 0.018 0.108 0.075 0.108 0.143 0 0.072-0.052 0.132-0.12 0.146-0.007 0.001-0.014 0.001-0.022-0.001-0.006-0.002-0.014-0.005-0.021-0.008s-0.013-0.008-0.017-0.013c-0.005-0.005-0.009-0.010-0.012-0.016s-0.006-0.012-0.007-0.018c-0.002-0.006-0.003-0.012-0.004-0.017s-0.001-0.011-0.001-0.017c0-0.005 0.001-0.011 0.002-0.016s0.003-0.011 0.007-0.017c0.003-0.006 0.008-0.013 0.013-0.019s0.011-0.014 0.017-0.020c0.006-0.006 0.013-0.013 0.019-0.020s0.011-0.011 0.015-0.015c0.005-0.005 0.010-0.011 0.014-0.016s0.008-0.011 0.011-0.017c0.003-0.006 0.005-0.013 0.006-0.019s0.001-0.014-0-0.020c-0.001-0.006-0.003-0.013-0.006-0.019zM29.375 29.927c-0.059-0.020-0.102-0.075-0.102-0.141 0-0.075 0.056-0.137 0.128-0.147 0.005 0 0.010 0 0.015 0.001 0.006 0.001 0.012 0.002 0.016 0.004s0.006 0.005 0.008 0.008c0.003 0.004 0.004 0.009 0.005 0.014s0.001 0.009 0 0.013c-0.001 0.004-0.002 0.009-0.004 0.013s-0.005 0.009-0.008 0.013c-0.003 0.005-0.008 0.009-0.012 0.014s-0.009 0.010-0.015 0.015c-0.006 0.006-0.013 0.013-0.020 0.020s-0.013 0.014-0.019 0.021c-0.006 0.007-0.011 0.015-0.015 0.022s-0.007 0.015-0.009 0.022c-0.002 0.007-0.002 0.014-0.003 0.021s0 0.014 0.001 0.021c0.001 0.007 0.003 0.014 0.005 0.021s0.005 0.015 0.009 0.022 0.010 0.015 0.016 0.021l0.001 0.001zM29.462 29.643c0.062 0.018 0.108 0.075 0.108 0.143 0 0.072-0.052 0.132-0.12 0.146-0.007 0.001-0.014 0.001-0.022-0.001-0.006-0.002-0.014-0.005-0.021-0.008s-0.013-0.008-0.017-0.013c-0.005-0.005-0.009-0.010-0.012-0.016s-0.006-0.012-0.007-0.018c-0.002-0.006-0.003-0.012-0.004-0.017s-0.001-0.011-0.001-0.017c0-0.005 0.001-0.011 0.002-0.016s0.003-0.011 0.007-0.017c0.003-0.006 0.008-0.013 0.013-0.019s0.011-0.014 0.017-0.020c0.006-0.006 0.013-0.013 0.019-0.020s0.011-0.011 0.015-0.015c0.005-0.005 0.010-0.011 0.014-0.016s0.008-0.011 0.011-0.017c0.003-0.006 0.005-0.013 0.006-0.019s0.001-0.014-0-0.020c-0.001-0.006-0.003-0.013-0.006-0.019zM29.97 30.975c-0.234 0.166-0.521 0.264-0.83 0.264s-0.596-0.098-0.83-0.264l0.83-0.628 0.83 0.628zM28.28 30.953c-0.349-0.262-0.575-0.679-0.575-1.149 0-0.149 0.023-0.293 0.065-0.428l0.851 0.593-0.341 0.983zM27.782 29.339c0.191-0.558 0.716-0.96 1.337-0.969l-0.3 0.989-1.037-0.020zM29.161 28.37c0.62 0.009 1.146 0.411 1.337 0.969l-1.037 0.020-0.3-0.989zM27.481 29.239l0.046 0.057-0.019 0.077 0.16 0.040-0.017 0.067-0.16-0.040-0.025 0.102-0.045-0.057 0.061-0.246zM27.768 29.016l0.033 0.064-0.091 0.194-0.202-0.094 0.109-0.234 0.034 0.065-0.061 0.131 0.024 0.011 0.075-0.16 0.029 0.057-0.058 0.124 0.027 0.013 0.080-0.172zM27.997 28.804l-0.041 0.055-0.069-0.051-0.079 0.107 0.069 0.051-0.041 0.056-0.18-0.132 0.041-0.056 0.064 0.047 0.079-0.107-0.064-0.047 0.041-0.055 0.179 0.133zM28.081 28.727l-0.048 0.049-0.159-0.156 0.048-0.049 0.159 0.156zM28.3 28.476l-0.001 0.072-0.089 0.068c-0.031 0.023-0.063 0.034-0.096 0.032s-0.060-0.015-0.080-0.042c-0.020-0.026-0.026-0.055-0.017-0.086s0.027-0.058 0.058-0.082l0.125-0.095-0 0.073-0.089 0.068c-0.015 0.011-0.024 0.025-0.028 0.040s-0.001 0.030 0.009 0.043 0.022 0.019 0.038 0.020c0.016 0 0.031-0.005 0.046-0.017l0.125-0.095zM28.732 28.349l-0.098 0.037-0.084-0.031c-0.025-0.009-0.042-0.016-0.052-0.020l0.006 0.015c0.001 0.003 0.003 0.005 0.003 0.008l0.025 0.067-0.065 0.025-0.079-0.209 0.065-0.025 0.018 0.048c0.006 0.016 0.010 0.028 0.013 0.037 0-0.001 0.002-0.003 0.004-0.009l0.003-0.005 0.003-0.005c0.005-0.010 0.010-0.019 0.015-0.029l0.041-0.074 0.093-0.035-0.057 0.090c-0.016 0.026-0.030 0.046-0.039 0.059 0.007 0.002 0.011 0.003 0.013 0.003l0.008 0.002 0.008 0.002c0.005 0.002 0.012 0.004 0.020 0.006l0.011 0.003 0.124 0.040zM28.843 28.162l0.011 0.063c0.011 0.067-0.019 0.106-0.090 0.118l-0.021 0.004 0.005-0.059 0.007-0.001c0.006-0.001 0.013-0.006 0.022-0.014s0.012-0.020 0.009-0.036l-0.020-0.12 0.241-0.041 0.037 0.22-0.068 0.011-0.027-0.163-0.105 0.018zM29.415 28.088l-0.196 0.215-0.080-0.003 0.069-0.071-0.13-0.154 0.089 0.004 0.051 0.064c0.001 0.001 0.001 0.002 0.003 0.003s0.003 0.003 0.004 0.005l0.004 0.005 0.004 0.006c0.008 0.010 0.013 0.016 0.014 0.017 0.002-0.002 0.005-0.006 0.009-0.011 0.006-0.007 0.012-0.014 0.020-0.023l0.053-0.060 0.087 0.003zM29.716 28.233l-0.24-0.070 0.061-0.043 0.221 0.065-0.042 0.048zM29.657 28.247c0.036 0.014 0.058 0.034 0.066 0.059 0.004 0.010 0.004 0.022 0 0.034-0.012 0.042-0.047 0.054-0.105 0.037l-0.188-0.055 0.038-0.13 0.189 0.055zM29.513 28.286l0.009-0.030 0.122 0.036c0.014 0.004 0.019 0.011 0.016 0.020s-0.011 0.013-0.025 0.009l-0.122-0.036zM30.042 28.395l-0.035 0.053c-0.037 0.056-0.086 0.065-0.146 0.026l-0.018-0.012 0.044-0.040 0.006 0.004c0.005 0.003 0.013 0.005 0.026 0.005s0.022-0.006 0.031-0.020l0.066-0.102 0.205 0.133-0.122 0.187-0.058-0.038 0.090-0.138-0.089-0.058zM30.133 28.659l-0.001-0.001 0.156-0.157 0.049 0.048-0.040 0.040 0.083 0.082c0.024 0.024 0.038 0.048 0.042 0.073s-0.004 0.045-0.022 0.063c-0.018 0.018-0.039 0.025-0.063 0.023s-0.049-0.016-0.074-0.040l-0.132-0.131 0.002-0zM30.256 28.63l0.087 0.087c0.008 0.007 0.012 0.015 0.013 0.022s-0.001 0.014-0.007 0.020c-0.012 0.012-0.026 0.010-0.042-0.006l-0.087-0.087 0.036-0.036zM30.59 29.079c-0.004 0.010-0.011 0.019-0.022 0.026-0.037 0.023-0.071 0.009-0.103-0.042l-0.104-0.166 0.115-0.072 0.105 0.167c0.007 0.011 0.014 0.014 0.023 0.008s0.009-0.013 0.002-0.024l-0.105-0.167 0.074 0.009 0.078 0.125c0.015 0.023 0.022 0.044 0.021 0.062-0.001 0.019-0.010 0.034-0.027 0.045-0.010 0.006-0.021 0.009-0.032 0.008-0.009-0.001-0.017-0.004-0.024-0.009 0.003 0.010 0.003 0.020-0.001 0.030zM30.472 28.909l0.067 0.108c0.008 0.012 0.007 0.021-0.001 0.026s-0.017 0.002-0.025-0.010l-0.067-0.108 0.026-0.016zM30.551 29.238l-0.027-0.063 0.205-0.087 0.027 0.063-0.205 0.087zM30.742 29.517c-0.007 0.009-0.016 0.015-0.029 0.018-0.042 0.011-0.071-0.012-0.086-0.071l-0.051-0.189 0.131-0.035 0.051 0.19c0.003 0.013 0.010 0.017 0.020 0.015s0.012-0.010 0.009-0.022l-0.051-0.191 0.068 0.030 0.038 0.143c0.007 0.027 0.008 0.048 0.002 0.066s-0.020 0.030-0.039 0.035c-0.011 0.003-0.022 0.003-0.033-0.001-0.009-0.003-0.015-0.009-0.020-0.016-0 0.011-0.003 0.020-0.010 0.029zM30.679 29.319l0.033 0.123c0.004 0.014 0.001 0.022-0.009 0.024s-0.017-0.003-0.021-0.016l-0.033-0.123 0.030-0.008zM27.694 30.272l-0.067-0.031-0.018-0.078-0.161 0.037-0.015-0.067 0.161-0.037-0.023-0.102 0.067 0.031 0.057 0.247zM27.658 30.605l-0.071-0.017-0.089-0.196 0.204-0.092 0.107 0.236-0.071-0.017-0.060-0.132-0.024 0.011 0.073 0.161-0.063-0.015-0.056-0.125-0.028 0.013 0.078 0.173zM27.784 30.669l-0.107 0.076-0.036-0.051 0.151-0.108c0.011-0.008 0.022-0.011 0.033-0.009 0.009 0.002 0.017 0.007 0.023 0.016s0.008 0.018 0.006 0.030l-0.020 0.183 0.107-0.076 0.037 0.051-0.151 0.108c-0.011 0.008-0.022 0.011-0.033 0.009s-0.017-0.007-0.024-0.016c-0.006-0.008-0.008-0.018-0.006-0.030l0.020-0.183zM27.991 30.928l-0.091 0.095-0.046-0.043 0.128-0.134c0.010-0.010 0.020-0.015 0.030-0.015s0.018 0.004 0.026 0.011 0.011 0.016 0.012 0.028l0.014 0.184 0.091-0.095 0.046 0.044-0.128 0.134c-0.010 0.010-0.020 0.015-0.030 0.015s-0.018-0.004-0.026-0.011c-0.007-0.007-0.011-0.016-0.012-0.028l-0.014-0.183zM28.181 31.255l-0.056-0.040 0.13-0.182 0.056 0.040-0.13 0.182zM28.506 31.281c0.050 0.025 0.065 0.056 0.047 0.092-0.022 0.044-0.062 0.051-0.119 0.022l-0.186-0.094 0.066-0.031 0.151 0.077c0.014 0.007 0.024 0.006 0.029-0.004s0-0.018-0.014-0.025l-0.108-0.055c-0.025-0.013-0.041-0.028-0.048-0.045-0.007-0.016-0.006-0.033 0.003-0.050 0.021-0.041 0.060-0.048 0.117-0.019l0.173 0.088-0.066 0.032-0.138-0.070c-0.014-0.007-0.023-0.006-0.028 0.003s0 0.018 0.014 0.025l0.108 0.055zM29.087 31.491l-0.051 0.052-0.112-0.014c-0.039-0.005-0.069-0.020-0.091-0.044s-0.032-0.053-0.028-0.086 0.020-0.057 0.048-0.074c0.028-0.017 0.061-0.023 0.099-0.018l0.155 0.019-0.051 0.052-0.111-0.014c-0.019-0.002-0.035 0.001-0.048 0.009s-0.021 0.021-0.023 0.037 0.003 0.029 0.014 0.041c0.011 0.011 0.026 0.018 0.044 0.020l0.155 0.019zM29.393 31.47l-0.040 0.061-0.197 0.015-0.017-0.223 0.069-0.005 0.013 0.166 0.173-0.013zM29.725 31.344c0.018 0.065-0.017 0.11-0.107 0.135-0.051 0.015-0.091 0.017-0.12 0.007s-0.046-0.030-0.056-0.063l-0.034-0.121 0.066-0.019 0.034 0.121c0.005 0.016 0.013 0.026 0.025 0.029s0.035-0 0.069-0.010c0.025-0.007 0.042-0.015 0.050-0.025s0.010-0.021 0.005-0.036l-0.034-0.121 0.067-0.019 0.034 0.121zM30.037 31.188c0.010 0.005 0.018 0.013 0.024 0.025 0.020 0.039 0.002 0.072-0.052 0.099l-0.175 0.089-0.061-0.121 0.177-0.089c0.011-0.006 0.015-0.013 0.010-0.022s-0.012-0.010-0.024-0.004l-0.176 0.089 0.015-0.073 0.132-0.067c0.025-0.012 0.046-0.017 0.064-0.015 0.019 0.003 0.033 0.013 0.042 0.031 0.005 0.011 0.007 0.021 0.006 0.032-0.002 0.009-0.005 0.017-0.012 0.023 0.011-0.002 0.021-0.001 0.030 0.004zM29.857 31.291l0.114-0.057c0.013-0.007 0.021-0.005 0.026 0.004s0.001 0.017-0.012 0.024l-0.114 0.057-0.014-0.027zM30.443 30.872l0.011 0.072-0.136 0.143-0.162-0.154 0.048-0.050 0.12 0.115 0.12-0.125zM30.35 30.722l0.179-0.004-0.068-0.169 0.044-0.069 0.092 0.23c0.007 0.019 0.006 0.036-0.003 0.051s-0.025 0.023-0.045 0.023l-0.246 0.008 0.046-0.071zM30.748 30.466l-0.028 0.063-0.204-0.092 0.028-0.063 0.204 0.092zM30.587 30.264l0.167-0.064-0.121-0.136 0.018-0.079 0.165 0.185c0.014 0.016 0.018 0.032 0.014 0.049s-0.015 0.030-0.034 0.037l-0.229 0.091 0.019-0.083zM27.509 29.707c0.054 0 0.098 0.044 0.098 0.098s-0.044 0.098-0.098 0.098c-0.054 0-0.098-0.044-0.098-0.098s0.044-0.098 0.098-0.098zM30.772 29.707c0.054 0 0.098 0.044 0.098 0.098s-0.044 0.098-0.098 0.098c-0.054 0-0.098-0.044-0.098-0.098s0.044-0.098 0.098-0.098zM30.969 29.804c0-1.010-0.819-1.828-1.828-1.828s-1.829 0.819-1.829 1.828 0.819 1.829 1.829 1.829c1.010 0 1.828-0.819 1.828-1.829z"></path>
</svg>
