<svg aria-hidden="true" style="position: absolute; width: 0; height: 0; overflow: hidden;" version="1.1" xmlns="http://www.w3.org/2000/svg" xmlns:xlink="http://www.w3.org/1999/xlink">
<defs>

<symbol id="logo-outer-part" viewBox="0 0 32 32" fill="var(--primary-white-color)">
<path d="M15.984 11.964c1.962 0 3.577 1.361 3.988 3.197-0.285-0.665-0.95-1.139-1.709-1.139-0.665 0-1.234 0.38-1.583 0.918-0.317-0.538-0.886-0.918-1.583-0.918-0.76 0-1.424 0.506-1.709 1.203v-0.981h-1.044c0.665-1.329 2.057-2.279 3.64-2.279zM15.984 31.050c-8.293 0-15.035-6.742-15.035-15.066 0-8.293 6.742-15.035 15.035-15.035 8.324 0 15.066 6.742 15.066 15.035 0 8.324-6.742 15.066-15.066 15.066zM32 15.984c0-8.831-7.153-15.984-16.016-15.984-8.831 0-15.984 7.153-15.984 15.984 0 8.863 7.153 16.016 15.984 16.016 8.863 0 16.016-7.153 16.016-16.016zM15.984 26.714c-5.887 0-10.698-4.811-10.698-10.73 0-5.887 4.811-10.698 10.698-10.698 5.919 0 10.73 4.811 10.73 10.698 0 5.919-4.811 10.73-10.73 10.73zM15.984 27.505c6.362 0 11.521-5.159 11.521-11.521 0-6.33-5.159-11.49-11.521-11.49-6.33 0-11.49 5.159-11.49 11.49 0 6.362 5.159 11.521 11.49 11.521zM18.358 14.655c0.38 0.158 0.19 0.601-0.158 0.886-0.411 0.348-0.665 0.95-0.127 1.393 0.253 0.222 0.665 0.19 0.981-0.063 0.886-0.728 0.443-2.057-0.696-2.216zM18.137 17.124c-0.601-0.222-0.696-1.171 0.063-1.741 0.696-0.506-0.032-1.076-0.728-0.475-0.918 0.76-0.475 2.057 0.665 2.216zM15.225 14.655c0.38 0.158 0.158 0.601-0.158 0.886-0.443 0.348-0.696 0.95-0.127 1.393 0.253 0.222 0.665 0.19 0.95-0.063 0.918-0.728 0.475-2.057-0.665-2.216zM15.003 17.124c-0.601-0.222-0.728-1.171 0.063-1.741 0.665-0.506-0.032-1.076-0.728-0.475-0.918 0.76-0.475 2.057 0.665 2.216zM20.036 16.491c-0.253 1.994-1.962 3.545-4.051 3.545-2.216 0-4.051-1.804-4.051-4.051 0-0.411 0.063-0.791 0.19-1.171v0h0.665l-0.032 2.817h0.633v-1.044c0.285 0.696 0.95 1.203 1.709 1.203 0.696 0 1.266-0.38 1.583-0.918 0.348 0.538 0.918 0.918 1.583 0.918 0.823 0 1.519-0.538 1.773-1.298z"></path>
</symbol>

<symbol id="logo-inner-part" viewBox="0 0 32 32" >
<path d="M20.035 17.44l2.312 7.179-6.205-4.38c1.785-0.041 3.326-1.217 3.894-2.798z"></path>
<path d="M15.899 20.279l-6.165 4.421 2.271-7.26c0.608 1.703 2.15 2.798 3.894 2.839z"></path>
<path d="M11.883 17.196l-6.084-4.461 7.584-0.081c-1.42 1.095-1.987 2.92-1.501 4.542z"></path>
<path d="M13.587 12.451l2.352-7.179 2.433 7.219c-1.46-1.014-3.407-0.973-4.786-0.041z"></path>
<path d="M18.616 12.613l7.544 0.041-6.084 4.542c0.527-1.744-0.122-3.569-1.46-4.583z"></path>
<path d="M2.88 15.209c0.446 0 0.771 0.365 0.771 0.771 0 0.446-0.324 0.771-0.771 0.771-0.406 0-0.771-0.324-0.771-0.771 0-0.406 0.365-0.771 0.771-0.771z"></path>
<path d="M29.080 15.209c0.446 0 0.771 0.365 0.771 0.771 0 0.446-0.324 0.771-0.771 0.771-0.406 0-0.771-0.324-0.771-0.771 0-0.406 0.365-0.771 0.771-0.771z"></path>
<path d="M2.393 12.613l0.73-2.109 0.365 0.122-0.284 0.852 1.054 0.406-0.081 0.365-1.095-0.365-0.324 0.892z"></path>
<path d="M3.731 17.359l0.527 2.474-0.365 0.081-0.203-1.014-1.338 0.324-0.081-0.487 1.298-0.284-0.243-1.014z"></path>
<path d="M4.461 8.152l0.324 0.162-0.852 1.501c-0.081 0.081 0.081 0.203 0.162 0.041l0.852-1.42 0.324 0.203-0.811 1.46c-0.081 0.162 0.081 0.162 0.122 0.081l0.852-1.46 0.324 0.243-0.771 1.379c-0.162 0.324-0.771 0.446-0.933 0-0.203 0.041-0.73-0.203-0.446-0.73l0.852-1.46z"></path>
<path d="M5.394 22.185l-0.365 0.203-0.852-1.785c-0.041-0.122-0.243-0.081-0.162 0.122l0.811 1.703-0.446 0.203-0.811-1.703c-0.081-0.162-0.203-0.041-0.162 0.041l0.811 1.744-0.406 0.162-0.811-1.622c-0.203-0.365 0.081-1.014 0.568-0.852 0.122-0.243 0.689-0.568 1.014 0.041l0.811 1.744z"></path>
<path d="M26.038 8.72l1.338-0.811 0.852 1.42c0.284 0.324 0.081 0.852-0.406 0.811 0 0.243-0.527 0.568-0.892 0.081l-0.892-1.501zM26.646 8.923l0.649 1.054c0.041 0.122 0.243 0.041 0.122-0.122l-0.649-1.014c-0.081-0.081-0.203-0.041-0.122 0.081zM27.133 8.639l0.649 1.014c0.081 0.122 0.203 0 0.162-0.081l-0.689-1.014c-0.041-0.122-0.203-0.041-0.122 0.081z"></path>
<path d="M27.579 11.518l1.501-0.487 0.487 1.622c0.203 0.365-0.122 0.852-0.608 0.689-0.081 0.203-0.649 0.365-0.892-0.162l-0.487-1.663zM28.106 11.843l0.365 1.217c0.041 0.081 0.243 0.081 0.162-0.081l-0.365-1.176c-0.041-0.081-0.203-0.081-0.162 0.041zM28.674 11.721l0.365 1.136c0.041 0.122 0.203 0.041 0.162-0.041l-0.365-1.176c-0.041-0.122-0.243-0.081-0.162 0.081z"></path>
<path d="M22.104 28.715l-0.933-1.501 1.622-1.014c0.324-0.284 0.973-0.081 0.933 0.487 0.243 0 0.608 0.608 0.041 0.973l-1.663 1.055zM22.347 28.025l1.176-0.73c0.122-0.041 0.041-0.284-0.122-0.162l-1.176 0.73c-0.081 0.081-0.041 0.243 0.122 0.162zM22.023 27.458l1.136-0.73c0.122-0.081 0-0.243-0.081-0.203l-1.176 0.771c-0.162 0.081-0.041 0.243 0.122 0.162z"></path>
<path d="M4.745 7.706l0.284-0.284 0.406 0.406 0.973-1.095-0.446-0.406 0.284-0.284 1.176 1.054-0.243 0.284-0.487-0.406-0.933 1.095 0.406 0.406-0.243 0.284z"></path>
<path d="M6.57 5.8l0.365-0.324 1.014 1.217-0.324 0.284z"></path>
<path d="M27.458 11.275l-0.203-0.406 1.46-0.608 0.203 0.406z"></path>
<path d="M9.085 3.934l0.203 0.324-1.46 1.014 0.406 0.649 1.501-1.014 0.203 0.324-1.379 0.973c-0.487 0.324-0.649-0.041-0.852-0.324l-0.162-0.284c-0.122-0.162-0.284-0.446 0.203-0.771l1.338-0.892z"></path>
<path d="M15.939 28.228l-0.041 0.446-2.028-0.162-0.081 0.852 2.028 0.162-0.041 0.446-1.906-0.122c-0.649-0.041-0.527-0.446-0.527-0.852l0.041-0.365c0.041-0.243 0.081-0.608 0.771-0.568l1.785 0.162z"></path>
<path d="M10.991 3.042l0.406-0.122 0.203 0.608 0.73-0.892 0.771-0.203-1.055 1.095 1.501 0.365-0.73 0.284-1.176-0.324 0.203 0.568-0.406 0.122z"></path>
<path d="M15.899 2.15l0.122 1.541h-0.406l-0.081-1.136-1.46 0.122 0.081 1.176h-0.365l-0.081-1.136c0-0.243 0.284-0.446 0.527-0.487l1.663-0.081z"></path>
<path d="M25.065 5.475l-0.892 1.257-0.324-0.284 0.689-0.892-1.176-0.852-0.73 0.973-0.284-0.284 0.689-0.892c0.162-0.203 0.487-0.162 0.73 0l1.298 0.973z"></path>
<path d="M16.385 2.15h0.406l-0.081 0.568 1.501 0.203 0.081-0.568 0.365 0.041-0.122 1.095c0 0.162-0.203 0.446-0.487 0.406l-1.703-0.203 0.041-0.406 1.663 0.203c0.162 0.041 0.203-0.203 0.041-0.203l-1.176-0.122c-0.243 0-0.487-0.162-0.568-0.406l0.041-0.608z"></path>
<path d="M18.697 3.975l0.324-0.933c0.081-0.324 0.406-0.487 0.73-0.406l1.541 0.527-0.162 0.406-1.541-0.527c-0.203-0.041-0.203 0.162-0.081 0.203l1.095 0.324c0.73 0.203 0.527 1.136-0.203 0.973l-1.703-0.568zM19.427 3.569c-0.162-0.081-0.243 0.122-0.081 0.162l1.217 0.446c0.081 0.041 0.203-0.162 0.041-0.243l-1.176-0.365z"></path>
<path d="M25.47 5.8l0.284 0.284-0.406 0.406 0.973 1.054c0.324 0.446-0.203 1.095-0.771 0.608l-1.217-1.298 1.136-1.054zM24.943 6.976l0.852 0.892c0.162 0.162 0.284-0.041 0.162-0.122l-0.852-0.933c-0.081-0.041-0.203 0.041-0.162 0.162z"></path>
<path d="M4.015 23.321l0.284 0.324 1.054-0.771-0.203 1.541c-0.081 0.568 0.243 0.852 0.689 0.608l1.054-0.811-0.284-0.365-1.014 0.811 0.203-1.663c0.041-0.446-0.243-0.689-0.649-0.527l-1.136 0.852z"></path>
<path d="M5.8 25.632l0.324 0.284 0.892-0.973 0.081 1.541c0.041 0.608 0.406 0.771 0.811 0.487l0.892-1.014-0.365-0.284-0.852 0.973-0.122-1.663c0-0.446-0.324-0.649-0.73-0.406l-0.933 1.055z"></path>
<path d="M8.030 27.458l0.406 0.284 0.973-1.46-0.406-0.243z"></path>
<path d="M11.843 27.579l-0.203 0.365-1.785-0.852c-0.162-0.081-0.243 0.122-0.122 0.203l1.257 0.568c0.973 0.446 0.284 1.379-0.324 1.055l-1.825-0.852 0.203-0.406 1.703 0.811c0.162 0.122 0.243 0.081 0.284 0 0.041-0.041 0-0.122-0.243-0.203l-1.136-0.568c-0.568-0.162-0.689-1.257 0.446-0.973l1.744 0.852z"></path>
<path d="M16.101 28.269l0.487-0.041 0.122 1.298 2.028-0.203 0.041 0.446-1.541 0.162c-0.284 0-0.892 0.162-1.014-0.446l-0.122-1.217z"></path>
<path d="M24.619 24.862l0.365-0.365 0.973 0.852 1.298-1.541 0.365 0.324-1.014 1.136c-0.203 0.203-0.487 0.73-1.014 0.406l-0.973-0.811z"></path>
<path d="M18.657 27.985l0.446-0.122 0.446 1.257 1.541-0.527-0.446-1.257 0.446-0.122 0.365 1.095c0.041 0.324 0 0.649-0.324 0.73l-1.257 0.406c-0.243 0.122-0.568 0.081-0.811-0.243l-0.406-1.217z"></path>
<path d="M26.525 22.428h1.501l-0.811-1.298 0.243-0.446 0.649 0.973c0.243 0.406 0.73 1.014-0.041 1.217h-1.744l0.203-0.446z"></path>
<path d="M27.904 19.468l1.42-0.406-1.095-1.014 0.122-0.487 0.852 0.771c0.365 0.284 1.014 0.771 0.284 1.136l-1.703 0.487 0.122-0.487z"></path>
<path d="M27.66 20.076l-0.162 0.487 1.622 0.649 0.203-0.487z"></path>
</symbol>

<symbol id="logo-full" viewBox="0 0 32 32">
<path d="M28.556 16c0 4.11-1.976 7.759-5.029 10.050l-2.984-8.605 7.444-5.189c0.369 1.182 0.569 2.44 0.569 3.744zM19.952 14.432c-0.374-0.396-0.904-0.645-1.494-0.645-0.733 0-1.377 0.386-1.74 0.965-0.363-0.579-1.006-0.965-1.74-0.965s-1.379 0.388-1.742 0.968v-0.836h-0.957c0.709-1.331 2.109-2.238 3.721-2.238 1.812 0 3.357 1.145 3.952 2.75zM11.972 14.658h0.344v3.241h0.921v-0.976c0.363 0.58 1.008 0.968 1.742 0.968s1.377-0.386 1.74-0.965c0.363 0.579 1.007 0.965 1.74 0.965 0.622 0 1.179-0.277 1.556-0.714-0.543 1.699-2.134 2.93-4.014 2.93-2.327 0-4.212-1.885-4.212-4.212 0-0.431 0.065-0.846 0.184-1.237zM14.572 17.075c-0.519-0.171-0.894-0.659-0.894-1.235 0-0.658 0.49-1.202 1.124-1.288 0.045 0.001 0.089 0.003 0.131 0.008 0.055 0.005 0.103 0.016 0.139 0.037 0.030 0.016 0.054 0.041 0.072 0.070 0.024 0.038 0.039 0.081 0.045 0.124 0.008 0.040 0.008 0.079 0.002 0.115-0.006 0.039-0.017 0.075-0.034 0.112-0.018 0.038-0.042 0.076-0.071 0.115-0.030 0.040-0.067 0.082-0.109 0.127-0.040 0.042-0.083 0.084-0.127 0.129-0.054 0.053-0.111 0.109-0.174 0.177-0.057 0.061-0.113 0.125-0.162 0.186-0.051 0.066-0.097 0.132-0.132 0.198-0.037 0.067-0.061 0.131-0.076 0.194s-0.022 0.123-0.024 0.184c-0.001 0.060 0.003 0.121 0.012 0.179 0.010 0.059 0.024 0.121 0.044 0.184 0.020 0.062 0.047 0.128 0.084 0.193 0.037 0.066 0.084 0.129 0.144 0.186l0.005 0.005zM15.332 14.588c0.546 0.154 0.946 0.656 0.946 1.251 0 0.632-0.451 1.159-1.049 1.275-0.058 0.008-0.12 0.009-0.192-0.010-0.055-0.014-0.12-0.040-0.181-0.073-0.056-0.030-0.11-0.068-0.154-0.109-0.044-0.043-0.080-0.089-0.107-0.139-0.029-0.050-0.050-0.103-0.067-0.155-0.016-0.052-0.029-0.102-0.037-0.153s-0.011-0.098-0.010-0.145c0.001-0.046 0.005-0.093 0.017-0.14 0.012-0.046 0.030-0.095 0.057-0.145 0.029-0.054 0.069-0.111 0.115-0.169 0.048-0.061 0.1-0.121 0.15-0.174 0.054-0.056 0.113-0.115 0.169-0.171 0.047-0.047 0.093-0.093 0.132-0.135 0.045-0.047 0.086-0.095 0.123-0.143 0.037-0.050 0.068-0.1 0.093-0.152 0.025-0.054 0.043-0.11 0.052-0.167s0.008-0.117-0.003-0.179c-0.010-0.056-0.028-0.113-0.056-0.167zM18.052 17.075c-0.519-0.171-0.894-0.659-0.894-1.235 0-0.658 0.489-1.202 1.123-1.288 0.045 0.001 0.089 0.003 0.131 0.008 0.055 0.005 0.104 0.016 0.14 0.037 0.029 0.016 0.053 0.041 0.072 0.070 0.023 0.038 0.038 0.081 0.045 0.124 0.006 0.040 0.008 0.079 0.001 0.115-0.005 0.039-0.017 0.075-0.033 0.112-0.018 0.038-0.042 0.076-0.071 0.115-0.030 0.040-0.067 0.082-0.109 0.127-0.041 0.042-0.083 0.084-0.128 0.129-0.053 0.053-0.11 0.109-0.173 0.177-0.057 0.061-0.113 0.125-0.162 0.186-0.052 0.066-0.098 0.132-0.132 0.198-0.038 0.067-0.061 0.131-0.076 0.194-0.016 0.062-0.023 0.123-0.024 0.184-0.001 0.060 0.002 0.121 0.012 0.179 0.009 0.059 0.024 0.121 0.044 0.184 0.020 0.062 0.047 0.128 0.083 0.193 0.038 0.066 0.084 0.129 0.144 0.186l0.006 0.005zM18.813 14.588c0.546 0.154 0.945 0.656 0.945 1.251 0 0.632-0.45 1.159-1.048 1.275-0.058 0.008-0.12 0.009-0.193-0.010-0.055-0.014-0.118-0.040-0.18-0.073-0.056-0.030-0.11-0.068-0.154-0.109-0.045-0.043-0.080-0.089-0.108-0.139s-0.050-0.103-0.066-0.155c-0.017-0.052-0.029-0.102-0.037-0.153s-0.012-0.098-0.011-0.145c0.001-0.046 0.006-0.093 0.018-0.14 0.011-0.046 0.029-0.095 0.057-0.145 0.029-0.054 0.069-0.111 0.115-0.169 0.048-0.061 0.099-0.121 0.15-0.174 0.053-0.056 0.113-0.115 0.169-0.171 0.047-0.047 0.093-0.093 0.132-0.135 0.045-0.047 0.086-0.095 0.123-0.143 0.037-0.050 0.068-0.1 0.092-0.152 0.026-0.054 0.043-0.11 0.052-0.167s0.009-0.117-0.002-0.179c-0.010-0.056-0.028-0.113-0.056-0.167zM23.263 26.244c-2.050 1.457-4.557 2.313-7.263 2.313s-5.212-0.857-7.262-2.313l7.262-5.498 7.263 5.498zM8.472 26.050c-3.053-2.29-5.028-5.94-5.028-10.050 0-1.304 0.198-2.562 0.567-3.744l7.445 5.189-2.985 8.605zM4.121 11.925c1.673-4.88 6.268-8.401 11.697-8.479l-2.626 8.656-9.071-0.178zM16.182 3.447c5.429 0.078 10.024 3.599 11.697 8.479l-9.071 0.178-2.626-8.656zM1.481 11.054l0.398 0.502-0.169 0.676 1.401 0.349-0.145 0.586-1.401-0.349-0.221 0.888-0.398-0.502 0.535-2.15zM3.998 9.101l0.292 0.563-0.793 1.703-1.769-0.823 0.954-2.049 0.295 0.569-0.533 1.145 0.212 0.098 0.651-1.401 0.255 0.501-0.505 1.088 0.24 0.112 0.7-1.505zM6 7.241l-0.356 0.483-0.606-0.446-0.688 0.934 0.605 0.447-0.36 0.488-1.57-1.158 0.36-0.489 0.556 0.41 0.689-0.934-0.556-0.41 0.356-0.483 1.57 1.158zM6.729 6.572l-0.423 0.431-1.392-1.366 0.423-0.431 1.392 1.366zM8.648 4.378l-0.005 0.633-0.781 0.593c-0.27 0.207-0.55 0.3-0.839 0.283-0.293-0.014-0.525-0.136-0.698-0.363-0.173-0.227-0.224-0.479-0.154-0.756 0.069-0.271 0.239-0.511 0.51-0.717l1.089-0.828-0.002 0.639-0.78 0.593c-0.13 0.099-0.212 0.216-0.245 0.352-0.031 0.138-0.005 0.263 0.079 0.373 0.083 0.11 0.195 0.167 0.335 0.17 0.137 0.003 0.27-0.045 0.402-0.144l1.090-0.828zM12.429 3.266l-0.854 0.324-0.732-0.271c-0.221-0.083-0.373-0.142-0.454-0.177l0.028 0.064 0.027 0.065c0.011 0.024 0.020 0.046 0.030 0.070l0.221 0.584-0.567 0.215-0.691-1.824 0.567-0.215 0.16 0.422c0.052 0.139 0.088 0.247 0.11 0.323 0.002-0.004 0.015-0.030 0.039-0.076l0.024-0.046 0.026-0.047c0.042-0.085 0.087-0.169 0.135-0.254l0.357-0.644 0.818-0.31-0.5 0.788c-0.144 0.229-0.259 0.401-0.345 0.515 0.059 0.015 0.096 0.024 0.11 0.027l0.066 0.018 0.067 0.018c0.050 0.015 0.108 0.033 0.177 0.055l0.096 0.029 0.102 0.033 0.984 0.316zM13.397 1.631l0.092 0.549c0.098 0.583-0.165 0.927-0.79 1.032l-0.186 0.032 0.043-0.517 0.060-0.010c0.050-0.009 0.114-0.048 0.193-0.121 0.079-0.069 0.107-0.174 0.083-0.317l-0.177-1.049 2.111-0.355 0.324 1.924-0.599 0.1-0.239-1.423-0.914 0.154zM18.41 0.978l-1.713 1.883-0.702-0.028 0.6-0.623-1.136-1.35 0.775 0.031 0.444 0.56c0.006 0.006 0.014 0.015 0.023 0.027 0.010 0.013 0.022 0.027 0.037 0.043l0.036 0.045 0.039 0.048c0.071 0.086 0.111 0.138 0.12 0.153 0.015-0.018 0.042-0.052 0.083-0.098 0.050-0.059 0.108-0.126 0.174-0.2l0.465-0.521 0.757 0.030zM21.037 2.252l-2.096-0.612 0.534-0.373 1.934 0.564-0.372 0.42zM20.526 2.37c0.316 0.123 0.506 0.294 0.573 0.514 0.034 0.092 0.036 0.191 0.004 0.299-0.107 0.364-0.413 0.472-0.921 0.323l-1.646-0.48 0.333-1.139 1.657 0.483zM19.259 2.713l0.074-0.257 1.067 0.312c0.12 0.034 0.167 0.094 0.142 0.178-0.026 0.088-0.098 0.114-0.218 0.080l-1.066-0.312zM23.89 3.669l-0.304 0.466c-0.323 0.495-0.749 0.571-1.28 0.224l-0.159-0.103 0.381-0.35 0.052 0.033c0.042 0.028 0.117 0.042 0.224 0.041 0.104 0.003 0.196-0.055 0.275-0.176l0.58-0.892 1.794 1.167-1.065 1.635-0.508-0.331 0.788-1.209-0.777-0.506zM24.684 5.973l-0.006-0.006 1.365-1.376 0.427 0.423-0.352 0.353 0.725 0.719c0.213 0.211 0.334 0.424 0.364 0.64 0.026 0.212-0.038 0.394-0.189 0.547-0.155 0.156-0.338 0.223-0.55 0.198-0.216-0.024-0.432-0.141-0.644-0.352l-1.153-1.144 0.014-0.002zM25.768 5.721l0.767 0.76c0.066 0.066 0.103 0.131 0.112 0.197 0.009 0.064-0.012 0.12-0.061 0.17-0.104 0.104-0.226 0.087-0.365-0.051l-0.766-0.76 0.313-0.317zM28.688 9.655c-0.034 0.090-0.1 0.166-0.196 0.226-0.321 0.201-0.622 0.078-0.902-0.37l-0.91-1.454 1.006-0.63 0.916 1.463c0.059 0.096 0.126 0.121 0.2 0.073 0.071-0.044 0.076-0.114 0.017-0.209l-0.916-1.463 0.646 0.076 0.686 1.095c0.128 0.204 0.189 0.386 0.183 0.546-0.009 0.168-0.086 0.298-0.233 0.39-0.089 0.056-0.182 0.081-0.278 0.074-0.080-0.008-0.15-0.034-0.21-0.082 0.028 0.090 0.024 0.179-0.010 0.264zM27.653 8.162l0.59 0.942c0.066 0.106 0.062 0.181-0.012 0.227-0.078 0.048-0.15 0.020-0.215-0.085l-0.59-0.942 0.227-0.142zM28.346 11.040l-0.236-0.556 1.795-0.765 0.236 0.556-1.795 0.765zM30.017 13.481c-0.059 0.076-0.144 0.129-0.253 0.158-0.366 0.098-0.617-0.108-0.755-0.618l-0.445-1.656 1.146-0.308 0.448 1.667c0.029 0.109 0.086 0.152 0.171 0.129 0.081-0.022 0.107-0.087 0.078-0.196l-0.449-1.667 0.597 0.263 0.335 1.247c0.062 0.234 0.068 0.425 0.016 0.576-0.058 0.158-0.171 0.261-0.338 0.305-0.101 0.027-0.197 0.024-0.286-0.011-0.074-0.030-0.134-0.076-0.177-0.139 0 0.095-0.029 0.178-0.087 0.25zM29.464 11.751l0.289 1.074c0.032 0.12 0.006 0.192-0.079 0.214-0.087 0.024-0.148-0.025-0.18-0.145l-0.289-1.072 0.258-0.070zM3.348 20.094l-0.584-0.268-0.157-0.681-1.41 0.326-0.137-0.59 1.41-0.325-0.206-0.895 0.584 0.268 0.5 2.164zM3.031 23.003l-0.618-0.148-0.775-1.715 1.781-0.805 0.934 2.064-0.625-0.148-0.522-1.153-0.212 0.096 0.637 1.412-0.548-0.134-0.494-1.095-0.242 0.11 0.685 1.516zM4.131 23.567l-0.935 0.669-0.319-0.448 1.319-0.943c0.1-0.071 0.196-0.099 0.286-0.082 0.082 0.017 0.15 0.064 0.204 0.138 0.052 0.073 0.070 0.159 0.055 0.259l-0.178 1.6 0.935-0.669 0.321 0.45-1.317 0.941c-0.1 0.072-0.196 0.099-0.286 0.083-0.083-0.015-0.152-0.061-0.208-0.139-0.051-0.072-0.069-0.158-0.055-0.259l0.178-1.6zM5.944 25.831l-0.794 0.83-0.397-0.379 1.121-1.173c0.085-0.089 0.173-0.134 0.266-0.135 0.084 0.002 0.159 0.036 0.226 0.098 0.065 0.062 0.099 0.143 0.102 0.244l0.123 1.605 0.794-0.83 0.399 0.381-1.119 1.17c-0.085 0.089-0.173 0.134-0.266 0.135-0.084 0-0.16-0.032-0.229-0.098-0.064-0.061-0.098-0.142-0.102-0.244l-0.124-1.605zM7.61 28.69l-0.493-0.351 1.135-1.594 0.492 0.351-1.134 1.594zM10.448 28.919c0.435 0.222 0.573 0.491 0.411 0.809-0.194 0.381-0.539 0.445-1.038 0.191l-1.624-0.826 0.575-0.271 1.318 0.671c0.124 0.062 0.207 0.051 0.25-0.034 0.043-0.083 0.002-0.156-0.121-0.219l-0.949-0.482c-0.217-0.111-0.359-0.24-0.425-0.39-0.062-0.139-0.054-0.286 0.026-0.443 0.183-0.362 0.524-0.416 1.023-0.163l1.514 0.77-0.577 0.278-1.209-0.615c-0.123-0.062-0.205-0.055-0.245 0.026-0.042 0.082-0.001 0.154 0.123 0.216l0.949 0.482zM15.537 30.756l-0.447 0.451-0.975-0.121c-0.339-0.042-0.605-0.17-0.801-0.384-0.199-0.215-0.281-0.465-0.245-0.749 0.034-0.284 0.174-0.501 0.419-0.649 0.24-0.146 0.53-0.199 0.868-0.157l1.36 0.168-0.448 0.457-0.975-0.121c-0.163-0.019-0.304 0.008-0.422 0.081-0.12 0.078-0.188 0.185-0.206 0.322-0.016 0.138 0.024 0.256 0.122 0.356 0.096 0.099 0.225 0.158 0.39 0.179l1.36 0.168zM18.216 30.573l-0.353 0.531-1.722 0.131-0.149-1.95 0.603-0.046 0.111 1.448 1.51-0.114zM21.116 29.47c0.16 0.567-0.151 0.963-0.933 1.182-0.45 0.127-0.801 0.149-1.051 0.066-0.243-0.080-0.405-0.264-0.487-0.552l-0.298-1.061 0.579-0.164 0.298 1.061c0.041 0.143 0.113 0.227 0.218 0.252 0.108 0.026 0.31-0.002 0.604-0.085 0.222-0.062 0.367-0.134 0.437-0.214 0.070-0.079 0.085-0.185 0.047-0.32l-0.299-1.061 0.586-0.165 0.298 1.061zM23.853 28.107c0.087 0.043 0.156 0.115 0.207 0.216 0.172 0.339 0.022 0.628-0.452 0.867l-1.533 0.776-0.537-1.062 1.544-0.781c0.101-0.052 0.132-0.116 0.093-0.194-0.038-0.075-0.108-0.087-0.208-0.037l-1.544 0.782 0.136-0.639 1.155-0.585c0.215-0.109 0.403-0.154 0.561-0.134 0.168 0.025 0.291 0.114 0.368 0.269 0.048 0.094 0.065 0.188 0.048 0.283-0.014 0.080-0.047 0.146-0.1 0.202 0.093-0.019 0.18-0.008 0.263 0.033zM22.268 29.003l0.994-0.502c0.112-0.057 0.187-0.045 0.227 0.032 0.041 0.082 0.005 0.151-0.106 0.208l-0.994 0.502-0.122-0.24zM27.404 25.341l0.093 0.631-1.194 1.249-1.413-1.351 0.418-0.437 1.050 1.004 1.047-1.095zM26.583 24.032l1.568-0.037-0.593-1.474 0.387-0.6 0.809 2.010c0.065 0.169 0.055 0.318-0.028 0.448-0.086 0.132-0.218 0.2-0.394 0.205l-2.149 0.072 0.402-0.625zM30.066 21.788l-0.248 0.551-1.783-0.802 0.248-0.551 1.783 0.802zM28.664 20.020l1.463-0.564-1.056-1.187 0.16-0.695 1.441 1.617c0.117 0.138 0.159 0.281 0.125 0.432-0.036 0.154-0.137 0.263-0.302 0.326l-1.999 0.794 0.167-0.724zM1.724 15.146c0.472 0 0.854 0.382 0.854 0.854s-0.382 0.855-0.854 0.855c-0.472 0-0.855-0.383-0.855-0.855s0.383-0.854 0.855-0.854zM30.277 15.146c0.473 0 0.855 0.382 0.855 0.854s-0.382 0.855-0.855 0.855c-0.472 0-0.854-0.383-0.854-0.855s0.382-0.854 0.854-0.854zM32 16c0-8.836-7.163-16-16-16-8.836 0-16 7.164-16 16 0 8.837 7.164 16 16 16 8.837 0 16-7.163 16-16z"></path>
</symbol>

</defs>
</svg>
