<!-- Generated by IcoMoon.io -->
<svg version="1.1" xmlns="http://www.w3.org/2000/svg" width="32" height="32" viewBox="0 0 32 32">
<title>female-dafault</title>
<path fill="#7c91ac" opacity="0.2" d="M28.556 16c0 4.11-1.975 7.759-5.028 10.050l-2.984-8.605 7.445-5.188c0.369 1.183 0.568 2.44 0.568 3.744zM19.952 14.432c-0.374-0.397-0.905-0.645-1.493-0.645-0.733 0-1.377 0.385-1.74 0.964-0.363-0.579-1.006-0.964-1.74-0.964-0.735 0-1.38 0.387-1.742 0.968v-0.836h-0.957c0.708-1.331 2.109-2.237 3.721-2.237 1.812 0 3.357 1.144 3.952 2.75zM11.972 14.658h0.343v3.241h0.921v-0.976c0.362 0.581 1.007 0.968 1.742 0.968 0.733 0 1.377-0.385 1.74-0.964 0.363 0.579 1.006 0.964 1.74 0.964 0.622 0 1.179-0.277 1.556-0.714-0.543 1.7-2.134 2.931-4.014 2.931-2.327 0-4.213-1.886-4.213-4.213 0-0.43 0.065-0.846 0.184-1.237zM14.572 17.074c-0.519-0.171-0.894-0.659-0.894-1.235 0-0.658 0.489-1.202 1.123-1.288 0.045 0.001 0.090 0.003 0.132 0.007 0.055 0.006 0.104 0.016 0.139 0.036 0.030 0.016 0.053 0.041 0.072 0.070 0.023 0.037 0.038 0.081 0.046 0.123 0.007 0.040 0.007 0.079 0.002 0.116s-0.017 0.075-0.034 0.111c-0.018 0.038-0.042 0.077-0.071 0.116s-0.067 0.082-0.108 0.126c-0.040 0.043-0.083 0.085-0.128 0.13-0.054 0.053-0.11 0.11-0.174 0.177-0.057 0.061-0.114 0.125-0.162 0.186-0.051 0.065-0.097 0.132-0.133 0.197-0.037 0.068-0.061 0.132-0.076 0.194s-0.022 0.123-0.023 0.184 0.003 0.121 0.012 0.18c0.009 0.059 0.024 0.12 0.044 0.183s0.046 0.128 0.083 0.193c0.037 0.066 0.084 0.129 0.145 0.186l0.006 0.006zM15.332 14.588c0.546 0.154 0.946 0.656 0.946 1.251 0 0.632-0.451 1.158-1.048 1.275-0.058 0.007-0.119 0.009-0.192-0.010-0.055-0.014-0.119-0.039-0.181-0.073-0.056-0.030-0.11-0.068-0.154-0.109-0.045-0.042-0.080-0.090-0.107-0.138-0.028-0.050-0.050-0.104-0.066-0.156s-0.029-0.102-0.036-0.153c-0.008-0.050-0.011-0.099-0.010-0.145s0.006-0.093 0.017-0.14c0.012-0.047 0.030-0.096 0.058-0.146 0.029-0.053 0.069-0.111 0.115-0.169 0.048-0.061 0.1-0.12 0.15-0.174 0.053-0.057 0.113-0.116 0.169-0.172 0.047-0.047 0.093-0.092 0.132-0.134 0.045-0.048 0.086-0.095 0.123-0.144 0.037-0.050 0.068-0.099 0.092-0.151 0.025-0.054 0.043-0.11 0.052-0.167 0.009-0.058 0.008-0.117-0.002-0.179-0.010-0.056-0.028-0.114-0.056-0.167zM18.052 17.074c-0.519-0.171-0.893-0.659-0.893-1.235 0-0.658 0.489-1.202 1.123-1.288 0.045 0.001 0.089 0.003 0.131 0.007 0.055 0.006 0.104 0.016 0.14 0.036 0.030 0.016 0.053 0.041 0.072 0.070 0.024 0.037 0.039 0.081 0.046 0.123 0.007 0.040 0.007 0.079 0.001 0.116s-0.017 0.075-0.034 0.111c-0.018 0.038-0.042 0.077-0.071 0.116s-0.067 0.082-0.109 0.126c-0.040 0.043-0.083 0.085-0.127 0.13-0.054 0.053-0.11 0.11-0.174 0.177-0.057 0.061-0.114 0.125-0.162 0.186-0.051 0.065-0.097 0.132-0.133 0.197-0.037 0.068-0.061 0.132-0.076 0.194s-0.022 0.123-0.023 0.184c-0.001 0.061 0.003 0.121 0.012 0.18s0.024 0.12 0.044 0.183c0.021 0.063 0.047 0.128 0.083 0.193 0.037 0.066 0.084 0.129 0.144 0.186l0.006 0.006zM18.812 14.588c0.546 0.154 0.946 0.656 0.946 1.251 0 0.632-0.451 1.158-1.048 1.275-0.058 0.007-0.119 0.009-0.192-0.010-0.055-0.014-0.119-0.039-0.181-0.073-0.056-0.030-0.11-0.068-0.154-0.109-0.045-0.042-0.080-0.090-0.107-0.138-0.028-0.050-0.050-0.104-0.066-0.156s-0.029-0.102-0.037-0.153c-0.008-0.050-0.011-0.099-0.010-0.145s0.006-0.093 0.017-0.14c0.012-0.047 0.030-0.096 0.057-0.146 0.029-0.053 0.069-0.111 0.115-0.169 0.048-0.061 0.1-0.12 0.15-0.174 0.053-0.057 0.113-0.116 0.169-0.172 0.048-0.047 0.093-0.092 0.132-0.134 0.045-0.048 0.086-0.095 0.123-0.144 0.037-0.050 0.068-0.099 0.092-0.151 0.025-0.054 0.043-0.11 0.052-0.167 0.008-0.058 0.008-0.117-0.003-0.179-0.010-0.056-0.028-0.114-0.056-0.167zM23.262 26.243c-2.050 1.456-4.556 2.312-7.262 2.312s-5.212-0.856-7.262-2.312l7.262-5.498 7.262 5.498zM8.472 26.049c-3.053-2.29-5.028-5.939-5.028-10.050 0-1.304 0.199-2.561 0.568-3.744l7.445 5.188-2.984 8.605zM4.121 11.925c1.673-4.88 6.268-8.401 11.697-8.478l-2.626 8.657-9.071-0.178zM16.182 3.447c5.429 0.077 10.023 3.599 11.697 8.478l-9.071 0.178-2.626-8.657zM1.48 11.054l0.398 0.502-0.168 0.676 1.401 0.348-0.146 0.586-1.401-0.348-0.221 0.888-0.398-0.502 0.535-2.151zM3.998 9.101l0.291 0.563-0.792 1.703-1.769-0.823 0.953-2.049 0.295 0.568-0.532 1.145 0.212 0.098 0.652-1.401 0.256 0.502-0.505 1.087 0.241 0.112 0.7-1.504zM6 7.242l-0.357 0.483-0.606-0.446-0.689 0.934 0.605 0.446-0.36 0.488-1.57-1.158 0.36-0.488 0.556 0.41 0.689-0.934-0.556-0.41 0.356-0.483 1.57 1.158zM6.729 6.571l-0.423 0.431-1.392-1.366 0.423-0.431 1.392 1.366zM8.647 4.378l-0.005 0.634-0.78 0.593c-0.271 0.206-0.551 0.301-0.84 0.283-0.292-0.015-0.525-0.136-0.698-0.363s-0.224-0.479-0.153-0.755c0.069-0.272 0.239-0.511 0.51-0.717l1.089-0.828-0.002 0.639-0.78 0.593c-0.13 0.099-0.212 0.216-0.245 0.352-0.032 0.139-0.005 0.263 0.078 0.373s0.195 0.167 0.335 0.17c0.137 0.003 0.271-0.045 0.403-0.145l1.089-0.828zM12.429 3.266l-0.854 0.324-0.733-0.271c-0.221-0.083-0.372-0.142-0.454-0.177l0.027 0.064 0.028 0.065c0.011 0.023 0.021 0.046 0.030 0.070l0.221 0.584-0.567 0.215-0.692-1.824 0.567-0.215 0.16 0.423c0.052 0.138 0.089 0.246 0.11 0.323 0.002-0.005 0.015-0.031 0.039-0.077l0.023-0.046 0.026-0.047c0.043-0.085 0.088-0.17 0.135-0.254l0.358-0.644 0.818-0.31-0.5 0.788c-0.144 0.229-0.259 0.401-0.345 0.514 0.060 0.015 0.096 0.024 0.11 0.027l0.066 0.019 0.066 0.018c0.049 0.015 0.108 0.033 0.177 0.055l0.095 0.029 0.103 0.033 0.984 0.316zM13.397 1.631l0.092 0.549c0.098 0.583-0.166 0.927-0.79 1.032l-0.187 0.031 0.043-0.516 0.060-0.010c0.050-0.008 0.114-0.049 0.193-0.121 0.079-0.068 0.107-0.174 0.083-0.316l-0.176-1.050 2.111-0.355 0.324 1.924-0.598 0.101-0.239-1.424-0.914 0.154zM18.41 0.977l-1.713 1.884-0.702-0.028 0.6-0.624-1.137-1.35 0.775 0.031 0.445 0.561c0.006 0.006 0.013 0.015 0.022 0.027s0.021 0.026 0.036 0.042l0.036 0.045 0.039 0.048c0.070 0.086 0.11 0.138 0.119 0.154 0.015-0.019 0.042-0.052 0.083-0.099 0.049-0.059 0.107-0.125 0.175-0.2l0.465-0.521 0.757 0.030zM21.037 2.252l-2.097-0.612 0.534-0.372 1.934 0.565-0.372 0.42zM20.526 2.37c0.315 0.122 0.506 0.293 0.573 0.514 0.034 0.091 0.036 0.19 0.004 0.299-0.106 0.364-0.413 0.472-0.921 0.324l-1.646-0.481 0.333-1.139 1.657 0.484zM19.259 2.714l0.075-0.257 1.066 0.311c0.119 0.035 0.167 0.094 0.143 0.178-0.026 0.088-0.098 0.114-0.218 0.079l-1.066-0.312zM23.89 3.668l-0.304 0.467c-0.323 0.495-0.749 0.57-1.281 0.224l-0.159-0.103 0.381-0.35 0.051 0.034c0.042 0.028 0.117 0.041 0.224 0.041 0.105 0.003 0.196-0.055 0.275-0.176l0.581-0.892 1.794 1.168-1.064 1.635-0.508-0.331 0.788-1.21-0.777-0.506zM24.684 5.973l-0.006-0.006 1.366-1.377 0.426 0.423-0.351 0.354 0.725 0.719c0.212 0.211 0.334 0.424 0.363 0.64 0.026 0.212-0.037 0.394-0.19 0.547-0.155 0.156-0.338 0.222-0.55 0.198-0.217-0.024-0.432-0.141-0.645-0.352l-1.153-1.144 0.014-0.002zM25.768 5.721l0.766 0.76c0.066 0.066 0.104 0.132 0.112 0.197 0.008 0.063-0.012 0.12-0.061 0.17-0.104 0.105-0.226 0.088-0.365-0.050l-0.766-0.76 0.314-0.317zM28.688 9.655c-0.035 0.091-0.1 0.166-0.196 0.226-0.321 0.201-0.622 0.077-0.903-0.371l-0.91-1.453 1.006-0.63 0.916 1.463c0.060 0.095 0.127 0.12 0.201 0.074 0.071-0.044 0.076-0.114 0.016-0.21l-0.916-1.463 0.647 0.077 0.686 1.095c0.128 0.204 0.189 0.386 0.184 0.546-0.009 0.168-0.087 0.299-0.234 0.391-0.089 0.056-0.181 0.080-0.277 0.074-0.080-0.007-0.15-0.035-0.21-0.082 0.027 0.091 0.024 0.179-0.010 0.264zM27.653 8.162l0.59 0.942c0.066 0.105 0.062 0.181-0.012 0.228-0.077 0.049-0.149 0.020-0.215-0.085l-0.59-0.942 0.227-0.142zM28.347 11.040l-0.237-0.555 1.795-0.764 0.237 0.555-1.795 0.764zM30.017 13.481c-0.060 0.076-0.144 0.129-0.253 0.159-0.366 0.098-0.618-0.108-0.755-0.619l-0.445-1.656 1.146-0.308 0.448 1.667c0.029 0.109 0.086 0.152 0.171 0.129 0.081-0.022 0.106-0.087 0.077-0.196l-0.448-1.667 0.596 0.263 0.335 1.248c0.063 0.233 0.068 0.425 0.016 0.575-0.058 0.159-0.171 0.26-0.338 0.305-0.101 0.027-0.197 0.024-0.287-0.010-0.075-0.030-0.134-0.077-0.176-0.14-0.001 0.095-0.030 0.178-0.087 0.25zM29.464 11.751l0.288 1.073c0.032 0.12 0.006 0.192-0.078 0.214-0.088 0.024-0.148-0.024-0.181-0.145l-0.288-1.073 0.259-0.070zM3.348 20.093l-0.584-0.267-0.157-0.681-1.41 0.325-0.136-0.59 1.41-0.325-0.206-0.894 0.584 0.267 0.5 2.164zM3.031 23.003l-0.618-0.147-0.775-1.715 1.782-0.806 0.933 2.064-0.625-0.147-0.521-1.153-0.213 0.096 0.638 1.412-0.548-0.134-0.495-1.095-0.242 0.11 0.685 1.515zM4.131 23.567l-0.934 0.668-0.32-0.447 1.32-0.943c0.1-0.072 0.195-0.099 0.286-0.083 0.082 0.018 0.15 0.064 0.203 0.139 0.052 0.073 0.071 0.159 0.056 0.259l-0.178 1.601 0.934-0.668 0.321 0.449-1.317 0.942c-0.1 0.071-0.195 0.099-0.286 0.082-0.083-0.015-0.152-0.062-0.207-0.139-0.051-0.072-0.070-0.157-0.055-0.259l0.178-1.601zM5.944 25.831l-0.794 0.83-0.397-0.38 1.121-1.173c0.085-0.089 0.173-0.134 0.266-0.134 0.084 0.002 0.159 0.035 0.225 0.098 0.065 0.062 0.099 0.143 0.103 0.244l0.123 1.606 0.794-0.83 0.399 0.382-1.119 1.171c-0.085 0.089-0.173 0.133-0.266 0.134-0.084 0.001-0.161-0.032-0.23-0.098-0.063-0.061-0.098-0.142-0.103-0.244l-0.123-1.606zM7.61 28.689l-0.493-0.351 1.134-1.593 0.493 0.351-1.134 1.593zM10.448 28.919c0.436 0.222 0.573 0.492 0.412 0.809-0.194 0.381-0.539 0.444-1.038 0.19l-1.623-0.826 0.574-0.272 1.318 0.67c0.123 0.063 0.207 0.052 0.25-0.034 0.043-0.083 0.002-0.156-0.121-0.219l-0.948-0.482c-0.217-0.11-0.359-0.241-0.425-0.39-0.063-0.139-0.054-0.287 0.025-0.443 0.184-0.361 0.525-0.415 1.023-0.162l1.514 0.77-0.577 0.277-1.209-0.615c-0.123-0.063-0.205-0.054-0.246 0.026-0.041 0.082-0.001 0.154 0.123 0.217l0.948 0.482zM15.537 30.756l-0.448 0.451-0.975-0.121c-0.338-0.042-0.605-0.17-0.801-0.385-0.199-0.215-0.281-0.465-0.246-0.749s0.175-0.501 0.419-0.649c0.24-0.147 0.529-0.199 0.868-0.158l1.361 0.168-0.448 0.457-0.975-0.121c-0.162-0.020-0.303 0.007-0.422 0.080-0.119 0.077-0.188 0.185-0.205 0.322s0.023 0.256 0.121 0.357c0.096 0.098 0.226 0.157 0.39 0.178l1.36 0.168zM18.215 30.572l-0.352 0.531-1.722 0.131-0.148-1.95 0.603-0.046 0.11 1.449 1.51-0.115zM21.116 29.469c0.16 0.568-0.151 0.962-0.933 1.183-0.45 0.127-0.801 0.148-1.051 0.065-0.243-0.079-0.405-0.263-0.487-0.552l-0.299-1.061 0.58-0.163 0.299 1.061c0.040 0.143 0.112 0.226 0.217 0.252 0.109 0.026 0.31-0.003 0.605-0.085 0.221-0.063 0.367-0.134 0.438-0.214 0.069-0.078 0.084-0.185 0.046-0.32l-0.299-1.061 0.585-0.165 0.299 1.061zM23.852 28.107c0.087 0.043 0.157 0.115 0.208 0.216 0.171 0.339 0.021 0.628-0.452 0.867l-1.534 0.775-0.537-1.061 1.544-0.781c0.101-0.051 0.132-0.116 0.092-0.194-0.038-0.075-0.107-0.087-0.208-0.035l-1.544 0.781 0.136-0.639 1.155-0.584c0.216-0.109 0.403-0.153 0.561-0.133 0.168 0.024 0.29 0.114 0.369 0.269 0.047 0.094 0.064 0.188 0.048 0.283-0.014 0.079-0.048 0.147-0.101 0.202 0.093-0.019 0.181-0.008 0.263 0.034zM22.268 29.003l0.994-0.503c0.111-0.056 0.187-0.045 0.226 0.033 0.041 0.082 0.006 0.151-0.105 0.207l-0.994 0.503-0.121-0.24zM27.404 25.341l0.093 0.63-1.194 1.249-1.413-1.351 0.418-0.437 1.050 1.004 1.046-1.094zM26.583 24.032l1.568-0.036-0.593-1.475 0.386-0.599 0.808 2.009c0.065 0.169 0.055 0.319-0.028 0.448-0.086 0.133-0.217 0.201-0.393 0.206l-2.15 0.071 0.402-0.624zM30.066 21.787l-0.248 0.552-1.783-0.802 0.248-0.552 1.783 0.802zM28.664 20.019l1.463-0.564-1.057-1.187 0.161-0.695 1.44 1.618c0.118 0.137 0.16 0.281 0.125 0.431-0.036 0.154-0.136 0.263-0.301 0.326l-1.999 0.794 0.168-0.723zM1.724 15.146c0.472 0 0.854 0.383 0.854 0.854s-0.383 0.854-0.854 0.854c-0.472 0-0.855-0.383-0.855-0.854s0.383-0.854 0.855-0.854zM30.277 15.146c0.472 0 0.854 0.383 0.854 0.854s-0.383 0.854-0.854 0.854c-0.472 0-0.854-0.383-0.854-0.854s0.383-0.854 0.854-0.854zM32 16c0-8.837-7.163-16-16-16s-16 7.163-16 16c0 8.837 7.163 16 16 16s16-7.163 16-16z"></path>
<path fill="#87493f" d="M19.191 11.001c0 1.657-1.472 3.001-3.287 3.001s-3.287-1.344-3.287-3.001 1.472-3.001 3.287-3.001c1.816 0 3.287 1.344 3.287 3.001z"></path>
<path fill="#e3bca1" d="M21.908 19.104v4.314c0 0.32-0.283 0.582-0.632 0.582h-10.553c-0.346 0-0.632-0.262-0.632-0.582v-4.314c0-0.251 0.176-0.468 0.42-0.548l0.007-0.003 0.021-0.007 3.605-1.253v-0.923c0.506 0.436 1.108 0.689 1.754 0.689 0.669 0 1.292-0.273 1.81-0.742v0.868l3.747 1.359c0.263 0.071 0.453 0.295 0.453 0.56z"></path>
<path fill="#e5bb9f" d="M12.945 14.105c-0.093 0.018-0.187-0.004-0.277-0.059-0.245-0.146-0.459-0.531-0.533-1.011-0.098-0.654 0.104-1.233 0.454-1.296 0.032-0.006 0.064-0.008 0.094-0.002l0.056 0.007c0.074 0.018 0.149 0.059 0.219 0.121 0.205 0.179 0.376 0.525 0.439 0.943 0.099 0.654-0.104 1.234-0.451 1.297z"></path>
<path fill="#e5bb9f" d="M19.846 13.035c-0.082 0.543-0.346 0.967-0.633 1.057-0.059 0.020-0.118 0.026-0.177 0.014-0.347-0.063-0.551-0.642-0.451-1.297 0.061-0.396 0.216-0.729 0.408-0.914 0.070-0.069 0.143-0.117 0.22-0.143 0.060-0.019 0.121-0.025 0.181-0.014l0.012 0.004c0.34 0.072 0.535 0.646 0.439 1.292z"></path>
<path fill="#e5bb9f" d="M17.779 15.675v0.642c-0.537 0.469-1.181 0.742-1.874 0.742-0.669 0-1.291-0.253-1.815-0.689v-0.695h3.689z"></path>
<path fill="#f1ccb0" d="M19.292 12.579v0.052c-0.003 0.154-0.009 0.307-0.021 0.461-0.021 0.243-0.050 0.479-0.099 0.706-0.217 1.043-0.721 1.935-1.392 2.519-0.537 0.469-1.181 0.742-1.874 0.742-0.669 0-1.291-0.253-1.815-0.689-0.377-0.313-0.704-0.721-0.959-1.198-0.229-0.424-0.401-0.901-0.505-1.416-0.071-0.361-0.11-0.74-0.11-1.125v-0.052c0-0.29 0.021-0.567 0.061-0.835 0.012-0.098 0.030-0.197 0.049-0.292 0.107-0.54 0.293-1.039 0.539-1.477h0.003c0.668-0.45 1.699-0.869 2.733-0.869 1.031 0 2.068 0.419 2.738 0.869 0.24 0.428 0.421 0.912 0.53 1.433 0.019 0.090 0.028 0.182 0.040 0.272l0.007 0.024 0.006 0.044c0.009 0.052 0.019 0.104 0.025 0.163l0.003 0.024c0.005 0.066 0.012 0.133 0.019 0.198 0.010 0.147 0.021 0.293 0.021 0.446z"></path>
<path fill="#9ccfce" d="M19.387 10.822c0 0.586-0.009 0.854-0.163 0.924-0.028 0.015-0.064 0.022-0.108 0.022-0.255 0-1.091-1.242-3.213-1.242-1.883 0-2.755 0.977-3.103 1.198-0.046 0.025-0.083 0.044-0.111 0.044-0.043 0-0.080-0.006-0.111-0.025-0.148-0.074-0.157-0.339-0.157-0.921 0-0.216 0.286-0.539 0.745-0.848h0.003c0.668-0.449 1.698-0.868 2.733-0.868 1.032 0 2.068 0.419 2.739 0.868 0.459 0.309 0.746 0.632 0.746 0.848z"></path>
<path fill="#fefefe" d="M19.119 11.767c0 0.499-0.029 0.836-0.447 0.836s-0.875-0.985-2.768-0.985c-1.893 0-2.35 0.985-2.768 0.985s-0.447-0.337-0.447-0.836c0.028 0 0.065-0.016 0.11-0.042 0.35-0.221 1.221-1.2 3.105-1.2s2.756 0.979 3.106 1.2c0.045 0.026 0.081 0.042 0.11 0.042z"></path>
<path fill="#c4d3d3" d="M12.13 12.431c0.012-0.086 0.030-0.166 0.054-0.238 0.006-0.023 0.014-0.044 0.024-0.066-0.035 0.090-0.061 0.192-0.078 0.304zM12.223 12.090c0.065-0.155 0.16-0.271 0.277-0.323-0.115 0.053-0.21 0.168-0.277 0.323zM12.549 11.748l0.010-0.003c0.005-0.001 0.009-0.002 0.014-0.003 0 0 0.001 0 0.001 0-0.008 0.002-0.016 0.004-0.024 0.006z"></path>
<path fill="#d2a285" d="M12.698 14.061l-0.030-0.015c-0.001-0.001-0.003-0.002-0.004-0.002-0.045-0.028-0.088-0.062-0.129-0.103l-0.003-0.002c-0.021-0.021-0.044-0.047-0.063-0.073-0.021-0.023-0.040-0.049-0.059-0.077-0.077-0.115-0.145-0.255-0.194-0.415-0.035-0.105-0.061-0.22-0.080-0.339-0.033-0.213-0.033-0.419-0.007-0.602 0-0.001 0-0.001 0-0.001 0.016-0.111 0.043-0.213 0.078-0.304 0.001-0.003 0.003-0.006 0.004-0.009 0.003-0.010 0.007-0.019 0.011-0.028 0.067-0.155 0.162-0.27 0.277-0.323 0.012-0.005 0.023-0.010 0.035-0.014l0.014-0.005c0.008-0.002 0.016-0.005 0.024-0.006 0.001 0.001 0.003 0.002 0.004 0.002 0 0 0 0 0 0-0.041 0.269-0.061 0.546-0.061 0.835v0.052c0 0.385 0.040 0.764 0.11 1.125 0.021 0.103 0.044 0.204 0.070 0.304z"></path>
<path fill="#deb393" d="M12.793 14.374c-0-0-0-0.001-0-0.001-0.026-0.077-0.052-0.157-0.073-0.239-0.006-0.021-0.013-0.044-0.019-0.066-0.001-0.002-0.001-0.005-0.002-0.007l-0.001-0c-0.026-0.1-0.050-0.202-0.070-0.305-0.071-0.361-0.11-0.74-0.11-1.125v-0.052c0-0.29 0.021-0.566 0.061-0.835 0.030 0.018 0.066 0.024 0.108 0.025 0 0.497 0.032 0.835 0.447 0.835 0 0 0.001 0 0.001 0s0.001 0 0.002 0c0.418 0 0.875-0.985 2.768-0.985 0.839 0 1.395 0.193 1.792 0.409 0.314 0.171 0.527 0.356 0.7 0.469-0.146 0.149-0.363 0.196-0.598 0.196-0.287 0-0.602-0.071-0.852-0.116-0.373-0.077-0.766-0.135-1.154-0.135-0.253 0-0.504 0.025-0.747 0.086-0.718 0.179-1.103 0.616-1.513 1.205-0.178 0.255-0.437 0.51-0.738 0.643z"></path>
<path fill="#89b4ae" d="M12.686 11.769c-0.042-0-0.078-0.007-0.108-0.025 0 0-0 0-0 0-0.001-0.001-0.003-0.001-0.004-0.002-0 0-0.001 0-0.001-0 0.001 0 0.002-0.001 0.003-0.001 0.030 0.018 0.067 0.025 0.11 0.025 0 0.001 0 0.002 0 0.003z"></path>
<path fill="#ede4de" d="M13.136 12.603c-0.001 0-0.001 0-0.002 0 0.064-0 0.129-0.025 0.203-0.068 0.391-0.216 0.964-0.918 2.567-0.918 0.839 0 1.396 0.194 1.792 0.41-0.397-0.216-0.953-0.409-1.792-0.409-1.893 0-2.35 0.985-2.768 0.985z"></path>
<path fill="#ebecec" d="M21.908 22.95v0.468c0 0.32-0.283 0.582-0.631 0.582h-10.553c-0.346 0-0.632-0.262-0.632-0.582v-0.468c0.769-0.349 0.712-3.814 0.693-4.489-0.003-0.073-0.004-0.114-0.004-0.114l1.395-0.5c0 0.044 0 0.087 0.001 0.13 0.059 3.661 2.624 5.142 3.72 5.231h0.001c0.036 0.003 0.070 0.005 0.102 0.005s0.066-0.002 0.102-0.005h0.001c1.099-0.090 3.674-1.577 3.72-5.258 0.001-0.033 0.001-0.068 0.001-0.103l1.395 0.5c0 0-0.001 0.039-0.004 0.108-0.019 0.662-0.079 4.144 0.693 4.495z"></path>
<path fill="#d9ac8e" d="M15.999 23.212c-0.032 0-0.065-0.002-0.101-0.005h-0.001c-0.136-0.011-0.295-0.043-0.47-0.099 0.283-0.313 0.429-0.752 0.503-1.155 0.023 0.004 0.046 0.005 0.071 0.005s0.048-0.001 0.070-0.005c0.074 0.403 0.218 0.84 0.502 1.153-0.134 0.044-0.259 0.074-0.372 0.090-0 0-0.001 0-0.001 0s-0.001 0-0.001 0c-0.007 0.001-0.013 0.002-0.020 0.003-0.027 0.004-0.053 0.006-0.079 0.008h-0.002c-0.035 0.003-0.068 0.005-0.1 0.005z"></path>
<path fill="#dfd8d4" d="M15.998 23.212c-0.032 0-0.065-0.002-0.102-0.005h-0.001c-0.136-0.010-0.294-0.044-0.468-0.099 0-0 0.001-0 0.001-0.001 0.174 0.056 0.334 0.088 0.47 0.099h0.001c0.036 0.003 0.069 0.005 0.101 0.005-0 0-0.001 0-0.001 0zM16.179 23.2c0.006-0.001 0.013-0.002 0.020-0.003-0.007 0.001-0.013 0.002-0.020 0.003zM16.2 23.197c0 0 0.001-0 0.001-0s-0.001 0-0.001 0z"></path>
<path fill="#c0d6e0" d="M10.181 18.806c0.070-0.108 0.177-0.193 0.305-0.241 0 0 0 0 0-0s0 0 0 0c0.003-0.001 0.005-0.002 0.008-0.003-0.131 0.047-0.241 0.134-0.313 0.244zM10.56 18.539l0.036-0.012 0.188-0.066c0 0 0 0 0 0l-0.224 0.078z"></path>
<path fill="#cda88f" d="M10.684 19.799c-0.199 0-0.398-0.010-0.592-0.032v-0.664c0-0.104 0.029-0.201 0.081-0.285 0 0 0-0 0-0.001s0.001-0.001 0.001-0.001c0.002-0.004 0.005-0.007 0.007-0.011 0.072-0.11 0.182-0.197 0.313-0.244 0.006-0.002 0.012-0.004 0.017-0.006l0.007-0.003 0.021-0.007 0.021-0.007 0.224-0.078c0.006 0.219 0.016 0.732 0.001 1.337-0.034 0.001-0.067 0.001-0.101 0.001z"></path>
<path fill="#c0d6e0" d="M12.176 17.977c0-0 0-0 0-0-0.001-0.043-0.001-0.086-0.001-0.13h0c0 0.044 0 0.087 0.001 0.13l0.168-0.058-0.169 0.059zM13.643 17.468v0zM15.897 17.059c-0.079 0-0.157-0.004-0.235-0.011 0.028 0.003 0.056 0.005 0.084 0.006 0.001 0 0.001 0 0.001 0s0.002 0 0.003 0c0.049 0.003 0.099 0.005 0.149 0.005-0.001 0-0.002 0-0.003 0zM17.708 16.837v-0.459c0 0 0-0 0.001-0v0.458c-0 0-0 0.001-0.001 0.001z"></path>
<path fill="#cda88f" d="M12.383 19.576c-0.123-0.479-0.197-1.011-0.206-1.599l1.967-0.684v-0.88c0.188 0.15 0.389 0.277 0.599 0.378 0.001 0 0.002 0.001 0.003 0.001s0.001 0 0.001 0.001c0.186 0.089 0.381 0.157 0.581 0.201 0.11 0.024 0.221 0.042 0.334 0.053 0.077 0.007 0.156 0.011 0.235 0.011 0.001 0 0.002 0 0.003 0s0.003 0 0.005 0c0 0 0 0 0 0s0 0 0 0c0.025 0 0.051-0.001 0.076-0.001 0.014-0.001 0.027-0.001 0.041-0.001 0.035-0.002 0.070-0.004 0.104-0.007 0.579-0.049 1.118-0.288 1.581-0.672v0.459c-0.621 1.015-1.659 1.391-2.78 1.391-0.012 0-0.024 0-0.036 0-0.513 0.497-1.182 0.893-1.917 1.162-0.192 0.071-0.39 0.132-0.591 0.186-0 0-0.001 0-0.001 0z"></path>
<path fill="#d7b59b" d="M15.906 17.059c0 0-0 0-0 0 0.025 0 0.051-0.001 0.076-0.001-0.025 0.001-0.051 0.001-0.076 0.001zM15.751 17.054c-0.001 0-0.002 0-0.003 0 0.001 0 0.002 0 0.003 0zM15.746 17.054c-0.028-0.002-0.056-0.004-0.084-0.006-0.113-0.011-0.225-0.028-0.334-0.053 0.068 0.015 0.137 0.028 0.207 0.037s0.14 0.017 0.211 0.021zM16.126 17.050c0.579-0.050 1.118-0.289 1.582-0.673v0.001c-0 0-0.001 0-0.001 0-0.463 0.383-1.003 0.623-1.581 0.672zM14.747 16.794c-0.001-0-0.001-0.001-0.001-0.001 0.001 0 0.001 0 0.001 0.001zM14.743 16.792c-0.21-0.101-0.411-0.228-0.599-0.378v-0c0.188 0.15 0.389 0.277 0.599 0.378z"></path>
<path fill="#d4d3d6" d="M10.785 19.798c0.015-0.605 0.005-1.118-0.001-1.337 0-0 0-0 0-0v0c0-0 0-0.001 0-0.001l0.001-0c-0.002-0.073-0.005-0.112-0.005-0.112l0.236-0.085 1.159-0.415c0 0.044 0 0.087 0.001 0.13 0 0 0 0 0 0 0.010 0.588 0.084 1.12 0.206 1.599-0.523 0.139-1.065 0.216-1.597 0.222-0 0-0 0-0.001 0z"></path>
<path fill="#87493f" d="M14.144 16.413v0.88l-0.045 0.015-1.384 0.482c-0.037-0.924 0.092-1.897 0.35-2.749 0.022 0.044 0.044 0.088 0.066 0.131 0.256 0.477 0.582 0.886 0.959 1.199l0.054 0.043z"></path>
<path fill="#653c35" d="M12.693 10.357c0.054-0.224 0.135-0.439 0.24-0.641-0.105 0.202-0.186 0.416-0.239 0.639-0 0.001-0.001 0.001-0.001 0.001zM13.293 9.177c0-0.001 0.001-0.001 0.001-0.001s-0.001 0.001-0.001 0.001zM13.296 9.174c0.012-0.014 0.023-0.027 0.035-0.041v0c-0.012 0.014-0.024 0.027-0.035 0.041z"></path>
<path fill="#ac8775" d="M10.724 24h-0.001c-0.343 0-0.628-0.258-0.632-0.574 0.004 0.316 0.289 0.574 0.632 0.574zM21.609 23.913c0.003-0.002 0.007-0.004 0.010-0.006 0.024-0.014 0.047-0.030 0.069-0.047l-0.001 0.001c-0.024 0.019-0.051 0.037-0.078 0.053zM10.092 23.418v-4.314c0-0.105 0.031-0.205 0.085-0.29-0.001 0.001-0.001 0.002-0.002 0.003s-0 0.001-0.001 0.001-0 0.001-0 0.001c-0.052 0.085-0.082 0.183-0.082 0.286v0.663c0 0 0 0 0.001 0v3.182c-0 0-0.001 0-0.001 0.001v0.468z"></path>
<path fill="#ac8572" d="M12.698 14.064c-0.010-0.005-0.021-0.011-0.031-0.017-0.053-0.032-0.105-0.075-0.155-0.128 0.048 0.052 0.099 0.093 0.151 0.124 0.001 0.001 0.003 0.002 0.004 0.003l0.014 0.007 0.015 0.009c0 0.001 0 0.001 0.001 0.002z"></path>
<path fill="#b6927e" d="M13.066 15.044c-0-0.001-0.001-0.002-0.001-0.003s0 0.001-0 0.001c-0.151-0.303-0.275-0.631-0.366-0.978-0-0.001-0.001-0.002-0.001-0.002l0.001 0c0.001 0.002 0.001 0.004 0.002 0.006 0.027 0.105 0.058 0.207 0.091 0.307 0-0 0.001-0.001 0.001-0.001 0.075 0.234 0.166 0.456 0.274 0.666v0.003c0 0 0 0.001-0 0.001z"></path>
<path fill="#6e9497" d="M12.571 11.74c-0.141-0.079-0.15-0.345-0.15-0.918 0-0.087 0.046-0.192 0.132-0.305-0.085 0.114-0.131 0.218-0.131 0.304 0 0.576 0.009 0.841 0.152 0.918l-0.003 0.001z"></path>
<path fill="#a67e69" d="M12.791 14.375c-0.033-0.099-0.064-0.202-0.091-0.307 0.006 0.022 0.013 0.045 0.019 0.066 0.021 0.082 0.047 0.162 0.073 0.239 0 0 0 0.001 0 0.001s-0.001 0.001-0.001 0.001z"></path>
<path fill="#8f999b" d="M12.513 13.918c-0.178-0.19-0.323-0.507-0.378-0.884-0.097-0.636 0.090-1.201 0.424-1.29l-0.010 0.003c-0.017 0.005-0.033 0.011-0.049 0.019-0.117 0.053-0.213 0.168-0.277 0.323-0.005 0.012-0.010 0.024-0.015 0.037-0.010 0.022-0.018 0.043-0.024 0.066-0.023 0.072-0.042 0.152-0.054 0.238-0.027 0.183-0.027 0.389 0.005 0.604 0.058 0.376 0.201 0.694 0.378 0.884z"></path>
<path fill="#9e7562" d="M12.664 14.043c-0.052-0.031-0.103-0.073-0.151-0.124-0.177-0.19-0.321-0.508-0.378-0.884-0.032-0.214-0.032-0.421-0.005-0.604 0 0.001 0 0.001 0 0.001-0.026 0.182-0.026 0.388 0.007 0.602 0.019 0.119 0.044 0.234 0.080 0.339 0.049 0.159 0.117 0.3 0.194 0.415 0.019 0.028 0.037 0.054 0.059 0.077 0.019 0.026 0.042 0.052 0.063 0.073l0.003 0.002c0.041 0.041 0.084 0.075 0.129 0.103zM12.207 12.127c0.005-0.013 0.010-0.025 0.015-0.037-0.004 0.009-0.008 0.019-0.011 0.028-0.001 0.003-0.003 0.006-0.004 0.009zM12.5 11.767c0.016-0.008 0.032-0.014 0.049-0.019l-0.014 0.005c-0.012 0.004-0.024 0.008-0.035 0.014z"></path>
<path fill="#b0aaae" d="M21.277 24h-10.553c-0.344 0-0.628-0.258-0.632-0.574 0-0.003 0-0.005 0-0.007v-0.468c0-0 0.001-0 0.001-0.001v0.467c0 0.321 0.286 0.583 0.632 0.583h10.553c0.034 0 0.068-0.003 0.101-0.007-0.033 0.005-0.067 0.008-0.102 0.008zM21.618 23.907c0.026-0.016 0.051-0.033 0.074-0.053l-0.005 0.005c-0.022 0.017-0.044 0.033-0.069 0.047zM10.784 18.46c-0.003-0.072-0.004-0.112-0.004-0.113s0.002 0.041 0.004 0.113v0zM10.78 18.347v0 0z"></path>
<path fill="#9c7869" d="M10.093 19.767c-0 0-0.001 0-0.001 0v-0.663c0-0.103 0.030-0.201 0.082-0.286-0.052 0.084-0.081 0.182-0.081 0.285v0.664zM10.174 18.817c0-0 0.001-0.001 0.001-0.001s-0 0.001-0.001 0.001z"></path>
<path fill="#8a99a5" d="M10.486 18.565c0 0 0 0 0-0s-0 0-0 0zM10.486 18.564c0.008-0.003 0.017-0.006 0.025-0.009-0.006 0.002-0.012 0.004-0.017 0.006-0.003 0.001-0.005 0.002-0.008 0.003zM10.518 18.553l0.020-0.007 0.058-0.020-0.057 0.020-0.021 0.007z"></path>
<path fill="#9c7869" d="M10.494 18.562c0.006-0.002 0.012-0.004 0.017-0.006v0l0.007-0.003 0.021-0.007 0.021-0.007-0.021 0.007-0.021 0.007-0.007 0.003c-0.006 0.002-0.012 0.004-0.017 0.006z"></path>
<path fill="#9c979d" d="M10.784 18.46c-0.002-0.072-0.004-0.112-0.004-0.113v0l0.236-0.085-0.236 0.085c0 0 0.002 0.040 0.005 0.112l-0.001 0z"></path>
<path fill="#653c35" d="M12.714 17.79c-0.037-0.923 0.092-1.895 0.35-2.748 0 0 0-0.001 0-0.001s0.001 0.002 0.001 0.003c-0.26 0.85-0.388 1.821-0.351 2.743v0.002l-0.001 0z"></path>
<path fill="#87d923" d="M20.988 22.463c0 0.329-0.158 0.621-0.402 0.804l-0.239-0.688 0.595-0.415c0.030 0.095 0.046 0.195 0.046 0.3zM20.299 22.338c-0.030-0.032-0.072-0.052-0.119-0.052-0.059 0-0.11 0.031-0.139 0.077-0.029-0.046-0.081-0.077-0.139-0.077s-0.11 0.031-0.139 0.077v-0.067h-0.077c0.057-0.106 0.169-0.179 0.298-0.179 0.145 0 0.268 0.092 0.316 0.22zM19.661 22.356h0.027v0.259h0.074v-0.078c0.029 0.046 0.081 0.077 0.139 0.077s0.11-0.031 0.139-0.077c0.029 0.046 0.080 0.077 0.139 0.077 0.050 0 0.094-0.022 0.125-0.057-0.044 0.136-0.171 0.234-0.321 0.234-0.186 0-0.337-0.151-0.337-0.337 0-0.034 0.005-0.068 0.015-0.099zM19.869 22.549c-0.041-0.014-0.072-0.053-0.072-0.099 0-0.053 0.039-0.096 0.090-0.103 0.004 0 0.007 0 0.011 0.001s0.008 0.001 0.011 0.003c0.003 0.001 0.004 0.003 0.006 0.006s0.003 0.006 0.004 0.010c0.001 0.003 0.001 0.006 0 0.009s-0.001 0.006-0.003 0.009c-0.001 0.003-0.003 0.006-0.006 0.009s-0.005 0.006-0.009 0.010c-0.003 0.003-0.006 0.007-0.010 0.010s-0.009 0.009-0.014 0.014c-0.005 0.005-0.009 0.010-0.013 0.015s-0.008 0.011-0.011 0.016c-0.003 0.005-0.005 0.011-0.006 0.015s-0.002 0.010-0.002 0.015c0 0.005 0 0.010 0.001 0.014s0.002 0.010 0.004 0.015c0.002 0.005 0.004 0.010 0.006 0.015s0.007 0.010 0.012 0.015l0.001 0.001zM19.93 22.35c0.044 0.012 0.076 0.052 0.076 0.1 0 0.051-0.036 0.093-0.084 0.102-0.005 0.001-0.010 0.001-0.015-0.001-0.004-0.001-0.009-0.003-0.014-0.006s-0.009-0.006-0.012-0.009c-0.003-0.003-0.006-0.007-0.008-0.011s-0.004-0.008-0.005-0.012c-0.001-0.004-0.002-0.008-0.003-0.012s-0.001-0.008-0.001-0.012 0.001-0.008 0.001-0.011 0.002-0.008 0.005-0.012 0.006-0.009 0.009-0.014c0.004-0.005 0.008-0.010 0.012-0.014s0.009-0.009 0.014-0.014c0.004-0.004 0.008-0.007 0.011-0.011s0.007-0.008 0.010-0.012c0.003-0.004 0.005-0.008 0.007-0.012s0.003-0.009 0.004-0.013c0.001-0.005 0.001-0.009-0-0.014s-0.002-0.009-0.005-0.013zM20.147 22.549c-0.041-0.014-0.071-0.053-0.071-0.099 0-0.053 0.039-0.096 0.090-0.103 0.003 0 0.007 0 0.010 0.001 0.005 0.001 0.008 0.001 0.011 0.003s0.004 0.003 0.006 0.006c0.002 0.003 0.003 0.006 0.004 0.010s0.001 0.006 0 0.009c-0 0.003-0.001 0.006-0.003 0.009s-0.003 0.006-0.006 0.009c-0.003 0.003-0.005 0.006-0.009 0.010s-0.007 0.007-0.010 0.010c-0.004 0.004-0.009 0.009-0.014 0.014s-0.009 0.010-0.013 0.015c-0.004 0.005-0.008 0.011-0.011 0.016s-0.005 0.011-0.006 0.015c-0.001 0.005-0.002 0.010-0.002 0.015s0 0.010 0.001 0.014c0.001 0.005 0.002 0.010 0.003 0.015s0.004 0.010 0.007 0.015c0.003 0.005 0.007 0.010 0.012 0.015l0 0.001zM20.208 22.35c0.044 0.012 0.076 0.052 0.076 0.1 0 0.051-0.036 0.093-0.084 0.102-0.005 0.001-0.010 0.001-0.015-0.001-0.005-0.001-0.010-0.003-0.015-0.006s-0.009-0.006-0.012-0.009c-0.004-0.003-0.006-0.007-0.009-0.011s-0.004-0.008-0.005-0.012c-0.001-0.004-0.002-0.008-0.003-0.012s-0.001-0.008-0.001-0.012 0.001-0.008 0.001-0.011 0.003-0.008 0.005-0.012 0.005-0.009 0.009-0.014c0.004-0.005 0.008-0.010 0.012-0.014s0.009-0.009 0.014-0.014c0.004-0.004 0.007-0.007 0.010-0.011s0.007-0.008 0.010-0.012c0.003-0.004 0.006-0.008 0.007-0.012s0.003-0.009 0.004-0.013c0.001-0.005 0.001-0.009-0-0.014s-0.002-0.009-0.005-0.013zM20.564 23.283c-0.164 0.117-0.364 0.185-0.581 0.185s-0.417-0.068-0.581-0.185l0.581-0.44 0.581 0.44zM19.381 23.267c-0.244-0.183-0.402-0.475-0.402-0.804 0-0.105 0.016-0.205 0.045-0.3l0.595 0.415-0.239 0.688zM19.033 22.137c0.134-0.39 0.501-0.672 0.936-0.678l-0.21 0.693-0.726-0.014zM19.998 21.459c0.434 0.006 0.802 0.288 0.936 0.678l-0.726 0.014-0.21-0.693zM18.822 22.068l0.032 0.040-0.014 0.054 0.112 0.028-0.012 0.047-0.112-0.028-0.018 0.071-0.032-0.040 0.043-0.172zM19.023 21.911l0.023 0.045-0.063 0.136-0.142-0.066 0.076-0.164 0.024 0.046-0.043 0.092 0.017 0.008 0.052-0.112 0.020 0.040-0.040 0.087 0.019 0.009 0.056-0.121zM19.183 21.763l-0.028 0.039-0.048-0.035-0.055 0.075 0.048 0.036-0.029 0.039-0.126-0.092 0.029-0.039 0.044 0.033 0.055-0.075-0.044-0.033 0.029-0.039 0.125 0.093zM19.241 21.709l-0.034 0.034-0.111-0.109 0.034-0.034 0.111 0.109zM19.395 21.534l-0 0.051-0.063 0.047c-0.022 0.017-0.044 0.024-0.067 0.023s-0.042-0.011-0.056-0.029c-0.014-0.018-0.018-0.038-0.012-0.061s0.019-0.041 0.041-0.057l0.087-0.066v0.051l-0.063 0.047c-0.010 0.008-0.017 0.017-0.019 0.028s-0.001 0.021 0.006 0.030c0.006 0.009 0.015 0.013 0.027 0.014s0.022-0.004 0.032-0.012l0.087-0.066zM19.697 21.445l-0.068 0.026-0.059-0.022c-0.018-0.006-0.030-0.011-0.036-0.014l0.005 0.010c0.001 0.002 0.001 0.004 0.002 0.006l0.018 0.047-0.045 0.017-0.055-0.146 0.045-0.017 0.013 0.034c0.004 0.011 0.007 0.020 0.009 0.026 0-0.001 0.001-0.003 0.003-0.006l0.002-0.004 0.002-0.004c0.003-0.007 0.007-0.014 0.011-0.020l0.029-0.052 0.065-0.025-0.040 0.063c-0.012 0.018-0.021 0.032-0.028 0.041 0.005 0.001 0.008 0.002 0.009 0.002l0.011 0.003c0.004 0.001 0.008 0.003 0.014 0.005l0.008 0.002 0.008 0.003 0.079 0.025zM19.775 21.314l0.008 0.044c0.008 0.046-0.013 0.074-0.063 0.083l-0.015 0.003 0.003-0.041 0.005-0.001c0.004-0.001 0.009-0.004 0.015-0.010s0.008-0.014 0.007-0.025l-0.014-0.084 0.169-0.028 0.026 0.154-0.048 0.008-0.019-0.114-0.073 0.012zM20.176 21.262l-0.137 0.151-0.056-0.002 0.048-0.050-0.091-0.108 0.062 0.003 0.035 0.045c0.001 0 0.001 0.001 0.002 0.002s0.002 0.002 0.003 0.003l0.003 0.004 0.003 0.004c0.006 0.007 0.009 0.011 0.010 0.012 0.001-0.001 0.003-0.004 0.006-0.008s0.009-0.010 0.014-0.016l0.037-0.042 0.061 0.003zM20.386 21.363l-0.168-0.049 0.043-0.030 0.155 0.045-0.030 0.034zM20.345 21.373c0.025 0.010 0.041 0.023 0.046 0.041 0.003 0.007 0.003 0.015 0 0.024-0.008 0.029-0.033 0.038-0.074 0.026l-0.132-0.038 0.026-0.091 0.133 0.039zM20.244 21.4l0.006-0.021 0.085 0.025c0.010 0.003 0.014 0.007 0.012 0.014s-0.008 0.009-0.017 0.006l-0.085-0.025zM20.614 21.477l-0.024 0.037c-0.026 0.040-0.060 0.046-0.103 0.018l-0.013-0.008 0.031-0.028 0.004 0.003c0.003 0.002 0.009 0.003 0.018 0.003s0.015-0.005 0.022-0.014l0.046-0.071 0.143 0.093-0.085 0.131-0.041-0.026 0.063-0.097-0.062-0.041zM20.678 21.661l-0.001-0.001 0.109-0.11 0.034 0.034-0.028 0.028 0.058 0.057c0.017 0.017 0.027 0.034 0.029 0.051s-0.003 0.032-0.015 0.044c-0.012 0.012-0.027 0.018-0.044 0.016s-0.035-0.011-0.052-0.028l-0.092-0.091 0.001-0zM20.765 21.641l0.061 0.061c0.005 0.005 0.008 0.011 0.009 0.016s-0.001 0.010-0.005 0.014c-0.008 0.008-0.018 0.007-0.029-0.004l-0.061-0.061 0.025-0.025zM20.998 21.956c-0.003 0.007-0.008 0.013-0.016 0.018-0.026 0.016-0.050 0.006-0.072-0.030l-0.073-0.116 0.080-0.050 0.073 0.117c0.005 0.008 0.010 0.010 0.016 0.006s0.006-0.009 0.001-0.017l-0.073-0.117 0.052 0.006 0.055 0.088c0.010 0.016 0.015 0.031 0.015 0.044s-0.007 0.024-0.019 0.031c-0.007 0.005-0.014 0.006-0.022 0.006-0.006-0.001-0.012-0.003-0.017-0.007 0.002 0.007 0.002 0.014-0.001 0.021zM20.915 21.836l0.047 0.075c0.005 0.008 0.005 0.015-0.001 0.018s-0.012 0.002-0.017-0.007l-0.047-0.076 0.018-0.011zM20.971 22.067l-0.019-0.044 0.144-0.061 0.019 0.044-0.144 0.061zM21.105 22.262c-0.005 0.006-0.012 0.010-0.020 0.013-0.029 0.008-0.050-0.008-0.061-0.049l-0.035-0.133 0.092-0.024 0.036 0.133c0.002 0.009 0.007 0.012 0.014 0.010s0.008-0.007 0.006-0.016l-0.036-0.133 0.048 0.021 0.027 0.1c0.005 0.019 0.005 0.034 0.001 0.046s-0.014 0.021-0.027 0.024c-0.008 0.002-0.016 0.002-0.023-0.001-0.006-0.003-0.011-0.006-0.014-0.011 0 0.008-0.002 0.014-0.007 0.020zM21.060 22.123l0.023 0.086c0.003 0.010 0 0.015-0.006 0.017s-0.012-0.002-0.014-0.012l-0.023-0.086 0.021-0.006zM18.971 22.791l-0.047-0.021-0.012-0.054-0.113 0.026-0.011-0.047 0.113-0.026-0.017-0.072 0.047 0.021 0.040 0.173zM18.946 23.023l-0.049-0.012-0.062-0.137 0.143-0.064 0.075 0.165-0.050-0.012-0.042-0.092-0.017 0.008 0.051 0.113-0.044-0.011-0.039-0.088-0.019 0.009 0.055 0.121zM19.034 23.069l-0.075 0.053-0.025-0.036 0.105-0.076c0.008-0.006 0.016-0.008 0.023-0.006s0.012 0.005 0.016 0.011c0.004 0.006 0.006 0.013 0.005 0.021l-0.014 0.128 0.075-0.053 0.026 0.036-0.105 0.076c-0.008 0.006-0.015 0.008-0.023 0.006s-0.012-0.005-0.017-0.011c-0.004-0.006-0.006-0.013-0.005-0.021l0.014-0.128zM19.179 23.25l-0.064 0.066-0.032-0.030 0.090-0.094c0.007-0.007 0.014-0.011 0.021-0.011s0.013 0.003 0.018 0.008c0.005 0.005 0.008 0.011 0.008 0.019l0.010 0.128 0.064-0.066 0.032 0.030-0.090 0.094c-0.007 0.007-0.014 0.011-0.021 0.011s-0.013-0.003-0.018-0.008c-0.005-0.005-0.008-0.011-0.008-0.019l-0.010-0.128zM19.312 23.479l-0.039-0.028 0.091-0.128 0.039 0.028-0.091 0.128zM19.539 23.497c0.035 0.018 0.046 0.039 0.033 0.065-0.015 0.030-0.043 0.035-0.083 0.015l-0.13-0.066 0.046-0.022 0.105 0.054c0.010 0.005 0.017 0.004 0.020-0.003s0-0.013-0.010-0.017l-0.076-0.039c-0.017-0.009-0.028-0.019-0.034-0.031s-0.005-0.023 0.002-0.035c0.015-0.029 0.042-0.033 0.082-0.013l0.121 0.062-0.046 0.022-0.097-0.049c-0.010-0.005-0.016-0.004-0.020 0.002s0 0.012 0.010 0.017l0.076 0.039zM19.946 23.644l-0.036 0.036-0.078-0.010c-0.027-0.003-0.048-0.014-0.064-0.031s-0.023-0.037-0.020-0.060c0.003-0.023 0.014-0.040 0.034-0.052s0.042-0.016 0.070-0.013l0.109 0.014-0.036 0.037-0.078-0.010c-0.013-0.002-0.024 0.001-0.034 0.006s-0.015 0.015-0.016 0.026 0.002 0.021 0.010 0.028c0.008 0.008 0.018 0.013 0.031 0.014l0.109 0.014zM20.16 23.629l-0.028 0.043-0.138 0.011-0.012-0.156 0.048-0.004 0.009 0.116 0.121-0.009zM20.393 23.541c0.013 0.045-0.012 0.077-0.075 0.095-0.036 0.010-0.064 0.012-0.084 0.005s-0.032-0.021-0.039-0.044l-0.024-0.085 0.046-0.013 0.024 0.085c0.003 0.012 0.009 0.018 0.017 0.020s0.025-0 0.048-0.007c0.018-0.005 0.029-0.011 0.035-0.017s0.007-0.015 0.004-0.026l-0.024-0.085 0.047-0.013 0.024 0.085zM20.611 23.432c0.007 0.004 0.012 0.009 0.017 0.017 0.014 0.027 0.002 0.050-0.036 0.069l-0.123 0.062-0.043-0.085 0.124-0.063c0.008-0.004 0.010-0.009 0.007-0.015s-0.009-0.007-0.017-0.003l-0.124 0.063 0.011-0.051 0.092-0.047c0.017-0.009 0.032-0.012 0.045-0.011s0.023 0.009 0.030 0.022c0.004 0.008 0.005 0.015 0.004 0.023-0.001 0.006-0.004 0.012-0.008 0.016 0.008-0.002 0.015-0.001 0.021 0.003zM20.485 23.504l0.079-0.040c0.009-0.005 0.015-0.004 0.018 0.003s0.001 0.012-0.008 0.017l-0.080 0.040-0.010-0.019zM20.895 23.211l0.008 0.050-0.096 0.1-0.113-0.108 0.034-0.035 0.084 0.080 0.084-0.088zM20.83 23.106l0.125-0.003-0.047-0.118 0.031-0.048 0.064 0.161c0.005 0.014 0.005 0.026-0.002 0.036s-0.017 0.016-0.031 0.017l-0.172 0.006 0.032-0.050zM21.109 22.926l-0.020 0.044-0.143-0.064 0.020-0.044 0.143 0.064zM20.996 22.785l0.117-0.045-0.084-0.095 0.013-0.055 0.115 0.129c0.009 0.011 0.013 0.023 0.010 0.035s-0.011 0.021-0.024 0.026l-0.16 0.064 0.013-0.058zM18.841 22.395c0.038 0 0.068 0.031 0.068 0.068s-0.031 0.068-0.068 0.068c-0.038 0-0.068-0.030-0.068-0.068s0.031-0.068 0.068-0.068zM21.125 22.395c0.038 0 0.068 0.031 0.068 0.068s-0.030 0.068-0.068 0.068c-0.038 0-0.068-0.030-0.068-0.068s0.030-0.068 0.068-0.068zM21.263 22.463c0-0.707-0.573-1.28-1.28-1.28s-1.28 0.573-1.28 1.28c0 0.707 0.573 1.28 1.28 1.28s1.28-0.573 1.28-1.28z"></path>
</svg>
